<?xml version="1.0" encoding="utf-8" standalone="no"?>
<!DOCTYPE svg PUBLIC "-//W3C//DTD SVG 1.1//EN"
  "http://www.w3.org/Graphics/SVG/1.1/DTD/svg11.dtd">
<svg xmlns:xlink="http://www.w3.org/1999/xlink" width="1388.16pt" height="722.88pt" viewBox="0 0 1388.16 722.88" xmlns="http://www.w3.org/2000/svg" version="1.1">
 <metadata>
  <rdf:RDF xmlns:dc="http://purl.org/dc/elements/1.1/" xmlns:cc="http://creativecommons.org/ns#" xmlns:rdf="http://www.w3.org/1999/02/22-rdf-syntax-ns#">
   <cc:Work>
    <dc:type rdf:resource="http://purl.org/dc/dcmitype/StillImage"/>
    <dc:date>2026-05-15T22:42:29.879419</dc:date>
    <dc:format>image/svg+xml</dc:format>
    <dc:creator>
     <cc:Agent>
      <dc:title>Matplotlib v3.10.8, https://matplotlib.org/</dc:title>
     </cc:Agent>
    </dc:creator>
   </cc:Work>
  </rdf:RDF>
 </metadata>
 <defs>
  <style type="text/css">*{stroke-linejoin: round; stroke-linecap: butt}</style>
 </defs>
 <g id="figure_1">
  <g id="patch_1">
   <path d="M 0 722.88 
L 1388.16 722.88 
L 1388.16 0 
L 0 0 
z
" style="fill: #ffffff"/>
  </g>
  <g id="axes_1">
   <g id="patch_2">
    <path d="M 56.52 433.512 
L 250.56 433.512 
Q 267.192 433.512 267.192 416.88 
L 267.192 167.4 
Q 267.192 150.768 250.56 150.768 
L 56.52 150.768 
Q 39.888 150.768 39.888 167.4 
L 39.888 416.88 
Q 39.888 433.512 56.52 433.512 
z
" clip-path="url(#pd8aa4c1054)" style="fill: #2563eb; fill-opacity: 0.058824; stroke-dasharray: 5.55,2.4; stroke-dashoffset: 0; stroke: #2563eb; stroke-opacity: 0.376471; stroke-width: 1.5; stroke-linejoin: miter"/>
   </g>
   <g id="patch_3">
    <path d="M 278.28 599.832 
L 472.32 599.832 
Q 488.952 599.832 488.952 583.2 
L 488.952 167.4 
Q 488.952 150.768 472.32 150.768 
L 278.28 150.768 
Q 261.648 150.768 261.648 167.4 
L 261.648 583.2 
Q 261.648 599.832 278.28 599.832 
z
" clip-path="url(#pd8aa4c1054)" style="fill: #7c3aed; fill-opacity: 0.058824; stroke-dasharray: 5.55,2.4; stroke-dashoffset: 0; stroke: #7c3aed; stroke-opacity: 0.376471; stroke-width: 1.5; stroke-linejoin: miter"/>
   </g>
   <g id="patch_4">
    <path d="M 500.04 461.232 
L 888.12 461.232 
Q 904.752 461.232 904.752 444.6 
L 904.752 167.4 
Q 904.752 150.768 888.12 150.768 
L 500.04 150.768 
Q 483.408 150.768 483.408 167.4 
L 483.408 444.6 
Q 483.408 461.232 500.04 461.232 
z
" clip-path="url(#pd8aa4c1054)" style="fill: #0e7490; fill-opacity: 0.058824; stroke-dasharray: 5.55,2.4; stroke-dashoffset: 0; stroke: #0e7490; stroke-opacity: 0.376471; stroke-width: 1.5; stroke-linejoin: miter"/>
   </g>
   <g id="patch_5">
    <path d="M 915.84 488.952 
L 1248.48 488.952 
Q 1265.112 488.952 1265.112 472.32 
L 1265.112 167.4 
Q 1265.112 150.768 1248.48 150.768 
L 915.84 150.768 
Q 899.208 150.768 899.208 167.4 
L 899.208 472.32 
Q 899.208 488.952 915.84 488.952 
z
" clip-path="url(#pd8aa4c1054)" style="fill: #d97706; fill-opacity: 0.058824; stroke-dasharray: 5.55,2.4; stroke-dashoffset: 0; stroke: #d97706; stroke-opacity: 0.376471; stroke-width: 1.5; stroke-linejoin: miter"/>
   </g>
   <g id="text_1">
    <!-- DATA -->
    <g style="fill: #2563eb" transform="translate(56.52 139.68) scale(0.11 -0.11)">
     <defs>
      <path id="Arial-BoldMT-44" d="M 463 4581 
L 2153 4581 
Q 2725 4581 3025 4494 
Q 3428 4375 3715 4072 
Q 4003 3769 4153 3330 
Q 4303 2891 4303 2247 
Q 4303 1681 4163 1272 
Q 3991 772 3672 463 
Q 3431 228 3022 97 
Q 2716 0 2203 0 
L 463 0 
L 463 4581 
z
M 1388 3806 
L 1388 772 
L 2078 772 
Q 2466 772 2638 816 
Q 2863 872 3011 1006 
Q 3159 1141 3253 1448 
Q 3347 1756 3347 2288 
Q 3347 2819 3253 3103 
Q 3159 3388 2990 3547 
Q 2822 3706 2563 3763 
Q 2369 3806 1803 3806 
L 1388 3806 
z
" transform="scale(0.015625)"/>
      <path id="Arial-BoldMT-41" d="M 4597 0 
L 3591 0 
L 3191 1041 
L 1359 1041 
L 981 0 
L 0 0 
L 1784 4581 
L 2763 4581 
L 4597 0 
z
M 2894 1813 
L 2263 3513 
L 1644 1813 
L 2894 1813 
z
" transform="scale(0.015625)"/>
      <path id="Arial-BoldMT-54" d="M 1497 0 
L 1497 3806 
L 138 3806 
L 138 4581 
L 3778 4581 
L 3778 3806 
L 2422 3806 
L 2422 0 
L 1497 0 
z
" transform="scale(0.015625)"/>
     </defs>
     <use xlink:href="#Arial-BoldMT-44"/>
     <use xlink:href="#Arial-BoldMT-41" transform="translate(72.216797 0)"/>
     <use xlink:href="#Arial-BoldMT-54" transform="translate(137.058594 0)"/>
     <use xlink:href="#Arial-BoldMT-41" transform="translate(190.767578 0)"/>
    </g>
   </g>
   <g id="text_2">
    <!-- SELECTION -->
    <g style="fill: #7c3aed" transform="translate(278.28 139.68) scale(0.11 -0.11)">
     <defs>
      <path id="Arial-BoldMT-53" d="M 231 1491 
L 1131 1578 
Q 1213 1125 1461 912 
Q 1709 700 2131 700 
Q 2578 700 2804 889 
Q 3031 1078 3031 1331 
Q 3031 1494 2936 1608 
Q 2841 1722 2603 1806 
Q 2441 1863 1863 2006 
Q 1119 2191 819 2459 
Q 397 2838 397 3381 
Q 397 3731 595 4036 
Q 794 4341 1167 4500 
Q 1541 4659 2069 4659 
Q 2931 4659 3367 4281 
Q 3803 3903 3825 3272 
L 2900 3231 
Q 2841 3584 2645 3739 
Q 2450 3894 2059 3894 
Q 1656 3894 1428 3728 
Q 1281 3622 1281 3444 
Q 1281 3281 1419 3166 
Q 1594 3019 2269 2859 
Q 2944 2700 3267 2529 
Q 3591 2359 3773 2064 
Q 3956 1769 3956 1334 
Q 3956 941 3737 597 
Q 3519 253 3119 86 
Q 2719 -81 2122 -81 
Q 1253 -81 787 320 
Q 322 722 231 1491 
z
" transform="scale(0.015625)"/>
      <path id="Arial-BoldMT-45" d="M 466 0 
L 466 4581 
L 3863 4581 
L 3863 3806 
L 1391 3806 
L 1391 2791 
L 3691 2791 
L 3691 2019 
L 1391 2019 
L 1391 772 
L 3950 772 
L 3950 0 
L 466 0 
z
" transform="scale(0.015625)"/>
      <path id="Arial-BoldMT-4c" d="M 491 0 
L 491 4544 
L 1416 4544 
L 1416 772 
L 3716 772 
L 3716 0 
L 491 0 
z
" transform="scale(0.015625)"/>
      <path id="Arial-BoldMT-43" d="M 3397 1684 
L 4294 1400 
Q 4088 650 3608 286 
Q 3128 -78 2391 -78 
Q 1478 -78 890 545 
Q 303 1169 303 2250 
Q 303 3394 893 4026 
Q 1484 4659 2447 4659 
Q 3288 4659 3813 4163 
Q 4125 3869 4281 3319 
L 3366 3100 
Q 3284 3456 3026 3662 
Q 2769 3869 2400 3869 
Q 1891 3869 1573 3503 
Q 1256 3138 1256 2319 
Q 1256 1450 1568 1081 
Q 1881 713 2381 713 
Q 2750 713 3015 947 
Q 3281 1181 3397 1684 
z
" transform="scale(0.015625)"/>
      <path id="Arial-BoldMT-49" d="M 438 0 
L 438 4581 
L 1363 4581 
L 1363 0 
L 438 0 
z
" transform="scale(0.015625)"/>
      <path id="Arial-BoldMT-4f" d="M 278 2263 
Q 278 2963 488 3438 
Q 644 3788 914 4066 
Q 1184 4344 1506 4478 
Q 1934 4659 2494 4659 
Q 3506 4659 4114 4031 
Q 4722 3403 4722 2284 
Q 4722 1175 4119 548 
Q 3516 -78 2506 -78 
Q 1484 -78 881 545 
Q 278 1169 278 2263 
z
M 1231 2294 
Q 1231 1516 1590 1114 
Q 1950 713 2503 713 
Q 3056 713 3411 1111 
Q 3766 1509 3766 2306 
Q 3766 3094 3420 3481 
Q 3075 3869 2503 3869 
Q 1931 3869 1581 3476 
Q 1231 3084 1231 2294 
z
" transform="scale(0.015625)"/>
      <path id="Arial-BoldMT-4e" d="M 475 0 
L 475 4581 
L 1375 4581 
L 3250 1522 
L 3250 4581 
L 4109 4581 
L 4109 0 
L 3181 0 
L 1334 2988 
L 1334 0 
L 475 0 
z
" transform="scale(0.015625)"/>
     </defs>
     <use xlink:href="#Arial-BoldMT-53"/>
     <use xlink:href="#Arial-BoldMT-45" transform="translate(66.699219 0)"/>
     <use xlink:href="#Arial-BoldMT-4c" transform="translate(133.398438 0)"/>
     <use xlink:href="#Arial-BoldMT-45" transform="translate(194.482422 0)"/>
     <use xlink:href="#Arial-BoldMT-43" transform="translate(261.181641 0)"/>
     <use xlink:href="#Arial-BoldMT-54" transform="translate(333.398438 0)"/>
     <use xlink:href="#Arial-BoldMT-49" transform="translate(394.482422 0)"/>
     <use xlink:href="#Arial-BoldMT-4f" transform="translate(422.265625 0)"/>
     <use xlink:href="#Arial-BoldMT-4e" transform="translate(500.048828 0)"/>
    </g>
   </g>
   <g id="text_3">
    <!-- PREPROCESSING -->
    <g style="fill: #0e7490" transform="translate(500.04 139.68) scale(0.11 -0.11)">
     <defs>
      <path id="Arial-BoldMT-50" d="M 466 0 
L 466 4581 
L 1950 4581 
Q 2794 4581 3050 4513 
Q 3444 4409 3709 4064 
Q 3975 3719 3975 3172 
Q 3975 2750 3822 2462 
Q 3669 2175 3433 2011 
Q 3197 1847 2953 1794 
Q 2622 1728 1994 1728 
L 1391 1728 
L 1391 0 
L 466 0 
z
M 1391 3806 
L 1391 2506 
L 1897 2506 
Q 2444 2506 2628 2578 
Q 2813 2650 2917 2803 
Q 3022 2956 3022 3159 
Q 3022 3409 2875 3571 
Q 2728 3734 2503 3775 
Q 2338 3806 1838 3806 
L 1391 3806 
z
" transform="scale(0.015625)"/>
      <path id="Arial-BoldMT-52" d="M 469 0 
L 469 4581 
L 2416 4581 
Q 3150 4581 3483 4457 
Q 3816 4334 4016 4018 
Q 4216 3703 4216 3297 
Q 4216 2781 3912 2445 
Q 3609 2109 3006 2022 
Q 3306 1847 3501 1637 
Q 3697 1428 4028 894 
L 4588 0 
L 3481 0 
L 2813 997 
Q 2456 1531 2325 1670 
Q 2194 1809 2047 1861 
Q 1900 1913 1581 1913 
L 1394 1913 
L 1394 0 
L 469 0 
z
M 1394 2644 
L 2078 2644 
Q 2744 2644 2909 2700 
Q 3075 2756 3169 2893 
Q 3263 3031 3263 3238 
Q 3263 3469 3139 3611 
Q 3016 3753 2791 3791 
Q 2678 3806 2116 3806 
L 1394 3806 
L 1394 2644 
z
" transform="scale(0.015625)"/>
      <path id="Arial-BoldMT-47" d="M 2597 1684 
L 2597 2456 
L 4591 2456 
L 4591 631 
Q 4300 350 3748 136 
Q 3197 -78 2631 -78 
Q 1913 -78 1378 223 
Q 844 525 575 1086 
Q 306 1647 306 2306 
Q 306 3022 606 3578 
Q 906 4134 1484 4431 
Q 1925 4659 2581 4659 
Q 3434 4659 3914 4301 
Q 4394 3944 4531 3313 
L 3613 3141 
Q 3516 3478 3248 3673 
Q 2981 3869 2581 3869 
Q 1975 3869 1617 3484 
Q 1259 3100 1259 2344 
Q 1259 1528 1621 1120 
Q 1984 713 2572 713 
Q 2863 713 3155 827 
Q 3447 941 3656 1103 
L 3656 1684 
L 2597 1684 
z
" transform="scale(0.015625)"/>
     </defs>
     <use xlink:href="#Arial-BoldMT-50"/>
     <use xlink:href="#Arial-BoldMT-52" transform="translate(66.699219 0)"/>
     <use xlink:href="#Arial-BoldMT-45" transform="translate(138.916016 0)"/>
     <use xlink:href="#Arial-BoldMT-50" transform="translate(205.615234 0)"/>
     <use xlink:href="#Arial-BoldMT-52" transform="translate(272.314453 0)"/>
     <use xlink:href="#Arial-BoldMT-4f" transform="translate(344.53125 0)"/>
     <use xlink:href="#Arial-BoldMT-43" transform="translate(422.314453 0)"/>
     <use xlink:href="#Arial-BoldMT-45" transform="translate(494.53125 0)"/>
     <use xlink:href="#Arial-BoldMT-53" transform="translate(561.230469 0)"/>
     <use xlink:href="#Arial-BoldMT-53" transform="translate(627.929688 0)"/>
     <use xlink:href="#Arial-BoldMT-49" transform="translate(694.628906 0)"/>
     <use xlink:href="#Arial-BoldMT-4e" transform="translate(722.412109 0)"/>
     <use xlink:href="#Arial-BoldMT-47" transform="translate(794.628906 0)"/>
    </g>
   </g>
   <g id="text_4">
    <!-- NEURAL NETWORK -->
    <g style="fill: #d97706" transform="translate(915.84 139.68) scale(0.11 -0.11)">
     <defs>
      <path id="Arial-BoldMT-55" d="M 459 4581 
L 1384 4581 
L 1384 2100 
Q 1384 1509 1419 1334 
Q 1478 1053 1701 883 
Q 1925 713 2313 713 
Q 2706 713 2906 873 
Q 3106 1034 3147 1268 
Q 3188 1503 3188 2047 
L 3188 4581 
L 4113 4581 
L 4113 2175 
Q 4113 1350 4038 1009 
Q 3963 669 3761 434 
Q 3559 200 3221 61 
Q 2884 -78 2341 -78 
Q 1684 -78 1345 73 
Q 1006 225 809 467 
Q 613 709 550 975 
Q 459 1369 459 2138 
L 459 4581 
z
" transform="scale(0.015625)"/>
      <path id="Arial-BoldMT-20" transform="scale(0.015625)"/>
      <path id="Arial-BoldMT-57" d="M 1116 0 
L 22 4581 
L 969 4581 
L 1659 1434 
L 2497 4581 
L 3597 4581 
L 4400 1381 
L 5103 4581 
L 6034 4581 
L 4922 0 
L 3941 0 
L 3028 3425 
L 2119 0 
L 1116 0 
z
" transform="scale(0.015625)"/>
      <path id="Arial-BoldMT-4b" d="M 478 0 
L 478 4581 
L 1403 4581 
L 1403 2547 
L 3272 4581 
L 4516 4581 
L 2791 2797 
L 4609 0 
L 3413 0 
L 2153 2150 
L 1403 1384 
L 1403 0 
L 478 0 
z
" transform="scale(0.015625)"/>
     </defs>
     <use xlink:href="#Arial-BoldMT-4e"/>
     <use xlink:href="#Arial-BoldMT-45" transform="translate(72.216797 0)"/>
     <use xlink:href="#Arial-BoldMT-55" transform="translate(138.916016 0)"/>
     <use xlink:href="#Arial-BoldMT-52" transform="translate(211.132812 0)"/>
     <use xlink:href="#Arial-BoldMT-41" transform="translate(283.349609 0)"/>
     <use xlink:href="#Arial-BoldMT-4c" transform="translate(355.566406 0)"/>
     <use xlink:href="#Arial-BoldMT-20" transform="translate(414.900391 0)"/>
     <use xlink:href="#Arial-BoldMT-4e" transform="translate(442.683594 0)"/>
     <use xlink:href="#Arial-BoldMT-45" transform="translate(514.900391 0)"/>
     <use xlink:href="#Arial-BoldMT-54" transform="translate(581.599609 0)"/>
     <use xlink:href="#Arial-BoldMT-57" transform="translate(642.683594 0)"/>
     <use xlink:href="#Arial-BoldMT-4f" transform="translate(737.068359 0)"/>
     <use xlink:href="#Arial-BoldMT-52" transform="translate(814.851562 0)"/>
     <use xlink:href="#Arial-BoldMT-4b" transform="translate(887.068359 0)"/>
    </g>
   </g>
   <g id="patch_6">
    <path d="M 339.264 375.3 
L 450.144 375.3 
Q 458.46 375.3 458.46 366.984 
L 458.46 200.664 
Q 458.46 192.348 450.144 192.348 
L 339.264 192.348 
Q 330.948 192.348 330.948 200.664 
L 330.948 366.984 
Q 330.948 375.3 339.264 375.3 
z
" clip-path="url(#pd8aa4c1054)" style="fill: #94a3b8; opacity: 0.3"/>
   </g>
   <g id="patch_7">
    <path d="M 339.264 569.34 
L 450.144 569.34 
Q 458.46 569.34 458.46 561.024 
L 458.46 394.704 
Q 458.46 386.388 450.144 386.388 
L 339.264 386.388 
Q 330.948 386.388 330.948 394.704 
L 330.948 561.024 
Q 330.948 569.34 339.264 569.34 
z
" clip-path="url(#pd8aa4c1054)" style="fill: #94a3b8; opacity: 0.3"/>
   </g>
   <g id="patch_8">
    <path d="M 533.304 375.3 
L 588.744 375.3 
Q 597.06 375.3 597.06 366.984 
L 597.06 200.664 
Q 597.06 192.348 588.744 192.348 
L 533.304 192.348 
Q 524.988 192.348 524.988 200.664 
L 524.988 366.984 
Q 524.988 375.3 533.304 375.3 
z
" clip-path="url(#pd8aa4c1054)" style="fill: #94a3b8; opacity: 0.3"/>
   </g>
   <g id="patch_9">
    <path d="M 671.904 375.3 
L 727.344 375.3 
Q 735.66 375.3 735.66 366.984 
L 735.66 200.664 
Q 735.66 192.348 727.344 192.348 
L 671.904 192.348 
Q 663.588 192.348 663.588 200.664 
L 663.588 366.984 
Q 663.588 375.3 671.904 375.3 
z
" clip-path="url(#pd8aa4c1054)" style="fill: #94a3b8; opacity: 0.3"/>
   </g>
   <g id="patch_10">
    <path d="M 976.824 430.74 
L 1170.864 430.74 
Q 1179.18 430.74 1179.18 422.424 
L 1179.18 228.384 
Q 1179.18 220.068 1170.864 220.068 
L 976.824 220.068 
Q 968.508 220.068 968.508 228.384 
L 968.508 422.424 
Q 968.508 430.74 976.824 430.74 
z
" clip-path="url(#pd8aa4c1054)" style="fill: #94a3b8; opacity: 0.3"/>
   </g>
   <g id="ai_day">
    <path d="M 84.24 227.2752 
L 195.12 227.2752 
Q 199.5552 227.2752 199.5552 222.84 
L 199.5552 189.576 
Q 199.5552 185.1408 195.12 185.1408 
L 84.24 185.1408 
Q 79.8048 185.1408 79.8048 189.576 
L 79.8048 222.84 
Q 79.8048 227.2752 84.24 227.2752 
z
" clip-path="url(#pd8aa4c1054)" style="fill: #eff6ff; stroke: #2563eb; stroke-width: 1.5; stroke-linejoin: miter"/>
   </g>
   <g id="ai_ghi_fut_0">
    <path d="M 84.24 282.7152 
L 195.12 282.7152 
Q 199.5552 282.7152 199.5552 278.28 
L 199.5552 250.56 
Q 199.5552 246.1248 195.12 246.1248 
L 84.24 246.1248 
Q 79.8048 246.1248 79.8048 250.56 
L 79.8048 278.28 
Q 79.8048 282.7152 84.24 282.7152 
z
" clip-path="url(#pd8aa4c1054)" style="fill: #eff6ff; stroke: #2563eb; stroke-width: 1.5; stroke-linejoin: miter"/>
   </g>
   <g id="ai_ghi_fut_1">
    <path d="M 84.24 327.0672 
L 195.12 327.0672 
Q 199.5552 327.0672 199.5552 322.632 
L 199.5552 294.912 
Q 199.5552 290.4768 195.12 290.4768 
L 84.24 290.4768 
Q 79.8048 290.4768 79.8048 294.912 
L 79.8048 322.632 
Q 79.8048 327.0672 84.24 327.0672 
z
" clip-path="url(#pd8aa4c1054)" style="fill: #eff6ff; stroke: #2563eb; stroke-width: 1.5; stroke-linejoin: miter"/>
   </g>
   <g id="ai_ghi_fut_2">
    <path d="M 84.24 371.4192 
L 195.12 371.4192 
Q 199.5552 371.4192 199.5552 366.984 
L 199.5552 339.264 
Q 199.5552 334.8288 195.12 334.8288 
L 84.24 334.8288 
Q 79.8048 334.8288 79.8048 339.264 
L 79.8048 366.984 
Q 79.8048 371.4192 84.24 371.4192 
z
" clip-path="url(#pd8aa4c1054)" style="fill: #eff6ff; stroke: #2563eb; stroke-width: 1.5; stroke-linejoin: miter"/>
   </g>
   <g id="ai_hist_0">
    <path d="M 139.68 476.7552 
L 222.84 476.7552 
Q 227.2752 476.7552 227.2752 472.32 
L 227.2752 444.6 
Q 227.2752 440.1648 222.84 440.1648 
L 139.68 440.1648 
Q 135.2448 440.1648 135.2448 444.6 
L 135.2448 472.32 
Q 135.2448 476.7552 139.68 476.7552 
z
" clip-path="url(#pd8aa4c1054)" style="fill: #fef2f2; stroke: #dc2626; stroke-width: 1.5; stroke-linejoin: miter"/>
   </g>
   <g id="ai_hist_1">
    <path d="M 139.68 521.1072 
L 222.84 521.1072 
Q 227.2752 521.1072 227.2752 516.672 
L 227.2752 488.952 
Q 227.2752 484.5168 222.84 484.5168 
L 139.68 484.5168 
Q 135.2448 484.5168 135.2448 488.952 
L 135.2448 516.672 
Q 135.2448 521.1072 139.68 521.1072 
z
" clip-path="url(#pd8aa4c1054)" style="fill: #fef2f2; stroke: #dc2626; stroke-width: 1.5; stroke-linejoin: miter"/>
   </g>
   <g id="ai_hist_2">
    <path d="M 139.68 565.4592 
L 222.84 565.4592 
Q 227.2752 565.4592 227.2752 561.024 
L 227.2752 533.304 
Q 227.2752 528.8688 222.84 528.8688 
L 139.68 528.8688 
Q 135.2448 528.8688 135.2448 533.304 
L 135.2448 561.024 
Q 135.2448 565.4592 139.68 565.4592 
z
" clip-path="url(#pd8aa4c1054)" style="fill: #fef2f2; stroke: #dc2626; stroke-width: 1.5; stroke-linejoin: miter"/>
   </g>
   <g id="ai_mux1">
    <path d="M 333.72 369.756 
L 444.6 369.756 
Q 452.916 369.756 452.916 361.44 
L 452.916 195.12 
Q 452.916 186.804 444.6 186.804 
L 333.72 186.804 
Q 325.404 186.804 325.404 195.12 
L 325.404 361.44 
Q 325.404 369.756 333.72 369.756 
z
" clip-path="url(#pd8aa4c1054)" style="fill: #f5f3ff; stroke: #7c3aed; stroke-width: 2; stroke-linejoin: miter"/>
   </g>
   <g id="ai_mux2">
    <path d="M 333.72 563.796 
L 444.6 563.796 
Q 452.916 563.796 452.916 555.48 
L 452.916 389.16 
Q 452.916 380.844 444.6 380.844 
L 333.72 380.844 
Q 325.404 380.844 325.404 389.16 
L 325.404 555.48 
Q 325.404 563.796 333.72 563.796 
z
" clip-path="url(#pd8aa4c1054)" style="fill: #f5f3ff; stroke: #7c3aed; stroke-width: 2; stroke-linejoin: miter"/>
   </g>
   <g id="ai_demux">
    <path d="M 527.76 369.756 
L 583.2 369.756 
Q 591.516 369.756 591.516 361.44 
L 591.516 195.12 
Q 591.516 186.804 583.2 186.804 
L 527.76 186.804 
Q 519.444 186.804 519.444 195.12 
L 519.444 361.44 
Q 519.444 369.756 527.76 369.756 
z
" clip-path="url(#pd8aa4c1054)" style="fill: #f1f5f9; stroke: #64748b; stroke-width: 2; stroke-linejoin: miter"/>
   </g>
   <g id="ai_mux_41">
    <path d="M 666.36 369.756 
L 721.8 369.756 
Q 730.116 369.756 730.116 361.44 
L 730.116 195.12 
Q 730.116 186.804 721.8 186.804 
L 666.36 186.804 
Q 658.044 186.804 658.044 195.12 
L 658.044 361.44 
Q 658.044 369.756 666.36 369.756 
z
" clip-path="url(#pd8aa4c1054)" style="fill: #f1f5f9; stroke: #64748b; stroke-width: 2; stroke-linejoin: miter"/>
   </g>
   <g id="ai_transpose">
    <path d="M 777.24 299.3472 
L 860.4 299.3472 
Q 864.8352 299.3472 864.8352 294.912 
L 864.8352 261.648 
Q 864.8352 257.2128 860.4 257.2128 
L 777.24 257.2128 
Q 772.8048 257.2128 772.8048 261.648 
L 772.8048 294.912 
Q 772.8048 299.3472 777.24 299.3472 
z
" clip-path="url(#pd8aa4c1054)" style="fill: #ecfeff; stroke: #0e7490; stroke-width: 1.5; stroke-linejoin: miter"/>
   </g>
   <g id="ai_clock">
    <path d="M 832.68 439.056 
C 838.561144 439.056 844.202203 436.719397 848.3608 432.5608 
C 852.519397 428.402203 854.856 422.761144 854.856 416.88 
C 854.856 410.998856 852.519397 405.357797 848.3608 401.1992 
C 844.202203 397.040603 838.561144 394.704 832.68 394.704 
C 826.798856 394.704 821.157797 397.040603 816.9992 401.1992 
C 812.840603 405.357797 810.504 410.998856 810.504 416.88 
C 810.504 422.761144 812.840603 428.402203 816.9992 432.5608 
C 821.157797 436.719397 826.798856 439.056 832.68 439.056 
z
" clip-path="url(#pd8aa4c1054)" style="fill: #ffffff; stroke: #475569; stroke-width: 2; stroke-linejoin: miter"/>
   </g>
   <g id="ai_nn">
    <path d="M 971.28 425.196 
L 1165.32 425.196 
Q 1173.636 425.196 1173.636 416.88 
L 1173.636 222.84 
Q 1173.636 214.524 1165.32 214.524 
L 971.28 214.524 
Q 962.964 214.524 962.964 222.84 
L 962.964 416.88 
Q 962.964 425.196 971.28 425.196 
z
" clip-path="url(#pd8aa4c1054)" style="fill: #fde68a; stroke: #d97706; stroke-width: 2; stroke-linejoin: miter"/>
   </g>
   <g id="ai_out_ghi">
    <path d="M 1248.48 282.7152 
L 1348.272 282.7152 
Q 1352.7072 282.7152 1352.7072 278.28 
L 1352.7072 245.016 
Q 1352.7072 240.5808 1348.272 240.5808 
L 1248.48 240.5808 
Q 1244.0448 240.5808 1244.0448 245.016 
L 1244.0448 278.28 
Q 1244.0448 282.7152 1248.48 282.7152 
z
" clip-path="url(#pd8aa4c1054)" style="fill: #d1fae5; stroke: #10b981; stroke-width: 1.5; stroke-linejoin: miter"/>
   </g>
   <g id="ai_out_v">
    <path d="M 1248.48 365.8752 
L 1348.272 365.8752 
Q 1352.7072 365.8752 1352.7072 361.44 
L 1352.7072 328.176 
Q 1352.7072 323.7408 1348.272 323.7408 
L 1248.48 323.7408 
Q 1244.0448 323.7408 1244.0448 328.176 
L 1244.0448 361.44 
Q 1244.0448 365.8752 1248.48 365.8752 
z
" clip-path="url(#pd8aa4c1054)" style="fill: #d1fae5; stroke: #10b981; stroke-width: 1.5; stroke-linejoin: miter"/>
   </g>
   <g id="text_5">
    <!-- AI Block  —  Neural Network GHI Prediction Subsystem -->
    <g style="fill: #d97706" transform="translate(404.967344 84.24) scale(0.22 -0.22)">
     <defs>
      <path id="Arial-BoldMT-42" d="M 469 4581 
L 2300 4581 
Q 2844 4581 3111 4536 
Q 3378 4491 3589 4347 
Q 3800 4203 3940 3964 
Q 4081 3725 4081 3428 
Q 4081 3106 3907 2837 
Q 3734 2569 3438 2434 
Q 3856 2313 4081 2019 
Q 4306 1725 4306 1328 
Q 4306 1016 4161 720 
Q 4016 425 3764 248 
Q 3513 72 3144 31 
Q 2913 6 2028 0 
L 469 0 
L 469 4581 
z
M 1394 3819 
L 1394 2759 
L 2000 2759 
Q 2541 2759 2672 2775 
Q 2909 2803 3045 2939 
Q 3181 3075 3181 3297 
Q 3181 3509 3064 3642 
Q 2947 3775 2716 3803 
Q 2578 3819 1925 3819 
L 1394 3819 
z
M 1394 1997 
L 1394 772 
L 2250 772 
Q 2750 772 2884 800 
Q 3091 838 3220 983 
Q 3350 1128 3350 1372 
Q 3350 1578 3250 1722 
Q 3150 1866 2961 1931 
Q 2772 1997 2141 1997 
L 1394 1997 
z
" transform="scale(0.015625)"/>
      <path id="Arial-BoldMT-6c" d="M 459 0 
L 459 4581 
L 1338 4581 
L 1338 0 
L 459 0 
z
" transform="scale(0.015625)"/>
      <path id="Arial-BoldMT-6f" d="M 256 1706 
Q 256 2144 472 2553 
Q 688 2963 1083 3178 
Q 1478 3394 1966 3394 
Q 2719 3394 3200 2905 
Q 3681 2416 3681 1669 
Q 3681 916 3195 420 
Q 2709 -75 1972 -75 
Q 1516 -75 1102 131 
Q 688 338 472 736 
Q 256 1134 256 1706 
z
M 1156 1659 
Q 1156 1166 1390 903 
Q 1625 641 1969 641 
Q 2313 641 2545 903 
Q 2778 1166 2778 1666 
Q 2778 2153 2545 2415 
Q 2313 2678 1969 2678 
Q 1625 2678 1390 2415 
Q 1156 2153 1156 1659 
z
" transform="scale(0.015625)"/>
      <path id="Arial-BoldMT-63" d="M 3353 2338 
L 2488 2181 
Q 2444 2441 2289 2572 
Q 2134 2703 1888 2703 
Q 1559 2703 1364 2476 
Q 1169 2250 1169 1719 
Q 1169 1128 1367 884 
Q 1566 641 1900 641 
Q 2150 641 2309 783 
Q 2469 925 2534 1272 
L 3397 1125 
Q 3263 531 2881 228 
Q 2500 -75 1859 -75 
Q 1131 -75 698 384 
Q 266 844 266 1656 
Q 266 2478 700 2936 
Q 1134 3394 1875 3394 
Q 2481 3394 2839 3133 
Q 3197 2872 3353 2338 
z
" transform="scale(0.015625)"/>
      <path id="Arial-BoldMT-6b" d="M 428 0 
L 428 4581 
L 1306 4581 
L 1306 2150 
L 2334 3319 
L 3416 3319 
L 2281 2106 
L 3497 0 
L 2550 0 
L 1716 1491 
L 1306 1063 
L 1306 0 
L 428 0 
z
" transform="scale(0.015625)"/>
      <path id="Arial-BoldMT-2014" d="M 0 1331 
L 0 1988 
L 6400 1988 
L 6400 1331 
L 0 1331 
z
" transform="scale(0.015625)"/>
      <path id="Arial-BoldMT-65" d="M 2381 1056 
L 3256 909 
Q 3088 428 2723 176 
Q 2359 -75 1813 -75 
Q 947 -75 531 491 
Q 203 944 203 1634 
Q 203 2459 634 2926 
Q 1066 3394 1725 3394 
Q 2466 3394 2894 2905 
Q 3322 2416 3303 1406 
L 1103 1406 
Q 1113 1016 1316 798 
Q 1519 581 1822 581 
Q 2028 581 2168 693 
Q 2309 806 2381 1056 
z
M 2431 1944 
Q 2422 2325 2234 2523 
Q 2047 2722 1778 2722 
Q 1491 2722 1303 2513 
Q 1116 2303 1119 1944 
L 2431 1944 
z
" transform="scale(0.015625)"/>
      <path id="Arial-BoldMT-75" d="M 2644 0 
L 2644 497 
Q 2463 231 2167 78 
Q 1872 -75 1544 -75 
Q 1209 -75 943 72 
Q 678 219 559 484 
Q 441 750 441 1219 
L 441 3319 
L 1319 3319 
L 1319 1794 
Q 1319 1094 1367 936 
Q 1416 778 1544 686 
Q 1672 594 1869 594 
Q 2094 594 2272 717 
Q 2450 841 2515 1023 
Q 2581 1206 2581 1919 
L 2581 3319 
L 3459 3319 
L 3459 0 
L 2644 0 
z
" transform="scale(0.015625)"/>
      <path id="Arial-BoldMT-72" d="M 1300 0 
L 422 0 
L 422 3319 
L 1238 3319 
L 1238 2847 
Q 1447 3181 1614 3287 
Q 1781 3394 1994 3394 
Q 2294 3394 2572 3228 
L 2300 2463 
Q 2078 2606 1888 2606 
Q 1703 2606 1575 2504 
Q 1447 2403 1373 2137 
Q 1300 1872 1300 1025 
L 1300 0 
z
" transform="scale(0.015625)"/>
      <path id="Arial-BoldMT-61" d="M 1116 2306 
L 319 2450 
Q 453 2931 781 3162 
Q 1109 3394 1756 3394 
Q 2344 3394 2631 3255 
Q 2919 3116 3036 2902 
Q 3153 2688 3153 2116 
L 3144 1091 
Q 3144 653 3186 445 
Q 3228 238 3344 0 
L 2475 0 
Q 2441 88 2391 259 
Q 2369 338 2359 363 
Q 2134 144 1878 34 
Q 1622 -75 1331 -75 
Q 819 -75 523 203 
Q 228 481 228 906 
Q 228 1188 362 1408 
Q 497 1628 739 1745 
Q 981 1863 1438 1950 
Q 2053 2066 2291 2166 
L 2291 2253 
Q 2291 2506 2166 2614 
Q 2041 2722 1694 2722 
Q 1459 2722 1328 2630 
Q 1197 2538 1116 2306 
z
M 2291 1594 
Q 2122 1538 1756 1459 
Q 1391 1381 1278 1306 
Q 1106 1184 1106 997 
Q 1106 813 1243 678 
Q 1381 544 1594 544 
Q 1831 544 2047 700 
Q 2206 819 2256 991 
Q 2291 1103 2291 1419 
L 2291 1594 
z
" transform="scale(0.015625)"/>
      <path id="Arial-BoldMT-74" d="M 1981 3319 
L 1981 2619 
L 1381 2619 
L 1381 1281 
Q 1381 875 1398 808 
Q 1416 741 1477 697 
Q 1538 653 1625 653 
Q 1747 653 1978 738 
L 2053 56 
Q 1747 -75 1359 -75 
Q 1122 -75 931 4 
Q 741 84 652 211 
Q 563 338 528 553 
Q 500 706 500 1172 
L 500 2619 
L 97 2619 
L 97 3319 
L 500 3319 
L 500 3978 
L 1381 4491 
L 1381 3319 
L 1981 3319 
z
" transform="scale(0.015625)"/>
      <path id="Arial-BoldMT-77" d="M 1078 0 
L 28 3319 
L 881 3319 
L 1503 1144 
L 2075 3319 
L 2922 3319 
L 3475 1144 
L 4109 3319 
L 4975 3319 
L 3909 0 
L 3066 0 
L 2494 2134 
L 1931 0 
L 1078 0 
z
" transform="scale(0.015625)"/>
      <path id="Arial-BoldMT-48" d="M 469 0 
L 469 4581 
L 1394 4581 
L 1394 2778 
L 3206 2778 
L 3206 4581 
L 4131 4581 
L 4131 0 
L 3206 0 
L 3206 2003 
L 1394 2003 
L 1394 0 
L 469 0 
z
" transform="scale(0.015625)"/>
      <path id="Arial-BoldMT-64" d="M 3503 0 
L 2688 0 
L 2688 488 
Q 2484 203 2207 64 
Q 1931 -75 1650 -75 
Q 1078 -75 670 386 
Q 263 847 263 1672 
Q 263 2516 659 2955 
Q 1056 3394 1663 3394 
Q 2219 3394 2625 2931 
L 2625 4581 
L 3503 4581 
L 3503 0 
z
M 1159 1731 
Q 1159 1200 1306 963 
Q 1519 619 1900 619 
Q 2203 619 2415 876 
Q 2628 1134 2628 1647 
Q 2628 2219 2422 2470 
Q 2216 2722 1894 2722 
Q 1581 2722 1370 2473 
Q 1159 2225 1159 1731 
z
" transform="scale(0.015625)"/>
      <path id="Arial-BoldMT-69" d="M 459 3769 
L 459 4581 
L 1338 4581 
L 1338 3769 
L 459 3769 
z
M 459 0 
L 459 3319 
L 1338 3319 
L 1338 0 
L 459 0 
z
" transform="scale(0.015625)"/>
      <path id="Arial-BoldMT-6e" d="M 3478 0 
L 2600 0 
L 2600 1694 
Q 2600 2231 2544 2389 
Q 2488 2547 2361 2634 
Q 2234 2722 2056 2722 
Q 1828 2722 1647 2597 
Q 1466 2472 1398 2265 
Q 1331 2059 1331 1503 
L 1331 0 
L 453 0 
L 453 3319 
L 1269 3319 
L 1269 2831 
Q 1703 3394 2363 3394 
Q 2653 3394 2893 3289 
Q 3134 3184 3257 3021 
Q 3381 2859 3429 2653 
Q 3478 2447 3478 2063 
L 3478 0 
z
" transform="scale(0.015625)"/>
      <path id="Arial-BoldMT-62" d="M 422 0 
L 422 4581 
L 1300 4581 
L 1300 2931 
Q 1706 3394 2263 3394 
Q 2869 3394 3266 2955 
Q 3663 2516 3663 1694 
Q 3663 844 3258 384 
Q 2853 -75 2275 -75 
Q 1991 -75 1714 67 
Q 1438 209 1238 488 
L 1238 0 
L 422 0 
z
M 1294 1731 
Q 1294 1216 1456 969 
Q 1684 619 2063 619 
Q 2353 619 2558 867 
Q 2763 1116 2763 1650 
Q 2763 2219 2556 2470 
Q 2350 2722 2028 2722 
Q 1713 2722 1503 2476 
Q 1294 2231 1294 1731 
z
" transform="scale(0.015625)"/>
      <path id="Arial-BoldMT-73" d="M 150 947 
L 1031 1081 
Q 1088 825 1259 692 
Q 1431 559 1741 559 
Q 2081 559 2253 684 
Q 2369 772 2369 919 
Q 2369 1019 2306 1084 
Q 2241 1147 2013 1200 
Q 950 1434 666 1628 
Q 272 1897 272 2375 
Q 272 2806 612 3100 
Q 953 3394 1669 3394 
Q 2350 3394 2681 3172 
Q 3013 2950 3138 2516 
L 2309 2363 
Q 2256 2556 2107 2659 
Q 1959 2763 1684 2763 
Q 1338 2763 1188 2666 
Q 1088 2597 1088 2488 
Q 1088 2394 1175 2328 
Q 1294 2241 1995 2081 
Q 2697 1922 2975 1691 
Q 3250 1456 3250 1038 
Q 3250 581 2869 253 
Q 2488 -75 1741 -75 
Q 1063 -75 667 200 
Q 272 475 150 947 
z
" transform="scale(0.015625)"/>
      <path id="Arial-BoldMT-79" d="M 44 3319 
L 978 3319 
L 1772 963 
L 2547 3319 
L 3456 3319 
L 2284 125 
L 2075 -453 
Q 1959 -744 1854 -897 
Q 1750 -1050 1614 -1145 
Q 1478 -1241 1279 -1294 
Q 1081 -1347 831 -1347 
Q 578 -1347 334 -1294 
L 256 -606 
Q 463 -647 628 -647 
Q 934 -647 1081 -467 
Q 1228 -288 1306 -9 
L 44 3319 
z
" transform="scale(0.015625)"/>
      <path id="Arial-BoldMT-6d" d="M 394 3319 
L 1203 3319 
L 1203 2866 
Q 1638 3394 2238 3394 
Q 2556 3394 2790 3262 
Q 3025 3131 3175 2866 
Q 3394 3131 3647 3262 
Q 3900 3394 4188 3394 
Q 4553 3394 4806 3245 
Q 5059 3097 5184 2809 
Q 5275 2597 5275 2122 
L 5275 0 
L 4397 0 
L 4397 1897 
Q 4397 2391 4306 2534 
Q 4184 2722 3931 2722 
Q 3747 2722 3584 2609 
Q 3422 2497 3350 2280 
Q 3278 2063 3278 1594 
L 3278 0 
L 2400 0 
L 2400 1819 
Q 2400 2303 2353 2443 
Q 2306 2584 2207 2653 
Q 2109 2722 1941 2722 
Q 1738 2722 1575 2612 
Q 1413 2503 1342 2297 
Q 1272 2091 1272 1613 
L 1272 0 
L 394 0 
L 394 3319 
z
" transform="scale(0.015625)"/>
     </defs>
     <use xlink:href="#Arial-BoldMT-41"/>
     <use xlink:href="#Arial-BoldMT-49" transform="translate(72.216797 0)"/>
     <use xlink:href="#Arial-BoldMT-20" transform="translate(100 0)"/>
     <use xlink:href="#Arial-BoldMT-42" transform="translate(127.783203 0)"/>
     <use xlink:href="#Arial-BoldMT-6c" transform="translate(200 0)"/>
     <use xlink:href="#Arial-BoldMT-6f" transform="translate(227.783203 0)"/>
     <use xlink:href="#Arial-BoldMT-63" transform="translate(288.867188 0)"/>
     <use xlink:href="#Arial-BoldMT-6b" transform="translate(344.482422 0)"/>
     <use xlink:href="#Arial-BoldMT-20" transform="translate(400.097656 0)"/>
     <use xlink:href="#Arial-BoldMT-20" transform="translate(427.880859 0)"/>
     <use xlink:href="#Arial-BoldMT-2014" transform="translate(455.664062 0)"/>
     <use xlink:href="#Arial-BoldMT-20" transform="translate(555.664062 0)"/>
     <use xlink:href="#Arial-BoldMT-20" transform="translate(583.447266 0)"/>
     <use xlink:href="#Arial-BoldMT-4e" transform="translate(611.230469 0)"/>
     <use xlink:href="#Arial-BoldMT-65" transform="translate(683.447266 0)"/>
     <use xlink:href="#Arial-BoldMT-75" transform="translate(739.0625 0)"/>
     <use xlink:href="#Arial-BoldMT-72" transform="translate(800.146484 0)"/>
     <use xlink:href="#Arial-BoldMT-61" transform="translate(839.0625 0)"/>
     <use xlink:href="#Arial-BoldMT-6c" transform="translate(894.677734 0)"/>
     <use xlink:href="#Arial-BoldMT-20" transform="translate(922.460938 0)"/>
     <use xlink:href="#Arial-BoldMT-4e" transform="translate(950.244141 0)"/>
     <use xlink:href="#Arial-BoldMT-65" transform="translate(1022.460938 0)"/>
     <use xlink:href="#Arial-BoldMT-74" transform="translate(1078.076172 0)"/>
     <use xlink:href="#Arial-BoldMT-77" transform="translate(1111.376953 0)"/>
     <use xlink:href="#Arial-BoldMT-6f" transform="translate(1189.160156 0)"/>
     <use xlink:href="#Arial-BoldMT-72" transform="translate(1250.244141 0)"/>
     <use xlink:href="#Arial-BoldMT-6b" transform="translate(1289.160156 0)"/>
     <use xlink:href="#Arial-BoldMT-20" transform="translate(1344.775391 0)"/>
     <use xlink:href="#Arial-BoldMT-47" transform="translate(1372.558594 0)"/>
     <use xlink:href="#Arial-BoldMT-48" transform="translate(1450.341797 0)"/>
     <use xlink:href="#Arial-BoldMT-49" transform="translate(1522.558594 0)"/>
     <use xlink:href="#Arial-BoldMT-20" transform="translate(1550.341797 0)"/>
     <use xlink:href="#Arial-BoldMT-50" transform="translate(1578.125 0)"/>
     <use xlink:href="#Arial-BoldMT-72" transform="translate(1644.824219 0)"/>
     <use xlink:href="#Arial-BoldMT-65" transform="translate(1683.740234 0)"/>
     <use xlink:href="#Arial-BoldMT-64" transform="translate(1739.355469 0)"/>
     <use xlink:href="#Arial-BoldMT-69" transform="translate(1800.439453 0)"/>
     <use xlink:href="#Arial-BoldMT-63" transform="translate(1828.222656 0)"/>
     <use xlink:href="#Arial-BoldMT-74" transform="translate(1883.837891 0)"/>
     <use xlink:href="#Arial-BoldMT-69" transform="translate(1917.138672 0)"/>
     <use xlink:href="#Arial-BoldMT-6f" transform="translate(1944.921875 0)"/>
     <use xlink:href="#Arial-BoldMT-6e" transform="translate(2006.005859 0)"/>
     <use xlink:href="#Arial-BoldMT-20" transform="translate(2067.089844 0)"/>
     <use xlink:href="#Arial-BoldMT-53" transform="translate(2094.873047 0)"/>
     <use xlink:href="#Arial-BoldMT-75" transform="translate(2161.572266 0)"/>
     <use xlink:href="#Arial-BoldMT-62" transform="translate(2222.65625 0)"/>
     <use xlink:href="#Arial-BoldMT-73" transform="translate(2283.740234 0)"/>
     <use xlink:href="#Arial-BoldMT-79" transform="translate(2339.355469 0)"/>
     <use xlink:href="#Arial-BoldMT-73" transform="translate(2394.970703 0)"/>
     <use xlink:href="#Arial-BoldMT-74" transform="translate(2450.585938 0)"/>
     <use xlink:href="#Arial-BoldMT-65" transform="translate(2483.886719 0)"/>
     <use xlink:href="#Arial-BoldMT-6d" transform="translate(2539.501953 0)"/>
    </g>
   </g>
   <g id="text_6">
    <!-- Inputs: Day Selector  |  Outputs: $\mathrm{GHI}_W$, $\vec{V}_{\mathrm{fut}}$ -->
    <g style="fill: #475569" transform="translate(580.92 123.048) scale(0.12 -0.12)">
     <defs>
      <path id="ArialMT-49" d="M 597 0 
L 597 4581 
L 1203 4581 
L 1203 0 
L 597 0 
z
" transform="scale(0.015625)"/>
      <path id="ArialMT-6e" d="M 422 0 
L 422 3319 
L 928 3319 
L 928 2847 
Q 1294 3394 1984 3394 
Q 2284 3394 2536 3286 
Q 2788 3178 2913 3003 
Q 3038 2828 3088 2588 
Q 3119 2431 3119 2041 
L 3119 0 
L 2556 0 
L 2556 2019 
Q 2556 2363 2490 2533 
Q 2425 2703 2258 2804 
Q 2091 2906 1866 2906 
Q 1506 2906 1245 2678 
Q 984 2450 984 1813 
L 984 0 
L 422 0 
z
" transform="scale(0.015625)"/>
      <path id="ArialMT-70" d="M 422 -1272 
L 422 3319 
L 934 3319 
L 934 2888 
Q 1116 3141 1344 3267 
Q 1572 3394 1897 3394 
Q 2322 3394 2647 3175 
Q 2972 2956 3137 2557 
Q 3303 2159 3303 1684 
Q 3303 1175 3120 767 
Q 2938 359 2589 142 
Q 2241 -75 1856 -75 
Q 1575 -75 1351 44 
Q 1128 163 984 344 
L 984 -1272 
L 422 -1272 
z
M 931 1641 
Q 931 1000 1190 694 
Q 1450 388 1819 388 
Q 2194 388 2461 705 
Q 2728 1022 2728 1688 
Q 2728 2322 2467 2637 
Q 2206 2953 1844 2953 
Q 1484 2953 1207 2617 
Q 931 2281 931 1641 
z
" transform="scale(0.015625)"/>
      <path id="ArialMT-75" d="M 2597 0 
L 2597 488 
Q 2209 -75 1544 -75 
Q 1250 -75 995 37 
Q 741 150 617 320 
Q 494 491 444 738 
Q 409 903 409 1263 
L 409 3319 
L 972 3319 
L 972 1478 
Q 972 1038 1006 884 
Q 1059 663 1231 536 
Q 1403 409 1656 409 
Q 1909 409 2131 539 
Q 2353 669 2445 892 
Q 2538 1116 2538 1541 
L 2538 3319 
L 3100 3319 
L 3100 0 
L 2597 0 
z
" transform="scale(0.015625)"/>
      <path id="ArialMT-74" d="M 1650 503 
L 1731 6 
Q 1494 -44 1306 -44 
Q 1000 -44 831 53 
Q 663 150 594 308 
Q 525 466 525 972 
L 525 2881 
L 113 2881 
L 113 3319 
L 525 3319 
L 525 4141 
L 1084 4478 
L 1084 3319 
L 1650 3319 
L 1650 2881 
L 1084 2881 
L 1084 941 
Q 1084 700 1114 631 
Q 1144 563 1211 522 
Q 1278 481 1403 481 
Q 1497 481 1650 503 
z
" transform="scale(0.015625)"/>
      <path id="ArialMT-73" d="M 197 991 
L 753 1078 
Q 800 744 1014 566 
Q 1228 388 1613 388 
Q 2000 388 2187 545 
Q 2375 703 2375 916 
Q 2375 1106 2209 1216 
Q 2094 1291 1634 1406 
Q 1016 1563 777 1677 
Q 538 1791 414 1992 
Q 291 2194 291 2438 
Q 291 2659 392 2848 
Q 494 3038 669 3163 
Q 800 3259 1026 3326 
Q 1253 3394 1513 3394 
Q 1903 3394 2198 3281 
Q 2494 3169 2634 2976 
Q 2775 2784 2828 2463 
L 2278 2388 
Q 2241 2644 2061 2787 
Q 1881 2931 1553 2931 
Q 1166 2931 1000 2803 
Q 834 2675 834 2503 
Q 834 2394 903 2306 
Q 972 2216 1119 2156 
Q 1203 2125 1616 2013 
Q 2213 1853 2448 1751 
Q 2684 1650 2818 1456 
Q 2953 1263 2953 975 
Q 2953 694 2789 445 
Q 2625 197 2315 61 
Q 2006 -75 1616 -75 
Q 969 -75 630 194 
Q 291 463 197 991 
z
" transform="scale(0.015625)"/>
      <path id="ArialMT-3a" d="M 578 2678 
L 578 3319 
L 1219 3319 
L 1219 2678 
L 578 2678 
z
M 578 0 
L 578 641 
L 1219 641 
L 1219 0 
L 578 0 
z
" transform="scale(0.015625)"/>
      <path id="ArialMT-20" transform="scale(0.015625)"/>
      <path id="ArialMT-44" d="M 494 0 
L 494 4581 
L 2072 4581 
Q 2606 4581 2888 4516 
Q 3281 4425 3559 4188 
Q 3922 3881 4101 3404 
Q 4281 2928 4281 2316 
Q 4281 1794 4159 1391 
Q 4038 988 3847 723 
Q 3656 459 3429 307 
Q 3203 156 2883 78 
Q 2563 0 2147 0 
L 494 0 
z
M 1100 541 
L 2078 541 
Q 2531 541 2789 625 
Q 3047 709 3200 863 
Q 3416 1078 3536 1442 
Q 3656 1806 3656 2325 
Q 3656 3044 3420 3430 
Q 3184 3816 2847 3947 
Q 2603 4041 2063 4041 
L 1100 4041 
L 1100 541 
z
" transform="scale(0.015625)"/>
      <path id="ArialMT-61" d="M 2588 409 
Q 2275 144 1986 34 
Q 1697 -75 1366 -75 
Q 819 -75 525 192 
Q 231 459 231 875 
Q 231 1119 342 1320 
Q 453 1522 633 1644 
Q 813 1766 1038 1828 
Q 1203 1872 1538 1913 
Q 2219 1994 2541 2106 
Q 2544 2222 2544 2253 
Q 2544 2597 2384 2738 
Q 2169 2928 1744 2928 
Q 1347 2928 1158 2789 
Q 969 2650 878 2297 
L 328 2372 
Q 403 2725 575 2942 
Q 747 3159 1072 3276 
Q 1397 3394 1825 3394 
Q 2250 3394 2515 3294 
Q 2781 3194 2906 3042 
Q 3031 2891 3081 2659 
Q 3109 2516 3109 2141 
L 3109 1391 
Q 3109 606 3145 398 
Q 3181 191 3288 0 
L 2700 0 
Q 2613 175 2588 409 
z
M 2541 1666 
Q 2234 1541 1622 1453 
Q 1275 1403 1131 1340 
Q 988 1278 909 1158 
Q 831 1038 831 891 
Q 831 666 1001 516 
Q 1172 366 1500 366 
Q 1825 366 2078 508 
Q 2331 650 2450 897 
Q 2541 1088 2541 1459 
L 2541 1666 
z
" transform="scale(0.015625)"/>
      <path id="ArialMT-79" d="M 397 -1278 
L 334 -750 
Q 519 -800 656 -800 
Q 844 -800 956 -737 
Q 1069 -675 1141 -563 
Q 1194 -478 1313 -144 
Q 1328 -97 1363 -6 
L 103 3319 
L 709 3319 
L 1400 1397 
Q 1534 1031 1641 628 
Q 1738 1016 1872 1384 
L 2581 3319 
L 3144 3319 
L 1881 -56 
Q 1678 -603 1566 -809 
Q 1416 -1088 1222 -1217 
Q 1028 -1347 759 -1347 
Q 597 -1347 397 -1278 
z
" transform="scale(0.015625)"/>
      <path id="ArialMT-53" d="M 288 1472 
L 859 1522 
Q 900 1178 1048 958 
Q 1197 738 1509 602 
Q 1822 466 2213 466 
Q 2559 466 2825 569 
Q 3091 672 3220 851 
Q 3350 1031 3350 1244 
Q 3350 1459 3225 1620 
Q 3100 1781 2813 1891 
Q 2628 1963 1997 2114 
Q 1366 2266 1113 2400 
Q 784 2572 623 2826 
Q 463 3081 463 3397 
Q 463 3744 659 4045 
Q 856 4347 1234 4503 
Q 1613 4659 2075 4659 
Q 2584 4659 2973 4495 
Q 3363 4331 3572 4012 
Q 3781 3694 3797 3291 
L 3216 3247 
Q 3169 3681 2898 3903 
Q 2628 4125 2100 4125 
Q 1550 4125 1298 3923 
Q 1047 3722 1047 3438 
Q 1047 3191 1225 3031 
Q 1400 2872 2139 2705 
Q 2878 2538 3153 2413 
Q 3553 2228 3743 1945 
Q 3934 1663 3934 1294 
Q 3934 928 3725 604 
Q 3516 281 3123 101 
Q 2731 -78 2241 -78 
Q 1619 -78 1198 103 
Q 778 284 539 648 
Q 300 1013 288 1472 
z
" transform="scale(0.015625)"/>
      <path id="ArialMT-65" d="M 2694 1069 
L 3275 997 
Q 3138 488 2766 206 
Q 2394 -75 1816 -75 
Q 1088 -75 661 373 
Q 234 822 234 1631 
Q 234 2469 665 2931 
Q 1097 3394 1784 3394 
Q 2450 3394 2872 2941 
Q 3294 2488 3294 1666 
Q 3294 1616 3291 1516 
L 816 1516 
Q 847 969 1125 678 
Q 1403 388 1819 388 
Q 2128 388 2347 550 
Q 2566 713 2694 1069 
z
M 847 1978 
L 2700 1978 
Q 2663 2397 2488 2606 
Q 2219 2931 1791 2931 
Q 1403 2931 1139 2672 
Q 875 2413 847 1978 
z
" transform="scale(0.015625)"/>
      <path id="ArialMT-6c" d="M 409 0 
L 409 4581 
L 972 4581 
L 972 0 
L 409 0 
z
" transform="scale(0.015625)"/>
      <path id="ArialMT-63" d="M 2588 1216 
L 3141 1144 
Q 3050 572 2676 248 
Q 2303 -75 1759 -75 
Q 1078 -75 664 370 
Q 250 816 250 1647 
Q 250 2184 428 2587 
Q 606 2991 970 3192 
Q 1334 3394 1763 3394 
Q 2303 3394 2647 3120 
Q 2991 2847 3088 2344 
L 2541 2259 
Q 2463 2594 2264 2762 
Q 2066 2931 1784 2931 
Q 1359 2931 1093 2626 
Q 828 2322 828 1663 
Q 828 994 1084 691 
Q 1341 388 1753 388 
Q 2084 388 2306 591 
Q 2528 794 2588 1216 
z
" transform="scale(0.015625)"/>
      <path id="ArialMT-6f" d="M 213 1659 
Q 213 2581 725 3025 
Q 1153 3394 1769 3394 
Q 2453 3394 2887 2945 
Q 3322 2497 3322 1706 
Q 3322 1066 3130 698 
Q 2938 331 2570 128 
Q 2203 -75 1769 -75 
Q 1072 -75 642 372 
Q 213 819 213 1659 
z
M 791 1659 
Q 791 1022 1069 705 
Q 1347 388 1769 388 
Q 2188 388 2466 706 
Q 2744 1025 2744 1678 
Q 2744 2294 2464 2611 
Q 2184 2928 1769 2928 
Q 1347 2928 1069 2612 
Q 791 2297 791 1659 
z
" transform="scale(0.015625)"/>
      <path id="ArialMT-72" d="M 416 0 
L 416 3319 
L 922 3319 
L 922 2816 
Q 1116 3169 1280 3281 
Q 1444 3394 1641 3394 
Q 1925 3394 2219 3213 
L 2025 2691 
Q 1819 2813 1613 2813 
Q 1428 2813 1281 2702 
Q 1134 2591 1072 2394 
Q 978 2094 978 1738 
L 978 0 
L 416 0 
z
" transform="scale(0.015625)"/>
      <path id="ArialMT-7c" d="M 588 -1347 
L 588 4659 
L 1078 4659 
L 1078 -1347 
L 588 -1347 
z
" transform="scale(0.015625)"/>
      <path id="ArialMT-4f" d="M 309 2231 
Q 309 3372 921 4017 
Q 1534 4663 2503 4663 
Q 3138 4663 3647 4359 
Q 4156 4056 4423 3514 
Q 4691 2972 4691 2284 
Q 4691 1588 4409 1038 
Q 4128 488 3612 205 
Q 3097 -78 2500 -78 
Q 1853 -78 1343 234 
Q 834 547 571 1087 
Q 309 1628 309 2231 
z
M 934 2222 
Q 934 1394 1379 917 
Q 1825 441 2497 441 
Q 3181 441 3623 922 
Q 4066 1403 4066 2288 
Q 4066 2847 3877 3264 
Q 3688 3681 3323 3911 
Q 2959 4141 2506 4141 
Q 1863 4141 1398 3698 
Q 934 3256 934 2222 
z
" transform="scale(0.015625)"/>
      <path id="STIXGeneral-Regular-47" d="M 4538 2266 
L 4538 2150 
Q 4256 2125 4173 2035 
Q 4090 1946 4090 1638 
L 4090 358 
Q 3539 -90 2464 -90 
Q 1965 -90 1507 89 
Q 1050 269 736 595 
Q 205 1152 205 2093 
Q 205 3155 890 3776 
Q 1491 4326 2419 4326 
Q 2829 4326 3270 4179 
Q 3443 4115 3552 4115 
Q 3654 4115 3731 4176 
Q 3808 4237 3840 4326 
L 3981 4326 
L 4032 2976 
L 3885 2976 
Q 3680 3475 3430 3718 
Q 3059 4070 2496 4070 
Q 1856 4070 1427 3629 
Q 934 3136 934 2074 
Q 934 1190 1395 678 
Q 1856 166 2618 166 
Q 2982 166 3225 281 
Q 3469 397 3469 557 
L 3469 1562 
Q 3469 1933 3376 2025 
Q 3283 2118 2899 2150 
L 2899 2266 
L 4538 2266 
z
" transform="scale(0.015625)"/>
      <path id="STIXGeneral-Regular-48" d="M 4499 0 
L 2714 0 
L 2714 122 
Q 3085 147 3181 265 
Q 3277 384 3277 794 
L 3277 2016 
L 1338 2016 
L 1338 723 
Q 1338 371 1440 256 
Q 1542 141 1894 122 
L 1901 0 
L 115 0 
L 115 122 
Q 493 147 589 259 
Q 685 371 685 781 
L 685 3507 
Q 685 3878 585 3980 
Q 486 4083 115 4115 
L 115 4237 
L 1907 4237 
L 1907 4115 
Q 1549 4083 1443 3977 
Q 1338 3872 1338 3507 
L 1338 2298 
L 3277 2298 
L 3277 3507 
Q 3277 3878 3177 3980 
Q 3078 4083 2707 4115 
L 2707 4237 
L 4499 4237 
L 4499 4115 
Q 4141 4083 4035 3977 
Q 3930 3872 3930 3507 
L 3930 710 
Q 3930 371 4035 259 
Q 4141 147 4499 122 
L 4499 0 
z
" transform="scale(0.015625)"/>
      <path id="STIXGeneral-Regular-49" d="M 2016 0 
L 115 0 
L 115 122 
Q 518 134 627 240 
Q 736 346 736 717 
L 736 3526 
Q 736 3898 633 3994 
Q 531 4090 115 4115 
L 115 4237 
L 2016 4237 
L 2016 4115 
Q 1613 4096 1501 3993 
Q 1389 3891 1389 3526 
L 1389 717 
Q 1389 358 1504 246 
Q 1619 134 2016 122 
L 2016 0 
z
" transform="scale(0.015625)"/>
      <path id="STIXGeneral-Italic-57" d="M 5798 4179 
L 5798 4077 
Q 5613 4019 5526 3936 
Q 5440 3853 5306 3597 
L 3379 -115 
L 3251 -115 
L 2931 2784 
L 2899 2784 
L 1478 -115 
L 1357 -115 
L 966 3174 
Q 915 3622 883 3766 
Q 851 3910 781 3981 
Q 717 4045 454 4077 
L 454 4179 
L 1958 4179 
L 1958 4077 
Q 1696 4051 1597 3987 
Q 1498 3923 1498 3750 
Q 1498 3667 1504 3622 
L 1786 1037 
L 2886 3264 
L 2835 3680 
Q 2810 3923 2723 3993 
Q 2637 4064 2355 4077 
L 2355 4179 
L 3866 4179 
L 3866 4077 
Q 3616 4051 3523 3987 
Q 3430 3923 3430 3770 
Q 3430 3750 3436 3715 
Q 3443 3680 3443 3674 
L 3699 1037 
L 4902 3373 
Q 5050 3654 5050 3808 
Q 5050 4070 4621 4077 
L 4621 4179 
L 5798 4179 
z
" transform="scale(0.015625)"/>
      <path id="ArialMT-2c" d="M 569 0 
L 569 641 
L 1209 641 
L 1209 0 
Q 1209 -353 1084 -570 
Q 959 -788 688 -906 
L 531 -666 
Q 709 -588 793 -436 
Q 878 -284 888 0 
L 569 0 
z
" transform="scale(0.015625)"/>
      <path id="STIXGeneral-Regular-20d7" d="M -109 4186 
L -954 3507 
L -1069 3558 
Q -755 3821 -755 3917 
Q -755 4013 -1069 4013 
L -2899 4013 
L -2899 4358 
L -1069 4358 
Q -755 4358 -755 4454 
Q -755 4474 -768 4496 
Q -781 4518 -816 4553 
Q -851 4589 -880 4621 
Q -909 4653 -973 4713 
Q -1037 4774 -1075 4813 
L -960 4864 
L -109 4186 
z
" transform="scale(0.015625)"/>
      <path id="STIXGeneral-Italic-56" d="M 4403 4179 
L 4403 4077 
Q 4198 4070 4045 3821 
L 1658 -115 
L 1536 -115 
L 1011 3104 
Q 902 3776 828 3910 
Q 755 4045 486 4077 
L 486 4179 
L 2022 4179 
L 2022 4077 
Q 1722 4045 1629 3981 
Q 1536 3917 1536 3750 
Q 1536 3686 1542 3654 
L 1958 819 
L 3302 3123 
Q 3616 3661 3616 3859 
Q 3616 4032 3219 4077 
L 3219 4179 
L 4403 4179 
z
" transform="scale(0.015625)"/>
      <path id="STIXGeneral-Regular-66" d="M 134 2880 
L 659 2880 
Q 666 3264 710 3478 
Q 755 3693 883 3910 
Q 1152 4371 1786 4371 
Q 2074 4371 2262 4259 
Q 2451 4147 2451 3974 
Q 2451 3866 2374 3789 
Q 2298 3712 2182 3712 
Q 2029 3712 1894 3942 
Q 1741 4192 1555 4192 
Q 1197 4192 1197 3622 
L 1197 2880 
L 1978 2880 
L 1978 2675 
L 1197 2675 
L 1197 666 
Q 1197 307 1299 208 
Q 1402 109 1792 96 
L 1792 0 
L 128 0 
L 128 96 
Q 474 115 566 214 
Q 659 314 659 666 
L 659 2675 
L 134 2675 
L 134 2880 
z
" transform="scale(0.015625)"/>
      <path id="STIXGeneral-Regular-75" d="M 3072 320 
L 3072 230 
Q 2573 96 2195 -58 
L 2163 -38 
L 2163 486 
L 2150 486 
Q 1747 -64 1235 -64 
Q 870 -64 662 160 
Q 454 384 454 755 
L 454 2362 
Q 454 2598 371 2688 
Q 288 2778 58 2790 
L 58 2880 
L 992 2880 
L 992 813 
Q 992 595 1123 451 
Q 1254 307 1446 307 
Q 1760 307 1984 506 
Q 2067 582 2099 649 
Q 2131 717 2131 877 
L 2131 2355 
Q 2131 2605 2041 2678 
Q 1952 2752 1658 2771 
L 1658 2880 
L 2669 2880 
L 2669 685 
Q 2669 461 2742 390 
Q 2816 320 3034 320 
L 3072 320 
z
" transform="scale(0.015625)"/>
      <path id="STIXGeneral-Regular-74" d="M 1702 493 
L 1786 422 
Q 1478 -64 1011 -64 
Q 448 -64 448 749 
L 448 2675 
L 109 2675 
Q 83 2694 83 2720 
Q 83 2771 192 2842 
Q 435 2982 813 3526 
Q 826 3546 874 3606 
Q 922 3667 941 3706 
Q 986 3706 986 3622 
L 986 2880 
L 1632 2880 
L 1632 2675 
L 986 2675 
L 986 845 
Q 986 538 1062 403 
Q 1139 269 1318 269 
Q 1510 269 1702 493 
z
" transform="scale(0.015625)"/>
     </defs>
     <use xlink:href="#ArialMT-49"/>
     <use xlink:href="#ArialMT-6e" transform="translate(27.783203 0)"/>
     <use xlink:href="#ArialMT-70" transform="translate(83.398438 0)"/>
     <use xlink:href="#ArialMT-75" transform="translate(139.013672 0)"/>
     <use xlink:href="#ArialMT-74" transform="translate(194.628906 0)"/>
     <use xlink:href="#ArialMT-73" transform="translate(222.412109 0)"/>
     <use xlink:href="#ArialMT-3a" transform="translate(272.412109 0)"/>
     <use xlink:href="#ArialMT-20" transform="translate(300.195312 0)"/>
     <use xlink:href="#ArialMT-44" transform="translate(327.978516 0)"/>
     <use xlink:href="#ArialMT-61" transform="translate(400.195312 0)"/>
     <use xlink:href="#ArialMT-79" transform="translate(455.810547 0)"/>
     <use xlink:href="#ArialMT-20" transform="translate(505.810547 0)"/>
     <use xlink:href="#ArialMT-53" transform="translate(533.59375 0)"/>
     <use xlink:href="#ArialMT-65" transform="translate(600.292969 0)"/>
     <use xlink:href="#ArialMT-6c" transform="translate(655.908203 0)"/>
     <use xlink:href="#ArialMT-65" transform="translate(678.125 0)"/>
     <use xlink:href="#ArialMT-63" transform="translate(733.740234 0)"/>
     <use xlink:href="#ArialMT-74" transform="translate(783.740234 0)"/>
     <use xlink:href="#ArialMT-6f" transform="translate(811.523438 0)"/>
     <use xlink:href="#ArialMT-72" transform="translate(867.138672 0)"/>
     <use xlink:href="#ArialMT-20" transform="translate(900.439453 0)"/>
     <use xlink:href="#ArialMT-20" transform="translate(928.222656 0)"/>
     <use xlink:href="#ArialMT-7c" transform="translate(956.005859 0)"/>
     <use xlink:href="#ArialMT-20" transform="translate(981.982422 0)"/>
     <use xlink:href="#ArialMT-20" transform="translate(1009.765625 0)"/>
     <use xlink:href="#ArialMT-4f" transform="translate(1037.548828 0)"/>
     <use xlink:href="#ArialMT-75" transform="translate(1115.332031 0)"/>
     <use xlink:href="#ArialMT-74" transform="translate(1170.947266 0)"/>
     <use xlink:href="#ArialMT-70" transform="translate(1198.730469 0)"/>
     <use xlink:href="#ArialMT-75" transform="translate(1254.345703 0)"/>
     <use xlink:href="#ArialMT-74" transform="translate(1309.960938 0)"/>
     <use xlink:href="#ArialMT-73" transform="translate(1337.744141 0)"/>
     <use xlink:href="#ArialMT-3a" transform="translate(1387.744141 0)"/>
     <use xlink:href="#ArialMT-20" transform="translate(1415.527344 0)"/>
     <use xlink:href="#STIXGeneral-Regular-47" transform="translate(1443.310547 0)"/>
     <use xlink:href="#STIXGeneral-Regular-48" transform="translate(1515.510529 0)"/>
     <use xlink:href="#STIXGeneral-Regular-49" transform="translate(1587.71051 0)"/>
     <use xlink:href="#STIXGeneral-Italic-57" transform="translate(1622.553779 -13.228125) scale(0.7)"/>
     <use xlink:href="#ArialMT-2c" transform="translate(1685.273146 0)"/>
     <use xlink:href="#ArialMT-20" transform="translate(1713.056349 0)"/>
     <use xlink:href="#STIXGeneral-Regular-20d7" transform="translate(1802.411425 23)"/>
     <use xlink:href="#STIXGeneral-Italic-56" transform="translate(1740.839552 0)"/>
     <use xlink:href="#STIXGeneral-Regular-66" transform="translate(1803.482824 -13.228125) scale(0.7)"/>
     <use xlink:href="#STIXGeneral-Regular-75" transform="translate(1826.792816 -13.228125) scale(0.7)"/>
     <use xlink:href="#STIXGeneral-Regular-74" transform="translate(1861.792805 -13.228125) scale(0.7)"/>
    </g>
   </g>
   <g id="text_7">
    <!-- Day Select -->
    <g style="fill: #0f172a" transform="translate(114.388594 208.7955) scale(0.1 -0.1)">
     <use xlink:href="#Arial-BoldMT-44"/>
     <use xlink:href="#Arial-BoldMT-61" transform="translate(72.216797 0)"/>
     <use xlink:href="#Arial-BoldMT-79" transform="translate(127.832031 0)"/>
     <use xlink:href="#Arial-BoldMT-20" transform="translate(183.447266 0)"/>
     <use xlink:href="#Arial-BoldMT-53" transform="translate(211.230469 0)"/>
     <use xlink:href="#Arial-BoldMT-65" transform="translate(277.929688 0)"/>
     <use xlink:href="#Arial-BoldMT-6c" transform="translate(333.544922 0)"/>
     <use xlink:href="#Arial-BoldMT-65" transform="translate(361.328125 0)"/>
     <use xlink:href="#Arial-BoldMT-63" transform="translate(416.943359 0)"/>
     <use xlink:href="#Arial-BoldMT-74" transform="translate(472.558594 0)"/>
    </g>
   </g>
   <g id="text_8">
    <!-- Future Day 1 -->
    <g style="fill: #0f172a" transform="translate(112.424766 266.707266) scale(0.09 -0.09)">
     <defs>
      <path id="Arial-BoldMT-46" d="M 472 0 
L 472 4581 
L 3613 4581 
L 3613 3806 
L 1397 3806 
L 1397 2722 
L 3309 2722 
L 3309 1947 
L 1397 1947 
L 1397 0 
L 472 0 
z
" transform="scale(0.015625)"/>
      <path id="Arial-BoldMT-31" d="M 2519 0 
L 1641 0 
L 1641 3309 
Q 1159 2859 506 2644 
L 506 3441 
Q 850 3553 1253 3867 
Q 1656 4181 1806 4600 
L 2519 4600 
L 2519 0 
z
" transform="scale(0.015625)"/>
     </defs>
     <use xlink:href="#Arial-BoldMT-46"/>
     <use xlink:href="#Arial-BoldMT-75" transform="translate(61.083984 0)"/>
     <use xlink:href="#Arial-BoldMT-74" transform="translate(122.167969 0)"/>
     <use xlink:href="#Arial-BoldMT-75" transform="translate(155.46875 0)"/>
     <use xlink:href="#Arial-BoldMT-72" transform="translate(216.552734 0)"/>
     <use xlink:href="#Arial-BoldMT-65" transform="translate(255.46875 0)"/>
     <use xlink:href="#Arial-BoldMT-20" transform="translate(311.083984 0)"/>
     <use xlink:href="#Arial-BoldMT-44" transform="translate(338.867188 0)"/>
     <use xlink:href="#Arial-BoldMT-61" transform="translate(411.083984 0)"/>
     <use xlink:href="#Arial-BoldMT-79" transform="translate(466.699219 0)"/>
     <use xlink:href="#Arial-BoldMT-20" transform="translate(522.314453 0)"/>
     <use xlink:href="#Arial-BoldMT-31" transform="translate(550.097656 0)"/>
    </g>
   </g>
   <g id="text_9">
    <!-- Future Day 2 -->
    <g style="fill: #0f172a" transform="translate(112.424766 311.059266) scale(0.09 -0.09)">
     <defs>
      <path id="Arial-BoldMT-32" d="M 3238 816 
L 3238 0 
L 159 0 
Q 209 463 459 877 
Q 709 1291 1447 1975 
Q 2041 2528 2175 2725 
Q 2356 2997 2356 3263 
Q 2356 3556 2198 3714 
Q 2041 3872 1763 3872 
Q 1488 3872 1325 3706 
Q 1163 3541 1138 3156 
L 263 3244 
Q 341 3969 753 4284 
Q 1166 4600 1784 4600 
Q 2463 4600 2850 4234 
Q 3238 3869 3238 3325 
Q 3238 3016 3127 2736 
Q 3016 2456 2775 2150 
Q 2616 1947 2200 1565 
Q 1784 1184 1673 1059 
Q 1563 934 1494 816 
L 3238 816 
z
" transform="scale(0.015625)"/>
     </defs>
     <use xlink:href="#Arial-BoldMT-46"/>
     <use xlink:href="#Arial-BoldMT-75" transform="translate(61.083984 0)"/>
     <use xlink:href="#Arial-BoldMT-74" transform="translate(122.167969 0)"/>
     <use xlink:href="#Arial-BoldMT-75" transform="translate(155.46875 0)"/>
     <use xlink:href="#Arial-BoldMT-72" transform="translate(216.552734 0)"/>
     <use xlink:href="#Arial-BoldMT-65" transform="translate(255.46875 0)"/>
     <use xlink:href="#Arial-BoldMT-20" transform="translate(311.083984 0)"/>
     <use xlink:href="#Arial-BoldMT-44" transform="translate(338.867188 0)"/>
     <use xlink:href="#Arial-BoldMT-61" transform="translate(411.083984 0)"/>
     <use xlink:href="#Arial-BoldMT-79" transform="translate(466.699219 0)"/>
     <use xlink:href="#Arial-BoldMT-20" transform="translate(522.314453 0)"/>
     <use xlink:href="#Arial-BoldMT-32" transform="translate(550.097656 0)"/>
    </g>
   </g>
   <g id="text_10">
    <!-- Future Day 3 -->
    <g style="fill: #0f172a" transform="translate(112.424766 355.411266) scale(0.09 -0.09)">
     <defs>
      <path id="Arial-BoldMT-33" d="M 241 1216 
L 1091 1319 
Q 1131 994 1309 822 
Q 1488 650 1741 650 
Q 2013 650 2198 856 
Q 2384 1063 2384 1413 
Q 2384 1744 2206 1937 
Q 2028 2131 1772 2131 
Q 1603 2131 1369 2066 
L 1466 2781 
Q 1822 2772 2009 2936 
Q 2197 3100 2197 3372 
Q 2197 3603 2059 3740 
Q 1922 3878 1694 3878 
Q 1469 3878 1309 3722 
Q 1150 3566 1116 3266 
L 306 3403 
Q 391 3819 561 4067 
Q 731 4316 1036 4458 
Q 1341 4600 1719 4600 
Q 2366 4600 2756 4188 
Q 3078 3850 3078 3425 
Q 3078 2822 2419 2463 
Q 2813 2378 3048 2084 
Q 3284 1791 3284 1375 
Q 3284 772 2843 347 
Q 2403 -78 1747 -78 
Q 1125 -78 715 280 
Q 306 638 241 1216 
z
" transform="scale(0.015625)"/>
     </defs>
     <use xlink:href="#Arial-BoldMT-46"/>
     <use xlink:href="#Arial-BoldMT-75" transform="translate(61.083984 0)"/>
     <use xlink:href="#Arial-BoldMT-74" transform="translate(122.167969 0)"/>
     <use xlink:href="#Arial-BoldMT-75" transform="translate(155.46875 0)"/>
     <use xlink:href="#Arial-BoldMT-72" transform="translate(216.552734 0)"/>
     <use xlink:href="#Arial-BoldMT-65" transform="translate(255.46875 0)"/>
     <use xlink:href="#Arial-BoldMT-20" transform="translate(311.083984 0)"/>
     <use xlink:href="#Arial-BoldMT-44" transform="translate(338.867188 0)"/>
     <use xlink:href="#Arial-BoldMT-61" transform="translate(411.083984 0)"/>
     <use xlink:href="#Arial-BoldMT-79" transform="translate(466.699219 0)"/>
     <use xlink:href="#Arial-BoldMT-20" transform="translate(522.314453 0)"/>
     <use xlink:href="#Arial-BoldMT-33" transform="translate(550.097656 0)"/>
    </g>
   </g>
   <g id="text_11">
    <!-- History 1 -->
    <g style="fill: #0f172a" transform="translate(162.004219 460.747266) scale(0.09 -0.09)">
     <use xlink:href="#Arial-BoldMT-48"/>
     <use xlink:href="#Arial-BoldMT-69" transform="translate(72.216797 0)"/>
     <use xlink:href="#Arial-BoldMT-73" transform="translate(100 0)"/>
     <use xlink:href="#Arial-BoldMT-74" transform="translate(155.615234 0)"/>
     <use xlink:href="#Arial-BoldMT-6f" transform="translate(188.916016 0)"/>
     <use xlink:href="#Arial-BoldMT-72" transform="translate(250 0)"/>
     <use xlink:href="#Arial-BoldMT-79" transform="translate(288.916016 0)"/>
     <use xlink:href="#Arial-BoldMT-20" transform="translate(344.53125 0)"/>
     <use xlink:href="#Arial-BoldMT-31" transform="translate(372.314453 0)"/>
    </g>
   </g>
   <g id="text_12">
    <!-- History 2 -->
    <g style="fill: #0f172a" transform="translate(162.004219 505.099266) scale(0.09 -0.09)">
     <use xlink:href="#Arial-BoldMT-48"/>
     <use xlink:href="#Arial-BoldMT-69" transform="translate(72.216797 0)"/>
     <use xlink:href="#Arial-BoldMT-73" transform="translate(100 0)"/>
     <use xlink:href="#Arial-BoldMT-74" transform="translate(155.615234 0)"/>
     <use xlink:href="#Arial-BoldMT-6f" transform="translate(188.916016 0)"/>
     <use xlink:href="#Arial-BoldMT-72" transform="translate(250 0)"/>
     <use xlink:href="#Arial-BoldMT-79" transform="translate(288.916016 0)"/>
     <use xlink:href="#Arial-BoldMT-20" transform="translate(344.53125 0)"/>
     <use xlink:href="#Arial-BoldMT-32" transform="translate(372.314453 0)"/>
    </g>
   </g>
   <g id="text_13">
    <!-- History 3 -->
    <g style="fill: #0f172a" transform="translate(162.004219 549.451266) scale(0.09 -0.09)">
     <use xlink:href="#Arial-BoldMT-48"/>
     <use xlink:href="#Arial-BoldMT-69" transform="translate(72.216797 0)"/>
     <use xlink:href="#Arial-BoldMT-73" transform="translate(100 0)"/>
     <use xlink:href="#Arial-BoldMT-74" transform="translate(155.615234 0)"/>
     <use xlink:href="#Arial-BoldMT-6f" transform="translate(188.916016 0)"/>
     <use xlink:href="#Arial-BoldMT-72" transform="translate(250 0)"/>
     <use xlink:href="#Arial-BoldMT-79" transform="translate(288.916016 0)"/>
     <use xlink:href="#Arial-BoldMT-20" transform="translate(344.53125 0)"/>
     <use xlink:href="#Arial-BoldMT-33" transform="translate(372.314453 0)"/>
    </g>
   </g>
   <g id="text_14">
    <!-- Mux 1 -->
    <g style="fill: #0f172a" transform="translate(370.740625 281.649844) scale(0.13 -0.13)">
     <defs>
      <path id="Arial-BoldMT-4d" d="M 453 0 
L 453 4581 
L 1838 4581 
L 2669 1456 
L 3491 4581 
L 4878 4581 
L 4878 0 
L 4019 0 
L 4019 3606 
L 3109 0 
L 2219 0 
L 1313 3606 
L 1313 0 
L 453 0 
z
" transform="scale(0.015625)"/>
      <path id="Arial-BoldMT-78" d="M 38 0 
L 1234 1709 
L 88 3319 
L 1159 3319 
L 1747 2406 
L 2366 3319 
L 3397 3319 
L 2272 1747 
L 3500 0 
L 2422 0 
L 1747 1028 
L 1066 0 
L 38 0 
z
" transform="scale(0.015625)"/>
     </defs>
     <use xlink:href="#Arial-BoldMT-4d"/>
     <use xlink:href="#Arial-BoldMT-75" transform="translate(83.300781 0)"/>
     <use xlink:href="#Arial-BoldMT-78" transform="translate(144.384766 0)"/>
     <use xlink:href="#Arial-BoldMT-20" transform="translate(200 0)"/>
     <use xlink:href="#Arial-BoldMT-31" transform="translate(227.783203 0)"/>
    </g>
   </g>
   <g id="text_15">
    <!-- Mux 2 -->
    <g style="fill: #0f172a" transform="translate(370.740625 475.689844) scale(0.13 -0.13)">
     <use xlink:href="#Arial-BoldMT-4d"/>
     <use xlink:href="#Arial-BoldMT-75" transform="translate(83.300781 0)"/>
     <use xlink:href="#Arial-BoldMT-78" transform="translate(144.384766 0)"/>
     <use xlink:href="#Arial-BoldMT-20" transform="translate(200 0)"/>
     <use xlink:href="#Arial-BoldMT-32" transform="translate(227.783203 0)"/>
    </g>
   </g>
   <g id="text_16">
    <!-- DEMUX -->
    <g style="fill: #0f172a" transform="translate(533.811563 275.052938) scale(0.12 -0.12)">
     <defs>
      <path id="Arial-BoldMT-58" d="M 0 0 
L 1566 2391 
L 147 4581 
L 1228 4581 
L 2147 3109 
L 3047 4581 
L 4119 4581 
L 2694 2356 
L 4259 0 
L 3144 0 
L 2128 1584 
L 1109 0 
L 0 0 
z
" transform="scale(0.015625)"/>
     </defs>
     <use xlink:href="#Arial-BoldMT-44"/>
     <use xlink:href="#Arial-BoldMT-45" transform="translate(72.216797 0)"/>
     <use xlink:href="#Arial-BoldMT-4d" transform="translate(138.916016 0)"/>
     <use xlink:href="#Arial-BoldMT-55" transform="translate(222.216797 0)"/>
     <use xlink:href="#Arial-BoldMT-58" transform="translate(294.433594 0)"/>
    </g>
    <!-- 1 : 4 -->
    <g style="fill: #0f172a" transform="translate(543.475312 287.728313) scale(0.12 -0.12)">
     <defs>
      <path id="Arial-BoldMT-3a" d="M 628 2441 
L 628 3319 
L 1506 3319 
L 1506 2441 
L 628 2441 
z
M 628 0 
L 628 878 
L 1506 878 
L 1506 0 
L 628 0 
z
" transform="scale(0.015625)"/>
      <path id="Arial-BoldMT-34" d="M 1994 0 
L 1994 922 
L 119 922 
L 119 1691 
L 2106 4600 
L 2844 4600 
L 2844 1694 
L 3413 1694 
L 3413 922 
L 2844 922 
L 2844 0 
L 1994 0 
z
M 1994 1694 
L 1994 3259 
L 941 1694 
L 1994 1694 
z
" transform="scale(0.015625)"/>
     </defs>
     <use xlink:href="#Arial-BoldMT-31"/>
     <use xlink:href="#Arial-BoldMT-20" transform="translate(55.615234 0)"/>
     <use xlink:href="#Arial-BoldMT-3a" transform="translate(83.398438 0)"/>
     <use xlink:href="#Arial-BoldMT-20" transform="translate(116.699219 0)"/>
     <use xlink:href="#Arial-BoldMT-34" transform="translate(144.482422 0)"/>
    </g>
   </g>
   <g id="text_17">
    <!-- MUX -->
    <g style="fill: #0f172a" transform="translate(680.746875 275.052938) scale(0.12 -0.12)">
     <use xlink:href="#Arial-BoldMT-4d"/>
     <use xlink:href="#Arial-BoldMT-55" transform="translate(83.300781 0)"/>
     <use xlink:href="#Arial-BoldMT-58" transform="translate(155.517578 0)"/>
    </g>
    <!-- 4 : 1 -->
    <g style="fill: #0f172a" transform="translate(682.075312 287.728313) scale(0.12 -0.12)">
     <use xlink:href="#Arial-BoldMT-34"/>
     <use xlink:href="#Arial-BoldMT-20" transform="translate(55.615234 0)"/>
     <use xlink:href="#Arial-BoldMT-3a" transform="translate(83.398438 0)"/>
     <use xlink:href="#Arial-BoldMT-20" transform="translate(116.699219 0)"/>
     <use xlink:href="#Arial-BoldMT-31" transform="translate(144.482422 0)"/>
    </g>
   </g>
   <g id="text_18">
    <!-- $\mathbf{X}^T$ -->
    <g style="fill: #0f172a" transform="translate(810.56 281.909063) scale(0.14 -0.14)">
     <defs>
      <path id="STIXGeneral-Bold-58" d="M 4474 0 
L 2298 0 
L 2298 160 
L 2477 173 
Q 2810 192 2810 352 
Q 2810 486 2675 698 
L 2029 1734 
L 1786 1408 
Q 1427 922 1305 726 
Q 1184 531 1184 429 
Q 1184 307 1296 249 
Q 1408 192 1702 160 
L 1702 0 
L 102 0 
L 102 160 
Q 339 186 480 262 
Q 621 339 768 518 
L 1888 1933 
L 621 3795 
Q 474 4013 378 4083 
Q 282 4154 109 4166 
L 109 4326 
L 2323 4326 
L 2323 4166 
L 2125 4154 
Q 1952 4147 1885 4102 
Q 1818 4058 1818 3955 
Q 1818 3866 1914 3718 
L 2534 2758 
L 2893 3251 
Q 3123 3565 3193 3696 
Q 3264 3827 3264 3930 
Q 3264 4045 3193 4089 
Q 3123 4134 2938 4154 
L 2803 4166 
L 2803 4326 
L 4403 4326 
L 4403 4166 
Q 4038 4134 3824 3971 
Q 3610 3808 3200 3232 
L 2688 2522 
L 3853 710 
Q 4077 365 4192 265 
Q 4307 166 4474 160 
L 4474 0 
z
" transform="scale(0.015625)"/>
      <path id="STIXGeneral-Italic-54" d="M 4051 4179 
L 3770 3130 
L 3661 3142 
Q 3680 3302 3680 3437 
Q 3680 3955 3034 3955 
L 2662 3955 
L 1786 819 
Q 1696 506 1696 397 
Q 1696 250 1766 195 
Q 1837 141 2035 122 
L 2259 102 
L 2259 0 
L 416 0 
L 416 102 
Q 749 134 889 230 
Q 1030 326 1101 582 
L 2016 3955 
Q 1254 3955 988 3817 
Q 723 3680 493 3162 
L 378 3187 
L 646 4179 
L 4051 4179 
z
" transform="scale(0.015625)"/>
     </defs>
     <use xlink:href="#STIXGeneral-Bold-58" transform="translate(0 0.017188)"/>
     <use xlink:href="#STIXGeneral-Italic-54" transform="translate(73.743263 35.292188) scale(0.7)"/>
    </g>
   </g>
   <g id="text_19">
    <!-- $t$ -->
    <g style="fill: #0f172a" transform="translate(830.72 420.509063) scale(0.14 -0.14)">
     <defs>
      <path id="STIXGeneral-Italic-74" d="M 1894 2739 
L 1862 2534 
L 1325 2534 
L 768 435 
Q 755 384 755 346 
Q 755 243 851 243 
Q 928 243 1030 342 
Q 1133 442 1370 749 
L 1453 704 
Q 1158 256 969 93 
Q 781 -70 538 -70 
Q 243 -70 243 166 
Q 243 230 346 640 
L 845 2534 
L 365 2534 
L 358 2573 
Q 358 2688 570 2733 
Q 730 2771 992 2979 
Q 1254 3187 1421 3437 
Q 1459 3494 1510 3494 
Q 1568 3494 1568 3443 
Q 1568 3411 1562 3398 
L 1382 2739 
L 1894 2739 
z
" transform="scale(0.015625)"/>
     </defs>
     <use xlink:href="#STIXGeneral-Italic-74" transform="translate(0 0.40625)"/>
    </g>
   </g>
   <g id="text_20">
    <!-- $\mathcal{NN}$ -->
    <g style="fill: #d97706" transform="translate(1049.1 305.640375) scale(0.2 -0.2)">
     <defs>
      <path id="STIXNonUnicode-Italic-e23a" d="M 4294 800 
L 4301 800 
Q 5293 4070 5408 4378 
Q 5472 4538 5523 4614 
Q 5830 5088 6253 5088 
Q 6490 5088 6650 4931 
Q 6810 4774 6810 4550 
Q 6810 4378 6720 4272 
Q 6630 4166 6470 4166 
Q 6368 4166 6297 4224 
Q 6227 4282 6198 4349 
Q 6170 4416 6118 4473 
Q 6067 4531 6003 4531 
Q 5939 4531 5881 4508 
Q 5824 4486 5785 4457 
Q 5747 4429 5705 4371 
Q 5664 4314 5638 4275 
Q 5613 4237 5584 4163 
Q 5555 4090 5545 4058 
Q 5536 4026 5510 3952 
Q 5485 3878 5485 3866 
L 4262 -154 
L 4134 -154 
Q 3078 1280 2483 2893 
L 2470 2893 
Q 2406 2579 2358 2361 
Q 2310 2144 2214 1792 
Q 2118 1440 2028 1190 
Q 1939 941 1804 653 
Q 1670 365 1529 185 
Q 1389 6 1203 -115 
Q 1018 -237 813 -237 
Q 576 -237 416 -80 
Q 256 77 256 301 
Q 256 474 345 579 
Q 435 685 595 685 
Q 698 685 768 627 
Q 838 570 867 502 
Q 896 435 947 377 
Q 998 320 1062 320 
Q 1222 320 1369 480 
Q 1517 640 1638 928 
Q 1760 1216 1862 1542 
Q 1965 1869 2057 2288 
Q 2150 2707 2214 3033 
Q 2278 3360 2348 3741 
Q 2419 4122 2458 4294 
L 2630 4294 
Q 2682 4166 2874 3680 
Q 3066 3194 3142 3008 
Q 3219 2822 3392 2422 
Q 3565 2022 3683 1798 
Q 3802 1574 3968 1292 
Q 4134 1011 4294 800 
z
" transform="scale(0.015625)"/>
     </defs>
     <use xlink:href="#STIXNonUnicode-Italic-e23a" transform="translate(0 0.5)"/>
     <use xlink:href="#STIXNonUnicode-Italic-e23a" transform="translate(95.699982 0.5)"/>
    </g>
   </g>
   <g id="text_21">
    <!-- MATLAB -->
    <g style="fill: #0f172a" transform="translate(1039.268594 338.271094) scale(0.14 -0.14)">
     <use xlink:href="#Arial-BoldMT-4d"/>
     <use xlink:href="#Arial-BoldMT-41" transform="translate(83.300781 0)"/>
     <use xlink:href="#Arial-BoldMT-54" transform="translate(148.142578 0)"/>
     <use xlink:href="#Arial-BoldMT-4c" transform="translate(209.226562 0)"/>
     <use xlink:href="#Arial-BoldMT-41" transform="translate(270.310547 0)"/>
     <use xlink:href="#Arial-BoldMT-42" transform="translate(342.527344 0)"/>
    </g>
    <!-- Function -->
    <g style="fill: #0f172a" transform="translate(1038.754531 353.059031) scale(0.14 -0.14)">
     <use xlink:href="#Arial-BoldMT-46"/>
     <use xlink:href="#Arial-BoldMT-75" transform="translate(61.083984 0)"/>
     <use xlink:href="#Arial-BoldMT-6e" transform="translate(122.167969 0)"/>
     <use xlink:href="#Arial-BoldMT-63" transform="translate(183.251953 0)"/>
     <use xlink:href="#Arial-BoldMT-74" transform="translate(238.867188 0)"/>
     <use xlink:href="#Arial-BoldMT-69" transform="translate(272.167969 0)"/>
     <use xlink:href="#Arial-BoldMT-6f" transform="translate(299.951172 0)"/>
     <use xlink:href="#Arial-BoldMT-6e" transform="translate(361.035156 0)"/>
    </g>
   </g>
   <g id="text_22">
    <!-- PI-HybridNet -->
    <g style="fill: #475569" transform="translate(1033.959375 442.101375) scale(0.12 -0.12)">
     <defs>
      <path id="ArialMT-50" d="M 494 0 
L 494 4581 
L 2222 4581 
Q 2678 4581 2919 4538 
Q 3256 4481 3484 4323 
Q 3713 4166 3852 3881 
Q 3991 3597 3991 3256 
Q 3991 2672 3619 2267 
Q 3247 1863 2275 1863 
L 1100 1863 
L 1100 0 
L 494 0 
z
M 1100 2403 
L 2284 2403 
Q 2872 2403 3119 2622 
Q 3366 2841 3366 3238 
Q 3366 3525 3220 3729 
Q 3075 3934 2838 4000 
Q 2684 4041 2272 4041 
L 1100 4041 
L 1100 2403 
z
" transform="scale(0.015625)"/>
      <path id="ArialMT-2d" d="M 203 1375 
L 203 1941 
L 1931 1941 
L 1931 1375 
L 203 1375 
z
" transform="scale(0.015625)"/>
      <path id="ArialMT-48" d="M 513 0 
L 513 4581 
L 1119 4581 
L 1119 2700 
L 3500 2700 
L 3500 4581 
L 4106 4581 
L 4106 0 
L 3500 0 
L 3500 2159 
L 1119 2159 
L 1119 0 
L 513 0 
z
" transform="scale(0.015625)"/>
      <path id="ArialMT-62" d="M 941 0 
L 419 0 
L 419 4581 
L 981 4581 
L 981 2947 
Q 1338 3394 1891 3394 
Q 2197 3394 2470 3270 
Q 2744 3147 2920 2923 
Q 3097 2700 3197 2384 
Q 3297 2069 3297 1709 
Q 3297 856 2875 390 
Q 2453 -75 1863 -75 
Q 1275 -75 941 416 
L 941 0 
z
M 934 1684 
Q 934 1088 1097 822 
Q 1363 388 1816 388 
Q 2184 388 2453 708 
Q 2722 1028 2722 1663 
Q 2722 2313 2464 2622 
Q 2206 2931 1841 2931 
Q 1472 2931 1203 2611 
Q 934 2291 934 1684 
z
" transform="scale(0.015625)"/>
      <path id="ArialMT-69" d="M 425 3934 
L 425 4581 
L 988 4581 
L 988 3934 
L 425 3934 
z
M 425 0 
L 425 3319 
L 988 3319 
L 988 0 
L 425 0 
z
" transform="scale(0.015625)"/>
      <path id="ArialMT-64" d="M 2575 0 
L 2575 419 
Q 2259 -75 1647 -75 
Q 1250 -75 917 144 
Q 584 363 401 755 
Q 219 1147 219 1656 
Q 219 2153 384 2558 
Q 550 2963 881 3178 
Q 1213 3394 1622 3394 
Q 1922 3394 2156 3267 
Q 2391 3141 2538 2938 
L 2538 4581 
L 3097 4581 
L 3097 0 
L 2575 0 
z
M 797 1656 
Q 797 1019 1065 703 
Q 1334 388 1700 388 
Q 2069 388 2326 689 
Q 2584 991 2584 1609 
Q 2584 2291 2321 2609 
Q 2059 2928 1675 2928 
Q 1300 2928 1048 2622 
Q 797 2316 797 1656 
z
" transform="scale(0.015625)"/>
      <path id="ArialMT-4e" d="M 488 0 
L 488 4581 
L 1109 4581 
L 3516 984 
L 3516 4581 
L 4097 4581 
L 4097 0 
L 3475 0 
L 1069 3600 
L 1069 0 
L 488 0 
z
" transform="scale(0.015625)"/>
     </defs>
     <use xlink:href="#ArialMT-50"/>
     <use xlink:href="#ArialMT-49" transform="translate(66.699219 0)"/>
     <use xlink:href="#ArialMT-2d" transform="translate(94.482422 0)"/>
     <use xlink:href="#ArialMT-48" transform="translate(127.783203 0)"/>
     <use xlink:href="#ArialMT-79" transform="translate(200 0)"/>
     <use xlink:href="#ArialMT-62" transform="translate(250 0)"/>
     <use xlink:href="#ArialMT-72" transform="translate(305.615234 0)"/>
     <use xlink:href="#ArialMT-69" transform="translate(338.916016 0)"/>
     <use xlink:href="#ArialMT-64" transform="translate(361.132812 0)"/>
     <use xlink:href="#ArialMT-4e" transform="translate(416.748047 0)"/>
     <use xlink:href="#ArialMT-65" transform="translate(488.964844 0)"/>
     <use xlink:href="#ArialMT-74" transform="translate(544.580078 0)"/>
    </g>
   </g>
   <g id="text_23">
    <!-- $\mathrm{GHI}_{\mathrm{pred}}$ -->
    <g style="fill: #0f172a" transform="translate(1282.926 263.598) scale(0.1 -0.1)">
     <defs>
      <path id="STIXGeneral-Regular-70" d="M 1018 2931 
L 1018 2438 
Q 1421 2944 1939 2944 
Q 2406 2944 2707 2560 
Q 3008 2176 3008 1581 
Q 3008 883 2621 409 
Q 2234 -64 1664 -64 
Q 1466 -64 1328 -6 
Q 1190 51 1018 211 
L 1018 -794 
Q 1018 -1094 1120 -1180 
Q 1222 -1267 1581 -1274 
L 1581 -1389 
L 32 -1389 
L 32 -1280 
Q 314 -1254 397 -1171 
Q 480 -1088 480 -838 
L 480 2157 
Q 480 2381 429 2451 
Q 378 2522 218 2522 
Q 115 2522 58 2515 
L 58 2618 
Q 506 2752 979 2944 
L 1018 2931 
z
M 1018 2138 
L 1018 563 
Q 1018 422 1238 281 
Q 1459 141 1683 141 
Q 2029 141 2243 467 
Q 2458 794 2458 1325 
Q 2458 1888 2243 2224 
Q 2029 2560 1670 2560 
Q 1446 2560 1232 2419 
Q 1018 2278 1018 2138 
z
" transform="scale(0.015625)"/>
      <path id="STIXGeneral-Regular-72" d="M 1024 2931 
L 1024 2342 
Q 1267 2688 1430 2816 
Q 1594 2944 1792 2944 
Q 1958 2944 2051 2854 
Q 2144 2765 2144 2605 
Q 2144 2470 2077 2393 
Q 2010 2317 1894 2317 
Q 1773 2317 1638 2445 
Q 1536 2541 1472 2541 
Q 1338 2541 1181 2355 
Q 1024 2170 1024 2016 
L 1024 576 
Q 1024 301 1133 205 
Q 1242 109 1568 96 
L 1568 0 
L 32 0 
L 32 96 
Q 339 154 412 224 
Q 486 294 486 538 
L 486 2138 
Q 486 2349 438 2435 
Q 390 2522 269 2522 
Q 166 2522 45 2496 
L 45 2598 
Q 448 2726 992 2944 
L 1024 2931 
z
" transform="scale(0.015625)"/>
      <path id="STIXGeneral-Regular-65" d="M 2611 1050 
L 2714 1005 
Q 2330 -64 1376 -64 
Q 813 -64 486 329 
Q 160 723 160 1389 
Q 160 2074 525 2509 
Q 890 2944 1485 2944 
Q 2061 2944 2374 2502 
Q 2560 2246 2592 1773 
L 621 1773 
Q 646 1370 700 1158 
Q 755 947 915 730 
Q 1184 378 1626 378 
Q 1939 378 2153 531 
Q 2368 685 2611 1050 
z
M 634 1978 
L 1939 1978 
Q 1882 2381 1750 2547 
Q 1619 2714 1312 2714 
Q 1043 2714 864 2525 
Q 685 2336 634 1978 
z
" transform="scale(0.015625)"/>
      <path id="STIXGeneral-Regular-64" d="M 3142 269 
L 2202 -64 
L 2176 -45 
L 2176 365 
Q 1869 -64 1357 -64 
Q 826 -64 499 317 
Q 173 698 173 1312 
Q 173 1990 563 2467 
Q 954 2944 1504 2944 
Q 1850 2944 2176 2669 
L 2176 3667 
Q 2176 3866 2118 3930 
Q 2061 3994 1882 3994 
Q 1792 3994 1741 3987 
L 1741 4090 
Q 2323 4243 2682 4371 
L 2714 4358 
L 2714 730 
Q 2714 506 2768 435 
Q 2822 365 2995 365 
Q 3034 365 3142 371 
L 3142 269 
z
M 2176 653 
L 2176 2125 
Q 2176 2381 1981 2573 
Q 1786 2765 1523 2765 
Q 1158 2765 940 2438 
Q 723 2112 723 1568 
Q 723 979 963 624 
Q 1203 269 1606 269 
Q 1907 269 2080 474 
Q 2176 582 2176 653 
z
" transform="scale(0.015625)"/>
     </defs>
     <use xlink:href="#STIXGeneral-Regular-47" transform="translate(0 0.40625)"/>
     <use xlink:href="#STIXGeneral-Regular-48" transform="translate(72.199982 0.40625)"/>
     <use xlink:href="#STIXGeneral-Regular-49" transform="translate(144.399963 0.40625)"/>
     <use xlink:href="#STIXGeneral-Regular-70" transform="translate(179.243232 -12.821875) scale(0.7)"/>
     <use xlink:href="#STIXGeneral-Regular-72" transform="translate(214.243222 -12.821875) scale(0.7)"/>
     <use xlink:href="#STIXGeneral-Regular-65" transform="translate(237.553213 -12.821875) scale(0.7)"/>
     <use xlink:href="#STIXGeneral-Regular-64" transform="translate(268.633209 -12.821875) scale(0.7)"/>
    </g>
   </g>
   <g id="text_24">
    <!-- $\vec{V}_{\mathrm{fut}}$ -->
    <g style="fill: #0f172a" transform="translate(1291.126 348.484563) scale(0.1 -0.1)">
     <use xlink:href="#STIXGeneral-Regular-20d7" transform="translate(61.571873 23)"/>
     <use xlink:href="#STIXGeneral-Italic-56"/>
     <use xlink:href="#STIXGeneral-Regular-66" transform="translate(62.643272 -13.228125) scale(0.7)"/>
     <use xlink:href="#STIXGeneral-Regular-75" transform="translate(85.953264 -13.228125) scale(0.7)"/>
     <use xlink:href="#STIXGeneral-Regular-74" transform="translate(120.953253 -13.228125) scale(0.7)"/>
    </g>
   </g>
   <g id="ai_path_1_0">
    <path d="M 195.12 206.208 
Q 236.7 206.208 278.28 206.208 
" style="fill: none; stroke: #2563eb; stroke-width: 1.8; stroke-linecap: round"/>
   </g>
   <g id="ai_path_1_1">
    <path d="M 278.28 206.208 
Q 278.28 214.524 278.28 222.84 
" style="fill: none; stroke: #2563eb; stroke-width: 1.8; stroke-linecap: round"/>
   </g>
   <g id="ai_path_1_2">
    <path d="M 278.28 222.84 
Q 306 222.84 331.707539 222.84 
" style="fill: none; stroke: #2563eb; stroke-width: 1.8; stroke-linecap: round"/>
    <path d="M 327.707539 220.84 
L 331.707539 222.84 
L 327.707539 224.84 
" style="fill: none; stroke: #2563eb; stroke-width: 1.8; stroke-linecap: round"/>
   </g>
   <g id="ai_path_2_0">
    <path d="M 278.28 222.84 
Q 278.28 319.86 278.28 416.88 
" style="fill: none; stroke: #2563eb; stroke-width: 1.8; stroke-linecap: round"/>
   </g>
   <g id="ai_path_2_1">
    <path d="M 278.28 416.88 
Q 306 416.88 331.707539 416.88 
" style="fill: none; stroke: #2563eb; stroke-width: 1.8; stroke-linecap: round"/>
    <path d="M 327.707539 414.88 
L 331.707539 416.88 
L 327.707539 418.88 
" style="fill: none; stroke: #2563eb; stroke-width: 1.8; stroke-linecap: round"/>
   </g>
   <g id="ai_path_3_0">
    <path d="M 195.12 264.42 
Q 264.42 264.42 331.707539 264.42 
" style="fill: none; stroke: #2563eb; stroke-width: 1.8; stroke-linecap: round"/>
    <path d="M 327.707539 262.42 
L 331.707539 264.42 
L 327.707539 266.42 
" style="fill: none; stroke: #2563eb; stroke-width: 1.8; stroke-linecap: round"/>
   </g>
   <g id="ai_path_4_0">
    <path d="M 195.12 308.772 
Q 264.42 308.772 331.707539 308.772 
" style="fill: none; stroke: #2563eb; stroke-width: 1.8; stroke-linecap: round"/>
    <path d="M 327.707539 306.772 
L 331.707539 308.772 
L 327.707539 310.772 
" style="fill: none; stroke: #2563eb; stroke-width: 1.8; stroke-linecap: round"/>
   </g>
   <g id="ai_path_5_0">
    <path d="M 195.12 353.124 
Q 264.42 353.124 331.707539 353.124 
" style="fill: none; stroke: #2563eb; stroke-width: 1.8; stroke-linecap: round"/>
    <path d="M 327.707539 351.124 
L 331.707539 353.124 
L 327.707539 355.124 
" style="fill: none; stroke: #2563eb; stroke-width: 1.8; stroke-linecap: round"/>
   </g>
   <g id="ai_path_6_0">
    <path d="M 222.84 458.46 
Q 278.28 458.46 331.707539 458.46 
" style="fill: none; stroke: #dc2626; stroke-width: 1.8; stroke-linecap: round"/>
    <path d="M 327.707539 456.46 
L 331.707539 458.46 
L 327.707539 460.46 
" style="fill: none; stroke: #dc2626; stroke-width: 1.8; stroke-linecap: round"/>
   </g>
   <g id="ai_path_7_0">
    <path d="M 222.84 502.812 
Q 278.28 502.812 331.707539 502.812 
" style="fill: none; stroke: #dc2626; stroke-width: 1.8; stroke-linecap: round"/>
    <path d="M 327.707539 500.812 
L 331.707539 502.812 
L 327.707539 504.812 
" style="fill: none; stroke: #dc2626; stroke-width: 1.8; stroke-linecap: round"/>
   </g>
   <g id="ai_path_8_0">
    <path d="M 222.84 547.164 
Q 278.28 547.164 331.707539 547.164 
" style="fill: none; stroke: #dc2626; stroke-width: 1.8; stroke-linecap: round"/>
    <path d="M 327.707539 545.164 
L 331.707539 547.164 
L 327.707539 549.164 
" style="fill: none; stroke: #dc2626; stroke-width: 1.8; stroke-linecap: round"/>
   </g>
   <g id="ai_path_9_0">
    <path d="M 444.6 278.28 
Q 486.18 278.28 525.747539 278.28 
" style="fill: none; stroke: #7c3aed; stroke-width: 1.8; stroke-linecap: round"/>
    <path d="M 521.747539 276.28 
L 525.747539 278.28 
L 521.747539 280.28 
" style="fill: none; stroke: #7c3aed; stroke-width: 1.8; stroke-linecap: round"/>
   </g>
   <g id="ai_path_10_0_0">
    <path d="M 583.2 333.72 
Q 624.78 333.72 664.347539 333.72 
" style="fill: none; stroke: #64748b; stroke-width: 1.8; stroke-linecap: round"/>
    <path d="M 660.347539 331.72 
L 664.347539 333.72 
L 660.347539 335.72 
" style="fill: none; stroke: #64748b; stroke-width: 1.8; stroke-linecap: round"/>
   </g>
   <g id="ai_path_10_1_0">
    <path d="M 583.2 300.456 
Q 624.78 300.456 664.347539 300.456 
" style="fill: none; stroke: #64748b; stroke-width: 1.8; stroke-linecap: round"/>
    <path d="M 660.347539 298.456 
L 664.347539 300.456 
L 660.347539 302.456 
" style="fill: none; stroke: #64748b; stroke-width: 1.8; stroke-linecap: round"/>
   </g>
   <g id="ai_path_10_2_0">
    <path d="M 583.2 267.192 
Q 624.78 267.192 664.347539 267.192 
" style="fill: none; stroke: #64748b; stroke-width: 1.8; stroke-linecap: round"/>
    <path d="M 660.347539 265.192 
L 664.347539 267.192 
L 660.347539 269.192 
" style="fill: none; stroke: #64748b; stroke-width: 1.8; stroke-linecap: round"/>
   </g>
   <g id="ai_path_10_3_0">
    <path d="M 583.2 233.928 
Q 624.78 233.928 664.347539 233.928 
" style="fill: none; stroke: #64748b; stroke-width: 1.8; stroke-linecap: round"/>
    <path d="M 660.347539 231.928 
L 664.347539 233.928 
L 660.347539 235.928 
" style="fill: none; stroke: #64748b; stroke-width: 1.8; stroke-linecap: round"/>
   </g>
   <g id="ai_path_11_0">
    <path d="M 721.8 278.28 
Q 749.52 278.28 775.227539 278.28 
" style="fill: none; stroke: #0e7490; stroke-width: 1.8; stroke-linecap: round"/>
    <path d="M 771.227539 276.28 
L 775.227539 278.28 
L 771.227539 280.28 
" style="fill: none; stroke: #0e7490; stroke-width: 1.8; stroke-linecap: round"/>
   </g>
   <g id="ai_path_12_0">
    <path d="M 860.4 278.28 
Q 915.84 278.28 969.267539 278.28 
" style="fill: none; stroke: #0e7490; stroke-width: 1.8; stroke-linecap: round"/>
    <path d="M 965.267539 276.28 
L 969.267539 278.28 
L 965.267539 280.28 
" style="fill: none; stroke: #0e7490; stroke-width: 1.8; stroke-linecap: round"/>
   </g>
   <g id="ai_path_13_0">
    <path d="M 444.6 472.32 
Q 707.94 472.32 971.28 472.32 
" style="fill: none; stroke: #7c3aed; stroke-width: 1.8; stroke-linecap: round"/>
   </g>
   <g id="ai_path_13_1">
    <path d="M 971.28 472.32 
Q 971.28 422.424 971.28 374.540461 
" style="fill: none; stroke: #7c3aed; stroke-width: 1.8; stroke-linecap: round"/>
    <path d="M 969.28 378.540461 
L 971.28 374.540461 
L 973.28 378.540461 
" style="fill: none; stroke: #7c3aed; stroke-width: 1.8; stroke-linecap: round"/>
   </g>
   <g id="ai_path_14_0">
    <path d="M 854.856 416.88 
Q 913.068 416.88 969.267539 416.88 
" style="fill: none; stroke: #475569; stroke-width: 1.8; stroke-linecap: round"/>
    <path d="M 965.267539 414.88 
L 969.267539 416.88 
L 965.267539 418.88 
" style="fill: none; stroke: #475569; stroke-width: 1.8; stroke-linecap: round"/>
   </g>
   <g id="ai_path_15_0">
    <path d="M 1165.32 261.648 
Q 1206.9 261.648 1246.467539 261.648 
" style="fill: none; stroke: #d97706; stroke-width: 1.8; stroke-linecap: round"/>
    <path d="M 1242.467539 259.648 
L 1246.467539 261.648 
L 1242.467539 263.648 
" style="fill: none; stroke: #d97706; stroke-width: 1.8; stroke-linecap: round"/>
   </g>
   <g id="ai_path_16_0">
    <path d="M 1165.32 344.808 
Q 1206.9 344.808 1246.467539 344.808 
" style="fill: none; stroke: #d97706; stroke-width: 1.8; stroke-linecap: round"/>
    <path d="M 1242.467539 342.808 
L 1246.467539 344.808 
L 1242.467539 346.808 
" style="fill: none; stroke: #d97706; stroke-width: 1.8; stroke-linecap: round"/>
   </g>
   <g id="text_25">
    <g id="patch_11">
     <path d="M 256.165313 220.492125 
L 272.674688 220.492125 
Q 274.474688 220.492125 274.474688 218.692125 
L 274.474688 210.355875 
Q 274.474688 208.555875 272.674688 208.555875 
L 256.165313 208.555875 
Q 254.365313 208.555875 254.365313 210.355875 
L 254.365313 218.692125 
Q 254.365313 220.492125 256.165313 220.492125 
z
" style="fill: #ffffff; opacity: 0.9"/>
    </g>
    <!-- Day -->
    <g style="fill: #2563eb" transform="translate(256.165313 216.797906) scale(0.09 -0.09)">
     <use xlink:href="#Arial-BoldMT-44"/>
     <use xlink:href="#Arial-BoldMT-61" transform="translate(72.216797 0)"/>
     <use xlink:href="#Arial-BoldMT-79" transform="translate(127.832031 0)"/>
    </g>
   </g>
   <g id="text_26">
    <g id="patch_12">
     <path d="M 903.015 284.189063 
L 928.665 284.189063 
Q 930.465 284.189063 930.465 282.389063 
L 930.465 274.170938 
Q 930.465 272.370938 928.665 272.370938 
L 903.015 272.370938 
Q 901.215 272.370938 901.215 274.170938 
L 901.215 282.389063 
Q 901.215 284.189063 903.015 284.189063 
z
" style="fill: #ffffff; opacity: 0.9"/>
    </g>
    <!-- $\mathrm{Row}_{\mathrm{cur}}$ -->
    <g style="fill: #0e7490" transform="translate(903.015 280.612969) scale(0.09 -0.09)">
     <defs>
      <path id="STIXGeneral-Regular-52" d="M 4224 0 
L 3187 0 
L 1664 1971 
L 1306 1958 
L 1306 717 
Q 1306 352 1405 249 
Q 1504 147 1875 122 
L 1875 0 
L 109 0 
L 109 122 
Q 474 154 563 262 
Q 653 371 653 794 
L 653 3526 
Q 653 3885 563 3987 
Q 474 4090 109 4115 
L 109 4237 
L 1850 4237 
Q 2726 4237 3187 3859 
Q 3501 3603 3501 3091 
Q 3501 2221 2342 2042 
L 3622 422 
Q 3757 256 3878 198 
Q 4000 141 4224 122 
L 4224 0 
z
M 1306 3731 
L 1306 2195 
Q 1766 2202 1990 2246 
Q 2214 2291 2438 2413 
Q 2803 2618 2803 3142 
Q 2803 4000 1632 4000 
Q 1459 4000 1382 3945 
Q 1306 3891 1306 3731 
z
" transform="scale(0.015625)"/>
      <path id="STIXGeneral-Regular-6f" d="M 3008 1478 
Q 3008 806 2608 371 
Q 2208 -64 1568 -64 
Q 979 -64 582 368 
Q 186 800 186 1459 
Q 186 2125 582 2534 
Q 979 2944 1626 2944 
Q 2221 2944 2614 2537 
Q 3008 2131 3008 1478 
z
M 2432 1306 
Q 2432 2035 2112 2445 
Q 1856 2765 1504 2765 
Q 1171 2765 966 2493 
Q 762 2221 762 1747 
Q 762 928 1101 435 
Q 1318 115 1677 115 
Q 2029 115 2230 432 
Q 2432 749 2432 1306 
z
" transform="scale(0.015625)"/>
      <path id="STIXGeneral-Regular-77" d="M 4442 2880 
L 4442 2784 
Q 4346 2752 4301 2691 
Q 4256 2630 4179 2438 
L 3296 224 
Q 3168 -90 3117 -90 
Q 3085 -90 3062 -48 
Q 3040 -6 2963 186 
L 2381 1696 
L 1664 160 
Q 1549 -90 1504 -90 
Q 1446 -90 1338 192 
L 474 2381 
Q 378 2630 314 2700 
Q 250 2771 134 2784 
L 134 2880 
L 1286 2880 
L 1286 2784 
Q 1120 2765 1056 2720 
Q 992 2675 992 2573 
Q 992 2477 1030 2381 
L 1664 710 
L 2246 1984 
L 2118 2342 
Q 2029 2598 1942 2681 
Q 1856 2765 1677 2784 
L 1677 2880 
L 2976 2880 
L 2976 2784 
Q 2752 2752 2678 2707 
Q 2605 2662 2605 2560 
Q 2605 2458 2714 2176 
L 3251 742 
L 3827 2163 
Q 3936 2432 3936 2592 
Q 3936 2669 3875 2710 
Q 3814 2752 3654 2784 
L 3654 2880 
L 4442 2880 
z
" transform="scale(0.015625)"/>
      <path id="STIXGeneral-Regular-63" d="M 2547 998 
L 2637 941 
Q 2362 403 2112 205 
Q 1786 -64 1376 -64 
Q 845 -64 502 336 
Q 160 736 160 1357 
Q 160 2170 698 2618 
Q 1094 2944 1562 2944 
Q 1965 2944 2256 2749 
Q 2547 2554 2547 2285 
Q 2547 2176 2457 2096 
Q 2368 2016 2246 2016 
Q 2022 2016 1939 2310 
L 1901 2451 
Q 1850 2630 1773 2694 
Q 1696 2758 1523 2758 
Q 1133 2758 893 2451 
Q 653 2144 653 1645 
Q 653 1094 928 745 
Q 1203 397 1645 397 
Q 1920 397 2118 528 
Q 2317 659 2547 998 
z
" transform="scale(0.015625)"/>
     </defs>
     <use xlink:href="#STIXGeneral-Regular-52" transform="translate(0 0.796875)"/>
     <use xlink:href="#STIXGeneral-Regular-6f" transform="translate(66.699997 0.796875)"/>
     <use xlink:href="#STIXGeneral-Regular-77" transform="translate(116.699982 0.796875)"/>
     <use xlink:href="#STIXGeneral-Regular-63" transform="translate(190.443245 -12.43125) scale(0.7)"/>
     <use xlink:href="#STIXGeneral-Regular-75" transform="translate(221.52324 -12.43125) scale(0.7)"/>
     <use xlink:href="#STIXGeneral-Regular-72" transform="translate(256.52323 -12.43125) scale(0.7)"/>
    </g>
   </g>
   <g id="text_27">
    <g id="patch_13">
     <path d="M 654.345 478.229063 
L 678.375 478.229063 
Q 680.175 478.229063 680.175 476.429063 
L 680.175 468.210938 
Q 680.175 466.410938 678.375 466.410938 
L 654.345 466.410938 
Q 652.545 466.410938 652.545 468.210938 
L 652.545 476.429063 
Q 652.545 478.229063 654.345 478.229063 
z
" style="fill: #ffffff; opacity: 0.9"/>
    </g>
    <!-- $\mathrm{Hist}_{\mathrm{init}}$ -->
    <g style="fill: #7c3aed" transform="translate(654.345 474.652969) scale(0.09 -0.09)">
     <defs>
      <path id="STIXGeneral-Regular-69" d="M 1152 4045 
Q 1152 3904 1056 3811 
Q 960 3718 819 3718 
Q 685 3718 592 3811 
Q 499 3904 499 4045 
Q 499 4179 595 4275 
Q 691 4371 826 4371 
Q 966 4371 1059 4275 
Q 1152 4179 1152 4045 
z
M 1619 0 
L 102 0 
L 102 96 
Q 435 115 521 211 
Q 608 307 608 666 
L 608 2118 
Q 608 2342 563 2432 
Q 518 2522 397 2522 
Q 243 2522 128 2490 
L 128 2592 
L 1120 2944 
L 1146 2918 
L 1146 672 
Q 1146 314 1226 218 
Q 1306 122 1619 96 
L 1619 0 
z
" transform="scale(0.015625)"/>
      <path id="STIXGeneral-Regular-73" d="M 998 1926 
L 1664 1523 
Q 1984 1331 2105 1164 
Q 2227 998 2227 736 
Q 2227 416 1961 176 
Q 1696 -64 1331 -64 
Q 1030 -64 864 -6 
Q 691 51 570 51 
Q 461 51 416 -26 
L 333 -26 
L 333 979 
L 435 979 
Q 538 512 730 294 
Q 922 77 1248 77 
Q 1485 77 1632 211 
Q 1779 346 1779 550 
Q 1779 845 1440 1030 
L 1094 1222 
Q 326 1651 326 2150 
Q 326 2522 566 2730 
Q 806 2938 1210 2938 
Q 1491 2938 1638 2867 
Q 1754 2816 1818 2816 
Q 1862 2816 1920 2880 
L 1990 2880 
L 2022 2010 
L 1926 2010 
Q 1818 2445 1654 2621 
Q 1491 2797 1203 2797 
Q 986 2797 854 2688 
Q 723 2579 723 2362 
Q 723 2253 796 2128 
Q 870 2003 998 1926 
z
" transform="scale(0.015625)"/>
      <path id="STIXGeneral-Regular-6e" d="M 3104 0 
L 1773 0 
L 1779 96 
Q 2016 115 2096 233 
Q 2176 352 2176 672 
L 2176 1946 
Q 2176 2592 1709 2592 
Q 1549 2592 1408 2515 
Q 1267 2438 1050 2227 
L 1050 461 
Q 1050 269 1136 192 
Q 1222 115 1466 96 
L 1466 0 
L 115 0 
L 115 96 
Q 358 115 435 214 
Q 512 314 512 602 
L 512 2157 
Q 512 2394 467 2483 
Q 422 2573 288 2573 
Q 160 2573 102 2547 
L 102 2656 
Q 550 2784 979 2944 
L 1030 2925 
L 1030 2426 
L 1037 2426 
Q 1491 2944 1958 2944 
Q 2323 2944 2518 2688 
Q 2714 2432 2714 1958 
L 2714 544 
Q 2714 288 2790 205 
Q 2867 122 3104 96 
L 3104 0 
z
" transform="scale(0.015625)"/>
     </defs>
     <use xlink:href="#STIXGeneral-Regular-48" transform="translate(0 0.703125)"/>
     <use xlink:href="#STIXGeneral-Regular-69" transform="translate(72.199982 0.703125)"/>
     <use xlink:href="#STIXGeneral-Regular-73" transform="translate(99.999969 0.703125)"/>
     <use xlink:href="#STIXGeneral-Regular-74" transform="translate(138.899963 0.703125)"/>
     <use xlink:href="#STIXGeneral-Regular-69" transform="translate(168.243232 -12.525) scale(0.7)"/>
     <use xlink:href="#STIXGeneral-Regular-6e" transform="translate(187.703224 -12.525) scale(0.7)"/>
     <use xlink:href="#STIXGeneral-Regular-69" transform="translate(222.703213 -12.525) scale(0.7)"/>
     <use xlink:href="#STIXGeneral-Regular-74" transform="translate(242.163205 -12.525) scale(0.7)"/>
    </g>
   </g>
   <g id="text_28">
    <g id="patch_14">
     <path d="M 902.644172 422.789063 
L 923.491828 422.789063 
Q 925.291828 422.789063 925.291828 420.989063 
L 925.291828 412.770938 
Q 925.291828 410.970938 923.491828 410.970938 
L 902.644172 410.970938 
Q 900.844172 410.970938 900.844172 412.770938 
L 900.844172 420.989063 
Q 900.844172 422.789063 902.644172 422.789063 
z
" style="fill: #ffffff; opacity: 0.9"/>
    </g>
    <!-- Time -->
    <g style="fill: #475569" transform="translate(902.644172 419.212969) scale(0.09 -0.09)">
     <use xlink:href="#Arial-BoldMT-54"/>
     <use xlink:href="#Arial-BoldMT-69" transform="translate(59.333984 0)"/>
     <use xlink:href="#Arial-BoldMT-6d" transform="translate(87.117188 0)"/>
     <use xlink:href="#Arial-BoldMT-65" transform="translate(176.033203 0)"/>
    </g>
   </g>
  </g>
 </g>
 <defs>
  <clipPath id="pd8aa4c1054">
   <rect x="28.8" y="28.8" width="1330.56" height="665.28"/>
  </clipPath>
 </defs>
</svg>
