<?xml version="1.0" encoding="utf-8" standalone="no"?>
<!DOCTYPE svg PUBLIC "-//W3C//DTD SVG 1.1//EN"
  "http://www.w3.org/Graphics/SVG/1.1/DTD/svg11.dtd">
<svg xmlns:xlink="http://www.w3.org/1999/xlink" width="1166.4pt" height="501.12pt" viewBox="0 0 1166.4 501.12" xmlns="http://www.w3.org/2000/svg" version="1.1">
 <metadata>
  <rdf:RDF xmlns:dc="http://purl.org/dc/elements/1.1/" xmlns:cc="http://creativecommons.org/ns#" xmlns:rdf="http://www.w3.org/1999/02/22-rdf-syntax-ns#">
   <cc:Work>
    <dc:type rdf:resource="http://purl.org/dc/dcmitype/StillImage"/>
    <dc:date>2026-05-15T22:42:31.169430</dc:date>
    <dc:format>image/svg+xml</dc:format>
    <dc:creator>
     <cc:Agent>
      <dc:title>Matplotlib v3.10.8, https://matplotlib.org/</dc:title>
     </cc:Agent>
    </dc:creator>
   </cc:Work>
  </rdf:RDF>
 </metadata>
 <defs>
  <style type="text/css">*{stroke-linejoin: round; stroke-linecap: butt}</style>
 </defs>
 <g id="figure_1">
  <g id="patch_1">
   <path d="M 0 501.12 
L 1166.4 501.12 
L 1166.4 0 
L 0 0 
z
" style="fill: #ffffff"/>
  </g>
  <g id="axes_1">
   <g id="patch_2">
    <path d="M 89.784 236.7 
L 172.944 236.7 
Q 181.26 236.7 181.26 228.384 
L 181.26 172.944 
Q 181.26 164.628 172.944 164.628 
L 89.784 164.628 
Q 81.468 164.628 81.468 172.944 
L 81.468 228.384 
Q 81.468 236.7 89.784 236.7 
z
" clip-path="url(#p4eae53df21)" style="fill: #94a3b8; opacity: 0.3"/>
   </g>
   <g id="patch_3">
    <path d="M 89.784 347.58 
L 172.944 347.58 
Q 181.26 347.58 181.26 339.264 
L 181.26 283.824 
Q 181.26 275.508 172.944 275.508 
L 89.784 275.508 
Q 81.468 275.508 81.468 283.824 
L 81.468 339.264 
Q 81.468 347.58 89.784 347.58 
z
" clip-path="url(#p4eae53df21)" style="fill: #94a3b8; opacity: 0.3"/>
   </g>
   <g id="patch_4">
    <path d="M 616.464 308.772 
L 727.344 308.772 
Q 735.66 308.772 735.66 300.456 
L 735.66 211.752 
Q 735.66 203.436 727.344 203.436 
L 616.464 203.436 
Q 608.148 203.436 608.148 211.752 
L 608.148 300.456 
Q 608.148 308.772 616.464 308.772 
z
" clip-path="url(#p4eae53df21)" style="fill: #94a3b8; opacity: 0.3"/>
   </g>
   <g id="patch_5">
    <path d="M 810.504 308.772 
L 921.384 308.772 
Q 929.7 308.772 929.7 300.456 
L 929.7 211.752 
Q 929.7 203.436 921.384 203.436 
L 810.504 203.436 
Q 802.188 203.436 802.188 211.752 
L 802.188 300.456 
Q 802.188 308.772 810.504 308.772 
z
" clip-path="url(#p4eae53df21)" style="fill: #94a3b8; opacity: 0.3"/>
   </g>
   <g id="patch_6">
    <path d="M 1004.544 297.684 
L 1115.424 297.684 
Q 1123.74 297.684 1123.74 289.368 
L 1123.74 222.84 
Q 1123.74 214.524 1115.424 214.524 
L 1004.544 214.524 
Q 996.228 214.524 996.228 222.84 
L 996.228 289.368 
Q 996.228 297.684 1004.544 297.684 
z
" clip-path="url(#p4eae53df21)" style="fill: #94a3b8; opacity: 0.3"/>
   </g>
   <g id="wt_qin">
    <path d="M 84.24 231.156 
L 167.4 231.156 
Q 175.716 231.156 175.716 222.84 
L 175.716 167.4 
Q 175.716 159.084 167.4 159.084 
L 84.24 159.084 
Q 75.924 159.084 75.924 167.4 
L 75.924 222.84 
Q 75.924 231.156 84.24 231.156 
z
" clip-path="url(#p4eae53df21)" style="fill: #eff6ff; stroke: #2563eb; stroke-width: 2; stroke-linejoin: miter"/>
   </g>
   <g id="wt_qout">
    <path d="M 84.24 342.036 
L 167.4 342.036 
Q 175.716 342.036 175.716 333.72 
L 175.716 278.28 
Q 175.716 269.964 167.4 269.964 
L 84.24 269.964 
Q 75.924 269.964 75.924 278.28 
L 75.924 333.72 
Q 75.924 342.036 84.24 342.036 
z
" clip-path="url(#p4eae53df21)" style="fill: #eff6ff; stroke: #2563eb; stroke-width: 2; stroke-linejoin: miter"/>
   </g>
   <g id="wt_sum">
    <path d="M 278.28 289.368 
C 288.572002 289.368 298.443856 285.278944 305.7214 278.0014 
C 312.998944 270.723856 317.088 260.852002 317.088 250.56 
C 317.088 240.267998 312.998944 230.396144 305.7214 223.1186 
C 298.443856 215.841056 288.572002 211.752 278.28 211.752 
C 267.987998 211.752 258.116144 215.841056 250.8386 223.1186 
C 243.561056 230.396144 239.472 240.267998 239.472 250.56 
C 239.472 260.852002 243.561056 270.723856 250.8386 278.0014 
C 258.116144 285.278944 267.987998 289.368 278.28 289.368 
z
" clip-path="url(#p4eae53df21)" style="fill: #ffffff; stroke: #059669; stroke-width: 2; stroke-linejoin: miter"/>
   </g>
   <g id="wt_gain">
    <path d="M 389.16 294.912 
L 527.76 250.56 
L 389.16 206.208 
z
" clip-path="url(#p4eae53df21)" style="fill: #ffffff; stroke: #059669; stroke-width: 2; stroke-linejoin: miter"/>
   </g>
   <g id="wt_int">
    <path d="M 610.92 303.228 
L 721.8 303.228 
Q 730.116 303.228 730.116 294.912 
L 730.116 206.208 
Q 730.116 197.892 721.8 197.892 
L 610.92 197.892 
Q 602.604 197.892 602.604 206.208 
L 602.604 294.912 
Q 602.604 303.228 610.92 303.228 
z
" clip-path="url(#p4eae53df21)" style="fill: #eff6ff; stroke: #2563eb; stroke-width: 2; stroke-linejoin: miter"/>
   </g>
   <g id="wt_sat">
    <path d="M 804.96 303.228 
L 915.84 303.228 
Q 924.156 303.228 924.156 294.912 
L 924.156 206.208 
Q 924.156 197.892 915.84 197.892 
L 804.96 197.892 
Q 796.644 197.892 796.644 206.208 
L 796.644 294.912 
Q 796.644 303.228 804.96 303.228 
z
" clip-path="url(#p4eae53df21)" style="fill: #faf5ff; stroke: #9333ea; stroke-width: 2; stroke-linejoin: miter"/>
   </g>
   <g id="wt_ht">
    <path d="M 999 292.14 
L 1109.88 292.14 
Q 1118.196 292.14 1118.196 283.824 
L 1118.196 217.296 
Q 1118.196 208.98 1109.88 208.98 
L 999 208.98 
Q 990.684 208.98 990.684 217.296 
L 990.684 283.824 
Q 990.684 292.14 999 292.14 
z
" clip-path="url(#p4eae53df21)" style="fill: #d1fae5; stroke: #059669; stroke-width: 2; stroke-linejoin: miter"/>
   </g>
   <g id="patch_7">
    <path d="M 250.56 455.688 
L 915.84 455.688 
Q 926.928 455.688 926.928 444.6 
L 926.928 378.072 
Q 926.928 366.984 915.84 366.984 
L 250.56 366.984 
Q 239.472 366.984 239.472 378.072 
L 239.472 444.6 
Q 239.472 455.688 250.56 455.688 
z
" clip-path="url(#p4eae53df21)" style="fill: #f8fafc; stroke: #cbd5e1; stroke-width: 1.5; stroke-linejoin: miter"/>
   </g>
   <g id="text_1">
    <!-- Water Tank Model  —  Mass Balance Subsystem -->
    <g style="fill: #0284c7" transform="translate(355.367188 73.152) scale(0.2 -0.2)">
     <defs>
      <path id="Arial-BoldMT-57" d="M 1116 0 
L 22 4581 
L 969 4581 
L 1659 1434 
L 2497 4581 
L 3597 4581 
L 4400 1381 
L 5103 4581 
L 6034 4581 
L 4922 0 
L 3941 0 
L 3028 3425 
L 2119 0 
L 1116 0 
z
" transform="scale(0.015625)"/>
      <path id="Arial-BoldMT-61" d="M 1116 2306 
L 319 2450 
Q 453 2931 781 3162 
Q 1109 3394 1756 3394 
Q 2344 3394 2631 3255 
Q 2919 3116 3036 2902 
Q 3153 2688 3153 2116 
L 3144 1091 
Q 3144 653 3186 445 
Q 3228 238 3344 0 
L 2475 0 
Q 2441 88 2391 259 
Q 2369 338 2359 363 
Q 2134 144 1878 34 
Q 1622 -75 1331 -75 
Q 819 -75 523 203 
Q 228 481 228 906 
Q 228 1188 362 1408 
Q 497 1628 739 1745 
Q 981 1863 1438 1950 
Q 2053 2066 2291 2166 
L 2291 2253 
Q 2291 2506 2166 2614 
Q 2041 2722 1694 2722 
Q 1459 2722 1328 2630 
Q 1197 2538 1116 2306 
z
M 2291 1594 
Q 2122 1538 1756 1459 
Q 1391 1381 1278 1306 
Q 1106 1184 1106 997 
Q 1106 813 1243 678 
Q 1381 544 1594 544 
Q 1831 544 2047 700 
Q 2206 819 2256 991 
Q 2291 1103 2291 1419 
L 2291 1594 
z
" transform="scale(0.015625)"/>
      <path id="Arial-BoldMT-74" d="M 1981 3319 
L 1981 2619 
L 1381 2619 
L 1381 1281 
Q 1381 875 1398 808 
Q 1416 741 1477 697 
Q 1538 653 1625 653 
Q 1747 653 1978 738 
L 2053 56 
Q 1747 -75 1359 -75 
Q 1122 -75 931 4 
Q 741 84 652 211 
Q 563 338 528 553 
Q 500 706 500 1172 
L 500 2619 
L 97 2619 
L 97 3319 
L 500 3319 
L 500 3978 
L 1381 4491 
L 1381 3319 
L 1981 3319 
z
" transform="scale(0.015625)"/>
      <path id="Arial-BoldMT-65" d="M 2381 1056 
L 3256 909 
Q 3088 428 2723 176 
Q 2359 -75 1813 -75 
Q 947 -75 531 491 
Q 203 944 203 1634 
Q 203 2459 634 2926 
Q 1066 3394 1725 3394 
Q 2466 3394 2894 2905 
Q 3322 2416 3303 1406 
L 1103 1406 
Q 1113 1016 1316 798 
Q 1519 581 1822 581 
Q 2028 581 2168 693 
Q 2309 806 2381 1056 
z
M 2431 1944 
Q 2422 2325 2234 2523 
Q 2047 2722 1778 2722 
Q 1491 2722 1303 2513 
Q 1116 2303 1119 1944 
L 2431 1944 
z
" transform="scale(0.015625)"/>
      <path id="Arial-BoldMT-72" d="M 1300 0 
L 422 0 
L 422 3319 
L 1238 3319 
L 1238 2847 
Q 1447 3181 1614 3287 
Q 1781 3394 1994 3394 
Q 2294 3394 2572 3228 
L 2300 2463 
Q 2078 2606 1888 2606 
Q 1703 2606 1575 2504 
Q 1447 2403 1373 2137 
Q 1300 1872 1300 1025 
L 1300 0 
z
" transform="scale(0.015625)"/>
      <path id="Arial-BoldMT-20" transform="scale(0.015625)"/>
      <path id="Arial-BoldMT-54" d="M 1497 0 
L 1497 3806 
L 138 3806 
L 138 4581 
L 3778 4581 
L 3778 3806 
L 2422 3806 
L 2422 0 
L 1497 0 
z
" transform="scale(0.015625)"/>
      <path id="Arial-BoldMT-6e" d="M 3478 0 
L 2600 0 
L 2600 1694 
Q 2600 2231 2544 2389 
Q 2488 2547 2361 2634 
Q 2234 2722 2056 2722 
Q 1828 2722 1647 2597 
Q 1466 2472 1398 2265 
Q 1331 2059 1331 1503 
L 1331 0 
L 453 0 
L 453 3319 
L 1269 3319 
L 1269 2831 
Q 1703 3394 2363 3394 
Q 2653 3394 2893 3289 
Q 3134 3184 3257 3021 
Q 3381 2859 3429 2653 
Q 3478 2447 3478 2063 
L 3478 0 
z
" transform="scale(0.015625)"/>
      <path id="Arial-BoldMT-6b" d="M 428 0 
L 428 4581 
L 1306 4581 
L 1306 2150 
L 2334 3319 
L 3416 3319 
L 2281 2106 
L 3497 0 
L 2550 0 
L 1716 1491 
L 1306 1063 
L 1306 0 
L 428 0 
z
" transform="scale(0.015625)"/>
      <path id="Arial-BoldMT-4d" d="M 453 0 
L 453 4581 
L 1838 4581 
L 2669 1456 
L 3491 4581 
L 4878 4581 
L 4878 0 
L 4019 0 
L 4019 3606 
L 3109 0 
L 2219 0 
L 1313 3606 
L 1313 0 
L 453 0 
z
" transform="scale(0.015625)"/>
      <path id="Arial-BoldMT-6f" d="M 256 1706 
Q 256 2144 472 2553 
Q 688 2963 1083 3178 
Q 1478 3394 1966 3394 
Q 2719 3394 3200 2905 
Q 3681 2416 3681 1669 
Q 3681 916 3195 420 
Q 2709 -75 1972 -75 
Q 1516 -75 1102 131 
Q 688 338 472 736 
Q 256 1134 256 1706 
z
M 1156 1659 
Q 1156 1166 1390 903 
Q 1625 641 1969 641 
Q 2313 641 2545 903 
Q 2778 1166 2778 1666 
Q 2778 2153 2545 2415 
Q 2313 2678 1969 2678 
Q 1625 2678 1390 2415 
Q 1156 2153 1156 1659 
z
" transform="scale(0.015625)"/>
      <path id="Arial-BoldMT-64" d="M 3503 0 
L 2688 0 
L 2688 488 
Q 2484 203 2207 64 
Q 1931 -75 1650 -75 
Q 1078 -75 670 386 
Q 263 847 263 1672 
Q 263 2516 659 2955 
Q 1056 3394 1663 3394 
Q 2219 3394 2625 2931 
L 2625 4581 
L 3503 4581 
L 3503 0 
z
M 1159 1731 
Q 1159 1200 1306 963 
Q 1519 619 1900 619 
Q 2203 619 2415 876 
Q 2628 1134 2628 1647 
Q 2628 2219 2422 2470 
Q 2216 2722 1894 2722 
Q 1581 2722 1370 2473 
Q 1159 2225 1159 1731 
z
" transform="scale(0.015625)"/>
      <path id="Arial-BoldMT-6c" d="M 459 0 
L 459 4581 
L 1338 4581 
L 1338 0 
L 459 0 
z
" transform="scale(0.015625)"/>
      <path id="Arial-BoldMT-2014" d="M 0 1331 
L 0 1988 
L 6400 1988 
L 6400 1331 
L 0 1331 
z
" transform="scale(0.015625)"/>
      <path id="Arial-BoldMT-73" d="M 150 947 
L 1031 1081 
Q 1088 825 1259 692 
Q 1431 559 1741 559 
Q 2081 559 2253 684 
Q 2369 772 2369 919 
Q 2369 1019 2306 1084 
Q 2241 1147 2013 1200 
Q 950 1434 666 1628 
Q 272 1897 272 2375 
Q 272 2806 612 3100 
Q 953 3394 1669 3394 
Q 2350 3394 2681 3172 
Q 3013 2950 3138 2516 
L 2309 2363 
Q 2256 2556 2107 2659 
Q 1959 2763 1684 2763 
Q 1338 2763 1188 2666 
Q 1088 2597 1088 2488 
Q 1088 2394 1175 2328 
Q 1294 2241 1995 2081 
Q 2697 1922 2975 1691 
Q 3250 1456 3250 1038 
Q 3250 581 2869 253 
Q 2488 -75 1741 -75 
Q 1063 -75 667 200 
Q 272 475 150 947 
z
" transform="scale(0.015625)"/>
      <path id="Arial-BoldMT-42" d="M 469 4581 
L 2300 4581 
Q 2844 4581 3111 4536 
Q 3378 4491 3589 4347 
Q 3800 4203 3940 3964 
Q 4081 3725 4081 3428 
Q 4081 3106 3907 2837 
Q 3734 2569 3438 2434 
Q 3856 2313 4081 2019 
Q 4306 1725 4306 1328 
Q 4306 1016 4161 720 
Q 4016 425 3764 248 
Q 3513 72 3144 31 
Q 2913 6 2028 0 
L 469 0 
L 469 4581 
z
M 1394 3819 
L 1394 2759 
L 2000 2759 
Q 2541 2759 2672 2775 
Q 2909 2803 3045 2939 
Q 3181 3075 3181 3297 
Q 3181 3509 3064 3642 
Q 2947 3775 2716 3803 
Q 2578 3819 1925 3819 
L 1394 3819 
z
M 1394 1997 
L 1394 772 
L 2250 772 
Q 2750 772 2884 800 
Q 3091 838 3220 983 
Q 3350 1128 3350 1372 
Q 3350 1578 3250 1722 
Q 3150 1866 2961 1931 
Q 2772 1997 2141 1997 
L 1394 1997 
z
" transform="scale(0.015625)"/>
      <path id="Arial-BoldMT-63" d="M 3353 2338 
L 2488 2181 
Q 2444 2441 2289 2572 
Q 2134 2703 1888 2703 
Q 1559 2703 1364 2476 
Q 1169 2250 1169 1719 
Q 1169 1128 1367 884 
Q 1566 641 1900 641 
Q 2150 641 2309 783 
Q 2469 925 2534 1272 
L 3397 1125 
Q 3263 531 2881 228 
Q 2500 -75 1859 -75 
Q 1131 -75 698 384 
Q 266 844 266 1656 
Q 266 2478 700 2936 
Q 1134 3394 1875 3394 
Q 2481 3394 2839 3133 
Q 3197 2872 3353 2338 
z
" transform="scale(0.015625)"/>
      <path id="Arial-BoldMT-53" d="M 231 1491 
L 1131 1578 
Q 1213 1125 1461 912 
Q 1709 700 2131 700 
Q 2578 700 2804 889 
Q 3031 1078 3031 1331 
Q 3031 1494 2936 1608 
Q 2841 1722 2603 1806 
Q 2441 1863 1863 2006 
Q 1119 2191 819 2459 
Q 397 2838 397 3381 
Q 397 3731 595 4036 
Q 794 4341 1167 4500 
Q 1541 4659 2069 4659 
Q 2931 4659 3367 4281 
Q 3803 3903 3825 3272 
L 2900 3231 
Q 2841 3584 2645 3739 
Q 2450 3894 2059 3894 
Q 1656 3894 1428 3728 
Q 1281 3622 1281 3444 
Q 1281 3281 1419 3166 
Q 1594 3019 2269 2859 
Q 2944 2700 3267 2529 
Q 3591 2359 3773 2064 
Q 3956 1769 3956 1334 
Q 3956 941 3737 597 
Q 3519 253 3119 86 
Q 2719 -81 2122 -81 
Q 1253 -81 787 320 
Q 322 722 231 1491 
z
" transform="scale(0.015625)"/>
      <path id="Arial-BoldMT-75" d="M 2644 0 
L 2644 497 
Q 2463 231 2167 78 
Q 1872 -75 1544 -75 
Q 1209 -75 943 72 
Q 678 219 559 484 
Q 441 750 441 1219 
L 441 3319 
L 1319 3319 
L 1319 1794 
Q 1319 1094 1367 936 
Q 1416 778 1544 686 
Q 1672 594 1869 594 
Q 2094 594 2272 717 
Q 2450 841 2515 1023 
Q 2581 1206 2581 1919 
L 2581 3319 
L 3459 3319 
L 3459 0 
L 2644 0 
z
" transform="scale(0.015625)"/>
      <path id="Arial-BoldMT-62" d="M 422 0 
L 422 4581 
L 1300 4581 
L 1300 2931 
Q 1706 3394 2263 3394 
Q 2869 3394 3266 2955 
Q 3663 2516 3663 1694 
Q 3663 844 3258 384 
Q 2853 -75 2275 -75 
Q 1991 -75 1714 67 
Q 1438 209 1238 488 
L 1238 0 
L 422 0 
z
M 1294 1731 
Q 1294 1216 1456 969 
Q 1684 619 2063 619 
Q 2353 619 2558 867 
Q 2763 1116 2763 1650 
Q 2763 2219 2556 2470 
Q 2350 2722 2028 2722 
Q 1713 2722 1503 2476 
Q 1294 2231 1294 1731 
z
" transform="scale(0.015625)"/>
      <path id="Arial-BoldMT-79" d="M 44 3319 
L 978 3319 
L 1772 963 
L 2547 3319 
L 3456 3319 
L 2284 125 
L 2075 -453 
Q 1959 -744 1854 -897 
Q 1750 -1050 1614 -1145 
Q 1478 -1241 1279 -1294 
Q 1081 -1347 831 -1347 
Q 578 -1347 334 -1294 
L 256 -606 
Q 463 -647 628 -647 
Q 934 -647 1081 -467 
Q 1228 -288 1306 -9 
L 44 3319 
z
" transform="scale(0.015625)"/>
      <path id="Arial-BoldMT-6d" d="M 394 3319 
L 1203 3319 
L 1203 2866 
Q 1638 3394 2238 3394 
Q 2556 3394 2790 3262 
Q 3025 3131 3175 2866 
Q 3394 3131 3647 3262 
Q 3900 3394 4188 3394 
Q 4553 3394 4806 3245 
Q 5059 3097 5184 2809 
Q 5275 2597 5275 2122 
L 5275 0 
L 4397 0 
L 4397 1897 
Q 4397 2391 4306 2534 
Q 4184 2722 3931 2722 
Q 3747 2722 3584 2609 
Q 3422 2497 3350 2280 
Q 3278 2063 3278 1594 
L 3278 0 
L 2400 0 
L 2400 1819 
Q 2400 2303 2353 2443 
Q 2306 2584 2207 2653 
Q 2109 2722 1941 2722 
Q 1738 2722 1575 2612 
Q 1413 2503 1342 2297 
Q 1272 2091 1272 1613 
L 1272 0 
L 394 0 
L 394 3319 
z
" transform="scale(0.015625)"/>
     </defs>
     <use xlink:href="#Arial-BoldMT-57"/>
     <use xlink:href="#Arial-BoldMT-61" transform="translate(90.634766 0)"/>
     <use xlink:href="#Arial-BoldMT-74" transform="translate(146.25 0)"/>
     <use xlink:href="#Arial-BoldMT-65" transform="translate(179.550781 0)"/>
     <use xlink:href="#Arial-BoldMT-72" transform="translate(235.166016 0)"/>
     <use xlink:href="#Arial-BoldMT-20" transform="translate(274.082031 0)"/>
     <use xlink:href="#Arial-BoldMT-54" transform="translate(301.865234 0)"/>
     <use xlink:href="#Arial-BoldMT-61" transform="translate(355.574219 0)"/>
     <use xlink:href="#Arial-BoldMT-6e" transform="translate(411.189453 0)"/>
     <use xlink:href="#Arial-BoldMT-6b" transform="translate(472.273438 0)"/>
     <use xlink:href="#Arial-BoldMT-20" transform="translate(527.888672 0)"/>
     <use xlink:href="#Arial-BoldMT-4d" transform="translate(555.671875 0)"/>
     <use xlink:href="#Arial-BoldMT-6f" transform="translate(638.972656 0)"/>
     <use xlink:href="#Arial-BoldMT-64" transform="translate(700.056641 0)"/>
     <use xlink:href="#Arial-BoldMT-65" transform="translate(761.140625 0)"/>
     <use xlink:href="#Arial-BoldMT-6c" transform="translate(816.755859 0)"/>
     <use xlink:href="#Arial-BoldMT-20" transform="translate(844.539062 0)"/>
     <use xlink:href="#Arial-BoldMT-20" transform="translate(872.322266 0)"/>
     <use xlink:href="#Arial-BoldMT-2014" transform="translate(900.105469 0)"/>
     <use xlink:href="#Arial-BoldMT-20" transform="translate(1000.105469 0)"/>
     <use xlink:href="#Arial-BoldMT-20" transform="translate(1027.888672 0)"/>
     <use xlink:href="#Arial-BoldMT-4d" transform="translate(1055.671875 0)"/>
     <use xlink:href="#Arial-BoldMT-61" transform="translate(1138.972656 0)"/>
     <use xlink:href="#Arial-BoldMT-73" transform="translate(1194.587891 0)"/>
     <use xlink:href="#Arial-BoldMT-73" transform="translate(1250.203125 0)"/>
     <use xlink:href="#Arial-BoldMT-20" transform="translate(1305.818359 0)"/>
     <use xlink:href="#Arial-BoldMT-42" transform="translate(1333.601562 0)"/>
     <use xlink:href="#Arial-BoldMT-61" transform="translate(1405.818359 0)"/>
     <use xlink:href="#Arial-BoldMT-6c" transform="translate(1461.433594 0)"/>
     <use xlink:href="#Arial-BoldMT-61" transform="translate(1489.216797 0)"/>
     <use xlink:href="#Arial-BoldMT-6e" transform="translate(1544.832031 0)"/>
     <use xlink:href="#Arial-BoldMT-63" transform="translate(1605.916016 0)"/>
     <use xlink:href="#Arial-BoldMT-65" transform="translate(1661.53125 0)"/>
     <use xlink:href="#Arial-BoldMT-20" transform="translate(1717.146484 0)"/>
     <use xlink:href="#Arial-BoldMT-53" transform="translate(1744.929688 0)"/>
     <use xlink:href="#Arial-BoldMT-75" transform="translate(1811.628906 0)"/>
     <use xlink:href="#Arial-BoldMT-62" transform="translate(1872.712891 0)"/>
     <use xlink:href="#Arial-BoldMT-73" transform="translate(1933.796875 0)"/>
     <use xlink:href="#Arial-BoldMT-79" transform="translate(1989.412109 0)"/>
     <use xlink:href="#Arial-BoldMT-73" transform="translate(2045.027344 0)"/>
     <use xlink:href="#Arial-BoldMT-74" transform="translate(2100.642578 0)"/>
     <use xlink:href="#Arial-BoldMT-65" transform="translate(2133.943359 0)"/>
     <use xlink:href="#Arial-BoldMT-6d" transform="translate(2189.558594 0)"/>
    </g>
   </g>
   <g id="text_2">
    <!-- $\dfrac{dH}{dt} = \dfrac{Q_{\mathrm{in}} - Q_{\mathrm{out}}}{A}$$\quad|\quad H(0) = 4\,\mathrm{m} \quad|\quad 0 \leq H \leq H_{\max}$ -->
    <g style="fill: #475569" transform="translate(449.57 111.96) scale(0.14 -0.14)">
     <defs>
      <path id="STIXGeneral-Italic-64" d="M 3334 4371 
L 3373 4333 
L 3123 3360 
L 2739 1958 
Q 2323 429 2323 384 
Q 2323 256 2438 256 
Q 2522 256 2614 336 
Q 2707 416 2963 710 
L 3040 646 
Q 2547 -83 2099 -83 
Q 1978 -83 1907 -6 
Q 1837 70 1837 205 
Q 1837 397 1920 774 
Q 1645 307 1379 118 
Q 1114 -70 781 -70 
Q 461 -70 278 125 
Q 96 320 96 678 
Q 96 1440 713 2131 
Q 1331 2822 1965 2822 
Q 2163 2822 2256 2732 
Q 2349 2643 2381 2451 
L 2387 2451 
L 2675 3494 
Q 2765 3808 2765 3949 
Q 2765 4051 2694 4076 
Q 2624 4102 2355 4115 
L 2355 4224 
Q 2848 4269 3334 4371 
z
M 2278 2310 
Q 2278 2477 2185 2576 
Q 2093 2675 1978 2675 
Q 1677 2675 1395 2381 
Q 1075 2042 864 1571 
Q 653 1101 653 704 
Q 653 486 752 361 
Q 851 237 1024 237 
Q 1312 237 1606 550 
Q 1901 864 2089 1350 
Q 2278 1837 2278 2310 
z
" transform="scale(0.015625)"/>
      <path id="STIXGeneral-Italic-48" d="M 4922 4179 
L 4922 4077 
Q 4640 4026 4550 3949 
Q 4461 3872 4384 3603 
L 3539 525 
Q 3520 448 3520 371 
Q 3520 237 3616 185 
Q 3712 134 4026 102 
L 4026 0 
L 2272 0 
L 2272 102 
Q 2598 128 2729 237 
Q 2861 346 2925 595 
L 3334 2086 
L 1510 2086 
L 1088 525 
Q 1069 461 1069 384 
Q 1069 243 1149 192 
Q 1229 141 1517 102 
L 1517 0 
L -51 0 
L -51 102 
Q 211 128 310 230 
Q 410 333 499 653 
L 1254 3405 
Q 1331 3699 1331 3814 
Q 1331 3949 1238 3997 
Q 1146 4045 838 4077 
L 838 4179 
L 2573 4179 
L 2573 4077 
Q 2285 4058 2141 3955 
Q 1997 3853 1933 3622 
L 1587 2355 
L 3411 2355 
L 3706 3405 
Q 3795 3738 3795 3808 
Q 3795 3930 3692 3994 
Q 3590 4058 3334 4077 
L 3334 4179 
L 4922 4179 
z
" transform="scale(0.015625)"/>
      <path id="STIXGeneral-Italic-74" d="M 1894 2739 
L 1862 2534 
L 1325 2534 
L 768 435 
Q 755 384 755 346 
Q 755 243 851 243 
Q 928 243 1030 342 
Q 1133 442 1370 749 
L 1453 704 
Q 1158 256 969 93 
Q 781 -70 538 -70 
Q 243 -70 243 166 
Q 243 230 346 640 
L 845 2534 
L 365 2534 
L 358 2573 
Q 358 2688 570 2733 
Q 730 2771 992 2979 
Q 1254 3187 1421 3437 
Q 1459 3494 1510 3494 
Q 1568 3494 1568 3443 
Q 1568 3411 1562 3398 
L 1382 2739 
L 1894 2739 
z
" transform="scale(0.015625)"/>
      <path id="STIXGeneral-Regular-3d" d="M 4077 2048 
L 307 2048 
L 307 2470 
L 4077 2470 
L 4077 2048 
z
M 4077 768 
L 307 768 
L 307 1190 
L 4077 1190 
L 4077 768 
z
" transform="scale(0.015625)"/>
      <path id="STIXGeneral-Italic-51" d="M 442 -1082 
L 378 -979 
Q 749 -717 912 -589 
Q 1075 -461 1510 -77 
Q 966 32 675 425 
Q 384 819 384 1440 
Q 384 2035 678 2624 
Q 973 3213 1491 3661 
Q 2202 4262 3034 4262 
Q 3680 4262 4077 3833 
Q 4474 3405 4474 2746 
Q 4474 1997 4019 1277 
Q 3565 557 2835 173 
Q 2400 -64 1786 -102 
L 1440 -467 
L 1600 -467 
Q 1824 -467 2387 -595 
Q 2938 -730 3098 -730 
Q 3443 -730 3673 -624 
Q 3904 -518 4173 -237 
L 4275 -307 
Q 4122 -525 3942 -685 
Q 3411 -1165 2720 -1165 
Q 2298 -1165 1773 -998 
Q 1421 -883 1178 -883 
Q 800 -883 442 -1082 
z
M 3802 3072 
Q 3802 3526 3581 3788 
Q 3360 4051 2976 4051 
Q 2272 4051 1734 3251 
Q 1446 2822 1251 2230 
Q 1056 1638 1056 1171 
Q 1056 691 1273 400 
Q 1491 109 1850 109 
Q 2579 109 3117 902 
Q 3411 1350 3606 1964 
Q 3802 2579 3802 3072 
z
" transform="scale(0.015625)"/>
      <path id="STIXGeneral-Regular-69" d="M 1152 4045 
Q 1152 3904 1056 3811 
Q 960 3718 819 3718 
Q 685 3718 592 3811 
Q 499 3904 499 4045 
Q 499 4179 595 4275 
Q 691 4371 826 4371 
Q 966 4371 1059 4275 
Q 1152 4179 1152 4045 
z
M 1619 0 
L 102 0 
L 102 96 
Q 435 115 521 211 
Q 608 307 608 666 
L 608 2118 
Q 608 2342 563 2432 
Q 518 2522 397 2522 
Q 243 2522 128 2490 
L 128 2592 
L 1120 2944 
L 1146 2918 
L 1146 672 
Q 1146 314 1226 218 
Q 1306 122 1619 96 
L 1619 0 
z
" transform="scale(0.015625)"/>
      <path id="STIXGeneral-Regular-6e" d="M 3104 0 
L 1773 0 
L 1779 96 
Q 2016 115 2096 233 
Q 2176 352 2176 672 
L 2176 1946 
Q 2176 2592 1709 2592 
Q 1549 2592 1408 2515 
Q 1267 2438 1050 2227 
L 1050 461 
Q 1050 269 1136 192 
Q 1222 115 1466 96 
L 1466 0 
L 115 0 
L 115 96 
Q 358 115 435 214 
Q 512 314 512 602 
L 512 2157 
Q 512 2394 467 2483 
Q 422 2573 288 2573 
Q 160 2573 102 2547 
L 102 2656 
Q 550 2784 979 2944 
L 1030 2925 
L 1030 2426 
L 1037 2426 
Q 1491 2944 1958 2944 
Q 2323 2944 2518 2688 
Q 2714 2432 2714 1958 
L 2714 544 
Q 2714 288 2790 205 
Q 2867 122 3104 96 
L 3104 0 
z
" transform="scale(0.015625)"/>
      <path id="STIXGeneral-Regular-2212" d="M 3974 1408 
L 410 1408 
L 410 1830 
L 3974 1830 
L 3974 1408 
z
" transform="scale(0.015625)"/>
      <path id="STIXGeneral-Regular-6f" d="M 3008 1478 
Q 3008 806 2608 371 
Q 2208 -64 1568 -64 
Q 979 -64 582 368 
Q 186 800 186 1459 
Q 186 2125 582 2534 
Q 979 2944 1626 2944 
Q 2221 2944 2614 2537 
Q 3008 2131 3008 1478 
z
M 2432 1306 
Q 2432 2035 2112 2445 
Q 1856 2765 1504 2765 
Q 1171 2765 966 2493 
Q 762 2221 762 1747 
Q 762 928 1101 435 
Q 1318 115 1677 115 
Q 2029 115 2230 432 
Q 2432 749 2432 1306 
z
" transform="scale(0.015625)"/>
      <path id="STIXGeneral-Regular-75" d="M 3072 320 
L 3072 230 
Q 2573 96 2195 -58 
L 2163 -38 
L 2163 486 
L 2150 486 
Q 1747 -64 1235 -64 
Q 870 -64 662 160 
Q 454 384 454 755 
L 454 2362 
Q 454 2598 371 2688 
Q 288 2778 58 2790 
L 58 2880 
L 992 2880 
L 992 813 
Q 992 595 1123 451 
Q 1254 307 1446 307 
Q 1760 307 1984 506 
Q 2067 582 2099 649 
Q 2131 717 2131 877 
L 2131 2355 
Q 2131 2605 2041 2678 
Q 1952 2752 1658 2771 
L 1658 2880 
L 2669 2880 
L 2669 685 
Q 2669 461 2742 390 
Q 2816 320 3034 320 
L 3072 320 
z
" transform="scale(0.015625)"/>
      <path id="STIXGeneral-Regular-74" d="M 1702 493 
L 1786 422 
Q 1478 -64 1011 -64 
Q 448 -64 448 749 
L 448 2675 
L 109 2675 
Q 83 2694 83 2720 
Q 83 2771 192 2842 
Q 435 2982 813 3526 
Q 826 3546 874 3606 
Q 922 3667 941 3706 
Q 986 3706 986 3622 
L 986 2880 
L 1632 2880 
L 1632 2675 
L 986 2675 
L 986 845 
Q 986 538 1062 403 
Q 1139 269 1318 269 
Q 1510 269 1702 493 
z
" transform="scale(0.015625)"/>
      <path id="STIXGeneral-Italic-41" d="M 3610 0 
L 2042 0 
L 2042 102 
Q 2330 115 2432 192 
Q 2534 269 2534 442 
Q 2534 493 2522 608 
L 2394 1446 
L 986 1446 
L 608 736 
Q 467 474 467 314 
Q 467 122 864 102 
L 864 0 
L -326 0 
L -326 102 
Q -109 147 28 307 
Q 166 467 531 1101 
L 2355 4275 
L 2522 4275 
L 3110 736 
Q 3174 339 3264 230 
Q 3354 122 3610 102 
L 3610 0 
z
M 2362 1677 
L 2074 3360 
L 1120 1677 
L 2362 1677 
z
" transform="scale(0.015625)"/>
      <path id="STIXGeneral-Regular-7c" d="M 851 -90 
L 429 -90 
L 429 4326 
L 851 4326 
L 851 -90 
z
" transform="scale(0.015625)"/>
      <path id="STIXGeneral-Regular-28" d="M 1946 -1030 
L 1869 -1133 
Q 1126 -710 716 32 
Q 307 774 307 1613 
Q 307 3386 1888 4326 
L 1946 4224 
Q 1293 3667 1075 3126 
Q 858 2586 858 1632 
Q 858 685 1082 96 
Q 1306 -493 1946 -1030 
z
" transform="scale(0.015625)"/>
      <path id="STIXGeneral-Regular-30" d="M 3046 2112 
Q 3046 1683 2963 1302 
Q 2880 922 2717 602 
Q 2554 282 2266 96 
Q 1978 -90 1600 -90 
Q 1210 -90 915 108 
Q 621 307 461 640 
Q 301 973 227 1350 
Q 154 1728 154 2150 
Q 154 2746 301 3222 
Q 448 3699 790 4012 
Q 1133 4326 1626 4326 
Q 2253 4326 2649 3712 
Q 3046 3098 3046 2112 
z
M 2432 2080 
Q 2432 3091 2217 3625 
Q 2003 4160 1587 4160 
Q 1190 4160 979 3622 
Q 768 3085 768 2106 
Q 768 1120 979 598 
Q 1190 77 1600 77 
Q 2003 77 2217 598 
Q 2432 1120 2432 2080 
z
" transform="scale(0.015625)"/>
      <path id="STIXGeneral-Regular-29" d="M 186 4224 
L 262 4326 
Q 992 3891 1408 3148 
Q 1824 2406 1824 1581 
Q 1824 -166 243 -1133 
L 186 -1030 
Q 845 -486 1059 54 
Q 1274 595 1274 1562 
Q 1274 2534 1059 3120 
Q 845 3706 186 4224 
z
" transform="scale(0.015625)"/>
      <path id="STIXGeneral-Regular-34" d="M 3027 1069 
L 2368 1069 
L 2368 0 
L 1869 0 
L 1869 1069 
L 77 1069 
L 77 1478 
L 2086 4326 
L 2368 4326 
L 2368 1478 
L 3027 1478 
L 3027 1069 
z
M 1869 1478 
L 1869 3674 
L 333 1478 
L 1869 1478 
z
" transform="scale(0.015625)"/>
      <path id="STIXGeneral-Regular-6d" d="M 4960 0 
L 3565 0 
L 3565 96 
Q 3834 122 3907 208 
Q 3981 294 3981 576 
L 3981 1894 
Q 3981 2278 3869 2444 
Q 3757 2611 3488 2611 
Q 3264 2611 3107 2521 
Q 2950 2432 2803 2221 
L 2803 608 
Q 2803 301 2896 201 
Q 2989 102 3264 96 
L 3264 0 
L 1830 0 
L 1830 96 
Q 2112 115 2189 188 
Q 2266 262 2266 550 
L 2266 1901 
Q 2266 2611 1850 2611 
Q 1670 2611 1468 2531 
Q 1267 2451 1171 2336 
Q 1088 2240 1088 2227 
L 1088 448 
Q 1088 243 1177 176 
Q 1267 109 1523 96 
L 1523 0 
L 102 0 
L 102 96 
Q 371 102 460 195 
Q 550 288 550 563 
L 550 2150 
Q 550 2387 499 2480 
Q 448 2573 326 2573 
Q 230 2573 122 2547 
L 122 2656 
Q 557 2778 1011 2944 
L 1062 2925 
L 1062 2451 
L 1075 2451 
Q 1363 2752 1584 2848 
Q 1805 2944 2054 2944 
Q 2560 2944 2733 2406 
Q 3232 2944 3776 2944 
Q 4518 2944 4518 1792 
L 4518 493 
Q 4518 282 4582 202 
Q 4646 122 4794 109 
L 4960 96 
L 4960 0 
z
" transform="scale(0.015625)"/>
      <path id="STIXGeneral-Regular-2264" d="M 4026 326 
L 410 2074 
L 410 2138 
L 4026 3898 
L 4026 3482 
L 1261 2106 
L 4026 730 
L 4026 326 
z
M 4026 -659 
L 410 -659 
L 410 -237 
L 4026 -237 
L 4026 -659 
z
" transform="scale(0.015625)"/>
      <path id="STIXGeneral-Regular-61" d="M 2829 422 
L 2829 243 
Q 2586 -64 2253 -64 
Q 1888 -64 1843 403 
L 1837 403 
Q 1427 -64 909 -64 
Q 608 -64 422 112 
Q 237 288 237 602 
Q 237 1050 685 1350 
Q 992 1555 1837 1869 
L 1837 2214 
Q 1837 2502 1699 2646 
Q 1562 2790 1338 2790 
Q 1146 2790 1018 2697 
Q 890 2605 890 2477 
Q 890 2419 909 2348 
Q 928 2278 928 2208 
Q 928 2112 841 2029 
Q 755 1946 634 1946 
Q 525 1946 441 2029 
Q 358 2112 358 2240 
Q 358 2547 685 2752 
Q 986 2944 1421 2944 
Q 1939 2944 2176 2656 
Q 2291 2522 2323 2384 
Q 2355 2246 2355 1946 
L 2355 723 
Q 2355 301 2554 301 
Q 2682 301 2829 422 
z
M 1837 813 
L 1837 1715 
Q 1248 1510 1018 1293 
Q 800 1094 800 800 
Q 800 557 921 432 
Q 1043 307 1242 307 
Q 1453 307 1613 410 
Q 1747 506 1792 589 
Q 1837 672 1837 813 
z
" transform="scale(0.015625)"/>
      <path id="STIXGeneral-Regular-78" d="M 3066 0 
L 1779 0 
L 1779 96 
Q 1939 109 1987 137 
Q 2035 166 2035 250 
Q 2035 307 1997 365 
L 1414 1261 
L 909 474 
Q 781 275 781 211 
Q 781 96 1037 96 
L 1037 0 
L 109 0 
L 109 96 
Q 269 109 355 169 
Q 442 230 576 422 
L 1306 1478 
L 704 2400 
Q 557 2624 454 2704 
Q 352 2784 211 2784 
L 154 2784 
L 154 2880 
L 1478 2880 
L 1478 2784 
Q 1203 2778 1203 2643 
Q 1203 2509 1498 2074 
Q 1581 1958 1587 1946 
Q 1619 1990 1779 2227 
Q 1811 2285 1856 2349 
Q 1901 2413 1923 2451 
Q 1946 2490 1971 2528 
Q 1997 2566 2006 2595 
Q 2016 2624 2016 2643 
Q 2016 2765 1760 2784 
L 1760 2880 
L 2771 2880 
L 2771 2784 
Q 2445 2771 2253 2502 
L 1722 1734 
L 2541 480 
Q 2790 96 3066 96 
L 3066 0 
z
" transform="scale(0.015625)"/>
     </defs>
     <use xlink:href="#STIXGeneral-Italic-64" transform="translate(0 39.5)"/>
     <use xlink:href="#STIXGeneral-Italic-48" transform="translate(49.999985 39.5)"/>
     <use xlink:href="#STIXGeneral-Italic-64" transform="translate(22 -61.34375)"/>
     <use xlink:href="#STIXGeneral-Italic-74" transform="translate(71.999985 -61.34375)"/>
     <use xlink:href="#STIXGeneral-Regular-3d" transform="translate(149.139963 0.40625)"/>
     <use xlink:href="#STIXGeneral-Italic-51" transform="translate(232.079944 56.40625)"/>
     <use xlink:href="#STIXGeneral-Regular-69" transform="translate(304.279926 43.178125) scale(0.7)"/>
     <use xlink:href="#STIXGeneral-Regular-6e" transform="translate(323.739917 43.178125) scale(0.7)"/>
     <use xlink:href="#STIXGeneral-Regular-2212" transform="translate(377.589278 56.40625)"/>
     <use xlink:href="#STIXGeneral-Italic-51" transform="translate(460.529259 56.40625)"/>
     <use xlink:href="#STIXGeneral-Regular-6f" transform="translate(532.72924 43.178125) scale(0.7)"/>
     <use xlink:href="#STIXGeneral-Regular-75" transform="translate(567.72923 43.178125) scale(0.7)"/>
     <use xlink:href="#STIXGeneral-Regular-74" transform="translate(602.729219 43.178125) scale(0.7)"/>
     <use xlink:href="#STIXGeneral-Italic-41" transform="translate(399.079944 -59.84375)"/>
     <use xlink:href="#STIXGeneral-Regular-7c" transform="translate(711.298567 0.40625)"/>
     <use xlink:href="#STIXGeneral-Italic-48" transform="translate(803.498534 0.40625)"/>
     <use xlink:href="#STIXGeneral-Regular-28" transform="translate(875.698515 0.40625)"/>
     <use xlink:href="#STIXGeneral-Regular-30" transform="translate(908.998503 0.40625)"/>
     <use xlink:href="#STIXGeneral-Regular-29" transform="translate(958.998488 0.40625)"/>
     <use xlink:href="#STIXGeneral-Regular-3d" transform="translate(1006.738472 0.40625)"/>
     <use xlink:href="#STIXGeneral-Regular-34" transform="translate(1089.678453 0.40625)"/>
     <use xlink:href="#STIXGeneral-Regular-6d" transform="translate(1151.712009 0.40625)"/>
     <use xlink:href="#STIXGeneral-Regular-7c" transform="translate(1301.711978 0.40625)"/>
     <use xlink:href="#STIXGeneral-Regular-30" transform="translate(1393.911945 0.40625)"/>
     <use xlink:href="#STIXGeneral-Regular-2264" transform="translate(1458.351926 0.40625)"/>
     <use xlink:href="#STIXGeneral-Italic-48" transform="translate(1541.291907 0.40625)"/>
     <use xlink:href="#STIXGeneral-Regular-2264" transform="translate(1627.931885 0.40625)"/>
     <use xlink:href="#STIXGeneral-Italic-48" transform="translate(1710.871866 0.40625)"/>
     <use xlink:href="#STIXGeneral-Regular-6d" transform="translate(1783.071848 -12.821875) scale(0.7)"/>
     <use xlink:href="#STIXGeneral-Regular-61" transform="translate(1837.531839 -12.821875) scale(0.7)"/>
     <use xlink:href="#STIXGeneral-Regular-78" transform="translate(1868.611835 -12.821875) scale(0.7)"/>
     <path d="M 0 13.203125 
L 0 19.453125 
L 122.199966 19.453125 
L 122.199966 13.203125 
L 0 13.203125 
z
"/>
     <path d="M 232.079944 13.203125 
L 232.079944 19.453125 
L 626.598586 19.453125 
L 626.598586 13.203125 
L 232.079944 13.203125 
z
"/>
    </g>
   </g>
   <g id="text_3">
    <!-- $Q_{\mathrm{in}}$ -->
    <g style="fill: #0f172a" transform="translate(116.58 198.749062) scale(0.14 -0.14)">
     <use xlink:href="#STIXGeneral-Italic-51" transform="translate(0 0.40625)"/>
     <use xlink:href="#STIXGeneral-Regular-69" transform="translate(72.199982 -12.821875) scale(0.7)"/>
     <use xlink:href="#STIXGeneral-Regular-6e" transform="translate(91.659973 -12.821875) scale(0.7)"/>
    </g>
   </g>
   <g id="text_4">
    <!-- $Q_{\mathrm{out}}$ -->
    <g style="fill: #0f172a" transform="translate(114.13 309.629063) scale(0.14 -0.14)">
     <use xlink:href="#STIXGeneral-Italic-51" transform="translate(0 0.40625)"/>
     <use xlink:href="#STIXGeneral-Regular-6f" transform="translate(72.199982 -12.821875) scale(0.7)"/>
     <use xlink:href="#STIXGeneral-Regular-75" transform="translate(107.199971 -12.821875) scale(0.7)"/>
     <use xlink:href="#STIXGeneral-Regular-74" transform="translate(142.19996 -12.821875) scale(0.7)"/>
    </g>
   </g>
   <g id="text_5">
    <!-- + -->
    <g style="fill: #059669" transform="translate(258.876 220.068) scale(0.16 -0.16)">
     <defs>
      <path id="Arial-BoldMT-2b" d="M 1466 659 
L 1466 1850 
L 266 1850 
L 266 2672 
L 1466 2672 
L 1466 3863 
L 2266 3863 
L 2266 2672 
L 3469 2672 
L 3469 1850 
L 2266 1850 
L 2266 659 
L 1466 659 
z
" transform="scale(0.015625)"/>
     </defs>
     <use xlink:href="#Arial-BoldMT-2b"/>
    </g>
   </g>
   <g id="text_6">
    <!-- $-$ -->
    <g style="fill: #dc2626" transform="translate(258.876 286.596) scale(0.2 -0.2)">
     <use xlink:href="#STIXGeneral-Regular-2212" transform="translate(0 0.40625)"/>
    </g>
   </g>
   <g id="text_7">
    <!-- $\dfrac{1}{A}$ -->
    <g style="fill: #0f172a" transform="translate(431.01 254.61) scale(0.18 -0.18)">
     <defs>
      <path id="STIXGeneral-Regular-31" d="M 2522 0 
L 755 0 
L 755 96 
Q 1107 115 1235 227 
Q 1363 339 1363 608 
L 1363 3482 
Q 1363 3795 1171 3795 
Q 1082 3795 883 3718 
L 710 3654 
L 710 3744 
L 1856 4326 
L 1914 4307 
L 1914 486 
Q 1914 275 2042 185 
Q 2170 96 2522 96 
L 2522 0 
z
" transform="scale(0.015625)"/>
     </defs>
     <use xlink:href="#STIXGeneral-Regular-31" transform="translate(6 38.40625)"/>
     <use xlink:href="#STIXGeneral-Italic-41" transform="translate(0 -59.640625)"/>
     <path d="M 0 13.40625 
L 0 19.65625 
L 61.099991 19.65625 
L 61.099991 13.40625 
L 0 13.40625 
z
"/>
    </g>
   </g>
   <g id="text_8">
    <!-- $\dfrac{1}{s}$ -->
    <g style="fill: #0f172a" transform="translate(659.43 257.93) scale(0.22 -0.22)">
     <defs>
      <path id="STIXGeneral-Italic-73" d="M 2342 2829 
L 2214 1933 
L 2112 1933 
Q 2022 2675 1542 2675 
Q 1370 2675 1267 2579 
Q 1165 2483 1165 2310 
Q 1165 2067 1510 1658 
Q 1946 1152 1946 787 
Q 1946 397 1686 163 
Q 1427 -70 1024 -70 
Q 838 -70 672 -6 
Q 538 51 390 51 
Q 262 51 205 -83 
L 102 -83 
L 230 934 
L 333 934 
Q 461 64 973 64 
Q 1203 64 1331 192 
Q 1459 320 1459 557 
Q 1459 845 1101 1293 
Q 698 1798 698 2131 
Q 698 2451 909 2636 
Q 1120 2822 1472 2822 
Q 1600 2822 1830 2758 
Q 1971 2714 2061 2714 
Q 2189 2714 2253 2829 
L 2342 2829 
z
" transform="scale(0.015625)"/>
     </defs>
     <use xlink:href="#STIXGeneral-Regular-31" transform="translate(0 38.40625)"/>
     <use xlink:href="#STIXGeneral-Italic-73" transform="translate(6 -37.046875)"/>
     <path d="M 0 13.40625 
L 0 19.65625 
L 49.999985 19.65625 
L 49.999985 13.40625 
L 0 13.40625 
z
"/>
    </g>
   </g>
   <g id="text_9">
    <!-- Integrator -->
    <g style="fill: #475569" transform="translate(644.960781 322.632) scale(0.1 -0.1)">
     <defs>
      <path id="ArialMT-49" d="M 597 0 
L 597 4581 
L 1203 4581 
L 1203 0 
L 597 0 
z
" transform="scale(0.015625)"/>
      <path id="ArialMT-6e" d="M 422 0 
L 422 3319 
L 928 3319 
L 928 2847 
Q 1294 3394 1984 3394 
Q 2284 3394 2536 3286 
Q 2788 3178 2913 3003 
Q 3038 2828 3088 2588 
Q 3119 2431 3119 2041 
L 3119 0 
L 2556 0 
L 2556 2019 
Q 2556 2363 2490 2533 
Q 2425 2703 2258 2804 
Q 2091 2906 1866 2906 
Q 1506 2906 1245 2678 
Q 984 2450 984 1813 
L 984 0 
L 422 0 
z
" transform="scale(0.015625)"/>
      <path id="ArialMT-74" d="M 1650 503 
L 1731 6 
Q 1494 -44 1306 -44 
Q 1000 -44 831 53 
Q 663 150 594 308 
Q 525 466 525 972 
L 525 2881 
L 113 2881 
L 113 3319 
L 525 3319 
L 525 4141 
L 1084 4478 
L 1084 3319 
L 1650 3319 
L 1650 2881 
L 1084 2881 
L 1084 941 
Q 1084 700 1114 631 
Q 1144 563 1211 522 
Q 1278 481 1403 481 
Q 1497 481 1650 503 
z
" transform="scale(0.015625)"/>
      <path id="ArialMT-65" d="M 2694 1069 
L 3275 997 
Q 3138 488 2766 206 
Q 2394 -75 1816 -75 
Q 1088 -75 661 373 
Q 234 822 234 1631 
Q 234 2469 665 2931 
Q 1097 3394 1784 3394 
Q 2450 3394 2872 2941 
Q 3294 2488 3294 1666 
Q 3294 1616 3291 1516 
L 816 1516 
Q 847 969 1125 678 
Q 1403 388 1819 388 
Q 2128 388 2347 550 
Q 2566 713 2694 1069 
z
M 847 1978 
L 2700 1978 
Q 2663 2397 2488 2606 
Q 2219 2931 1791 2931 
Q 1403 2931 1139 2672 
Q 875 2413 847 1978 
z
" transform="scale(0.015625)"/>
      <path id="ArialMT-67" d="M 319 -275 
L 866 -356 
Q 900 -609 1056 -725 
Q 1266 -881 1628 -881 
Q 2019 -881 2231 -725 
Q 2444 -569 2519 -288 
Q 2563 -116 2559 434 
Q 2191 0 1641 0 
Q 956 0 581 494 
Q 206 988 206 1678 
Q 206 2153 378 2554 
Q 550 2956 876 3175 
Q 1203 3394 1644 3394 
Q 2231 3394 2613 2919 
L 2613 3319 
L 3131 3319 
L 3131 450 
Q 3131 -325 2973 -648 
Q 2816 -972 2473 -1159 
Q 2131 -1347 1631 -1347 
Q 1038 -1347 672 -1080 
Q 306 -813 319 -275 
z
M 784 1719 
Q 784 1066 1043 766 
Q 1303 466 1694 466 
Q 2081 466 2343 764 
Q 2606 1063 2606 1700 
Q 2606 2309 2336 2618 
Q 2066 2928 1684 2928 
Q 1309 2928 1046 2623 
Q 784 2319 784 1719 
z
" transform="scale(0.015625)"/>
      <path id="ArialMT-72" d="M 416 0 
L 416 3319 
L 922 3319 
L 922 2816 
Q 1116 3169 1280 3281 
Q 1444 3394 1641 3394 
Q 1925 3394 2219 3213 
L 2025 2691 
Q 1819 2813 1613 2813 
Q 1428 2813 1281 2702 
Q 1134 2591 1072 2394 
Q 978 2094 978 1738 
L 978 0 
L 416 0 
z
" transform="scale(0.015625)"/>
      <path id="ArialMT-61" d="M 2588 409 
Q 2275 144 1986 34 
Q 1697 -75 1366 -75 
Q 819 -75 525 192 
Q 231 459 231 875 
Q 231 1119 342 1320 
Q 453 1522 633 1644 
Q 813 1766 1038 1828 
Q 1203 1872 1538 1913 
Q 2219 1994 2541 2106 
Q 2544 2222 2544 2253 
Q 2544 2597 2384 2738 
Q 2169 2928 1744 2928 
Q 1347 2928 1158 2789 
Q 969 2650 878 2297 
L 328 2372 
Q 403 2725 575 2942 
Q 747 3159 1072 3276 
Q 1397 3394 1825 3394 
Q 2250 3394 2515 3294 
Q 2781 3194 2906 3042 
Q 3031 2891 3081 2659 
Q 3109 2516 3109 2141 
L 3109 1391 
Q 3109 606 3145 398 
Q 3181 191 3288 0 
L 2700 0 
Q 2613 175 2588 409 
z
M 2541 1666 
Q 2234 1541 1622 1453 
Q 1275 1403 1131 1340 
Q 988 1278 909 1158 
Q 831 1038 831 891 
Q 831 666 1001 516 
Q 1172 366 1500 366 
Q 1825 366 2078 508 
Q 2331 650 2450 897 
Q 2541 1088 2541 1459 
L 2541 1666 
z
" transform="scale(0.015625)"/>
      <path id="ArialMT-6f" d="M 213 1659 
Q 213 2581 725 3025 
Q 1153 3394 1769 3394 
Q 2453 3394 2887 2945 
Q 3322 2497 3322 1706 
Q 3322 1066 3130 698 
Q 2938 331 2570 128 
Q 2203 -75 1769 -75 
Q 1072 -75 642 372 
Q 213 819 213 1659 
z
M 791 1659 
Q 791 1022 1069 705 
Q 1347 388 1769 388 
Q 2188 388 2466 706 
Q 2744 1025 2744 1678 
Q 2744 2294 2464 2611 
Q 2184 2928 1769 2928 
Q 1347 2928 1069 2612 
Q 791 2297 791 1659 
z
" transform="scale(0.015625)"/>
     </defs>
     <use xlink:href="#ArialMT-49"/>
     <use xlink:href="#ArialMT-6e" transform="translate(27.783203 0)"/>
     <use xlink:href="#ArialMT-74" transform="translate(83.398438 0)"/>
     <use xlink:href="#ArialMT-65" transform="translate(111.181641 0)"/>
     <use xlink:href="#ArialMT-67" transform="translate(166.796875 0)"/>
     <use xlink:href="#ArialMT-72" transform="translate(222.412109 0)"/>
     <use xlink:href="#ArialMT-61" transform="translate(255.712891 0)"/>
     <use xlink:href="#ArialMT-74" transform="translate(311.328125 0)"/>
     <use xlink:href="#ArialMT-6f" transform="translate(339.111328 0)"/>
     <use xlink:href="#ArialMT-72" transform="translate(394.726562 0)"/>
    </g>
   </g>
   <g id="text_10">
    <!-- Saturation -->
    <g style="fill: #0f172a" transform="translate(825.788281 254.189063) scale(0.14 -0.14)">
     <defs>
      <path id="Arial-BoldMT-69" d="M 459 3769 
L 459 4581 
L 1338 4581 
L 1338 3769 
L 459 3769 
z
M 459 0 
L 459 3319 
L 1338 3319 
L 1338 0 
L 459 0 
z
" transform="scale(0.015625)"/>
     </defs>
     <use xlink:href="#Arial-BoldMT-53"/>
     <use xlink:href="#Arial-BoldMT-61" transform="translate(66.699219 0)"/>
     <use xlink:href="#Arial-BoldMT-74" transform="translate(122.314453 0)"/>
     <use xlink:href="#Arial-BoldMT-75" transform="translate(155.615234 0)"/>
     <use xlink:href="#Arial-BoldMT-72" transform="translate(216.699219 0)"/>
     <use xlink:href="#Arial-BoldMT-61" transform="translate(255.615234 0)"/>
     <use xlink:href="#Arial-BoldMT-74" transform="translate(311.230469 0)"/>
     <use xlink:href="#Arial-BoldMT-69" transform="translate(344.53125 0)"/>
     <use xlink:href="#Arial-BoldMT-6f" transform="translate(372.314453 0)"/>
     <use xlink:href="#Arial-BoldMT-6e" transform="translate(433.398438 0)"/>
    </g>
   </g>
   <g id="text_11">
    <!-- $H(t)$ -->
    <g style="fill: #0f172a" transform="translate(1041.08 254.7075) scale(0.16 -0.16)">
     <use xlink:href="#STIXGeneral-Italic-48" transform="translate(0 0.40625)"/>
     <use xlink:href="#STIXGeneral-Regular-28" transform="translate(72.199982 0.40625)"/>
     <use xlink:href="#STIXGeneral-Italic-74" transform="translate(105.499969 0.40625)"/>
     <use xlink:href="#STIXGeneral-Regular-29" transform="translate(133.299957 0.40625)"/>
    </g>
   </g>
   <g id="text_12">
    <!-- $(Q_{\mathrm{in}} - Q_{\mathrm{out}}) \times \frac{1}{A} \;\rightarrow\; \int \;\rightarrow\; \mathrm{Sat} \;\rightarrow\; H(t)$ -->
    <g style="fill: #0f172a" transform="translate(497.1 400.248) scale(0.12 -0.12)">
     <defs>
      <path id="STIXGeneral-Regular-d7" d="M 3821 141 
L 3526 -160 
L 2048 1312 
L 570 -160 
L 275 134 
L 1747 1613 
L 275 3091 
L 576 3386 
L 2048 1914 
L 3526 3386 
L 3821 3098 
L 2349 1613 
L 3821 141 
z
" transform="scale(0.015625)"/>
      <path id="STIXGeneral-Regular-2192" d="M 5478 1651 
L 5478 1587 
Q 4742 1274 3955 365 
L 3827 486 
Q 4006 742 4352 1101 
Q 4442 1190 4442 1280 
Q 4442 1408 4275 1408 
L 448 1408 
L 448 1830 
L 4282 1830 
Q 4333 1830 4390 1878 
Q 4448 1926 4448 1971 
Q 4448 2042 4358 2131 
Q 4032 2445 3834 2746 
L 3962 2867 
Q 4755 1952 5478 1651 
z
" transform="scale(0.015625)"/>
      <path id="STIXGeneral-Regular-222b" d="M 1306 -794 
L 2470 3878 
Q 2816 5274 3674 5274 
Q 3859 5274 3974 5190 
Q 4090 5107 4090 4986 
Q 4090 4826 3990 4717 
Q 3891 4608 3757 4608 
Q 3558 4608 3558 4762 
Q 3558 4858 3616 4934 
Q 3674 5011 3674 5024 
Q 3674 5075 3603 5075 
Q 3379 5075 3238 4796 
Q 3098 4518 2957 3942 
L 1786 -755 
Q 1728 -979 1645 -1180 
Q 1562 -1382 1427 -1590 
Q 1293 -1798 1085 -1923 
Q 877 -2048 621 -2048 
Q 435 -2048 320 -1965 
Q 205 -1882 205 -1760 
Q 205 -1600 304 -1491 
Q 403 -1382 538 -1382 
Q 614 -1382 675 -1427 
Q 736 -1472 736 -1549 
Q 736 -1658 678 -1718 
Q 621 -1779 621 -1798 
Q 621 -1850 691 -1850 
Q 902 -1850 1036 -1590 
Q 1171 -1331 1306 -794 
z
" transform="scale(0.015625)"/>
      <path id="STIXGeneral-Regular-53" d="M 3002 2963 
L 2842 2963 
Q 2733 3360 2579 3565 
Q 2189 4064 1651 4064 
Q 1357 4064 1181 3894 
Q 1005 3725 1005 3456 
Q 1005 3328 1069 3206 
Q 1133 3085 1206 2998 
Q 1280 2912 1465 2784 
Q 1651 2656 1766 2589 
Q 1882 2522 2150 2362 
Q 2669 2061 2905 1763 
Q 3142 1466 3142 1107 
Q 3142 576 2771 243 
Q 2400 -90 1837 -90 
Q 1421 -90 1082 58 
Q 915 128 781 128 
Q 704 128 653 70 
Q 602 13 602 -83 
L 461 -83 
L 275 1274 
L 416 1274 
Q 845 141 1734 141 
Q 2074 141 2285 342 
Q 2496 544 2496 858 
Q 2496 1158 2310 1363 
Q 2003 1696 1235 2106 
Q 454 2522 454 3206 
Q 454 3718 768 4022 
Q 1082 4326 1568 4326 
Q 1907 4326 2240 4186 
Q 2413 4109 2522 4109 
Q 2688 4109 2726 4326 
L 2861 4326 
L 3002 2963 
z
" transform="scale(0.015625)"/>
     </defs>
     <use xlink:href="#STIXGeneral-Regular-28" transform="translate(0 0.8875)"/>
     <use xlink:href="#STIXGeneral-Italic-51" transform="translate(33.299988 0.8875)"/>
     <use xlink:href="#STIXGeneral-Regular-69" transform="translate(105.499969 -12.340625) scale(0.7)"/>
     <use xlink:href="#STIXGeneral-Regular-6e" transform="translate(124.959961 -12.340625) scale(0.7)"/>
     <use xlink:href="#STIXGeneral-Regular-2212" transform="translate(178.809322 0.8875)"/>
     <use xlink:href="#STIXGeneral-Italic-51" transform="translate(261.749303 0.8875)"/>
     <use xlink:href="#STIXGeneral-Regular-6f" transform="translate(333.949284 -12.340625) scale(0.7)"/>
     <use xlink:href="#STIXGeneral-Regular-75" transform="translate(368.949274 -12.340625) scale(0.7)"/>
     <use xlink:href="#STIXGeneral-Regular-74" transform="translate(403.949263 -12.340625) scale(0.7)"/>
     <use xlink:href="#STIXGeneral-Regular-29" transform="translate(427.818629 0.8875)"/>
     <use xlink:href="#STIXGeneral-Regular-d7" transform="translate(475.558614 0.8875)"/>
     <use xlink:href="#STIXGeneral-Regular-31" transform="translate(557.998595 38.684375) scale(0.7)"/>
     <use xlink:href="#STIXGeneral-Italic-41" transform="translate(553.998595 -39.323437) scale(0.7)"/>
     <use xlink:href="#STIXGeneral-Regular-2192" transform="translate(643.764296 0.8875)"/>
     <use xlink:href="#STIXGeneral-Regular-222b" transform="translate(770.859994 0.8875)"/>
     <use xlink:href="#STIXGeneral-Regular-2192" transform="translate(851.255695 0.8875)"/>
     <use xlink:href="#STIXGeneral-Regular-53" transform="translate(978.351393 0.8875)"/>
     <use xlink:href="#STIXGeneral-Regular-61" transform="translate(1033.951384 0.8875)"/>
     <use xlink:href="#STIXGeneral-Regular-74" transform="translate(1078.351378 0.8875)"/>
     <use xlink:href="#STIXGeneral-Regular-2192" transform="translate(1140.647073 0.8875)"/>
     <use xlink:href="#STIXGeneral-Italic-48" transform="translate(1267.742771 0.8875)"/>
     <use xlink:href="#STIXGeneral-Regular-28" transform="translate(1339.942752 0.8875)"/>
     <use xlink:href="#STIXGeneral-Italic-74" transform="translate(1373.24274 0.8875)"/>
     <use xlink:href="#STIXGeneral-Regular-29" transform="translate(1401.042728 0.8875)"/>
     <path d="M 553.998595 13.684375 
L 553.998595 19.934375 
L 596.768588 19.934375 
L 596.768588 13.684375 
L 553.998595 13.684375 
z
"/>
    </g>
   </g>
   <g id="text_13">
    <!-- $A$: Tank Area  |  IC: $4\,\mathrm{m}$  |  $H_{\max}$: Max Height -->
    <g style="fill: #475569" transform="translate(487.85 427.968) scale(0.1 -0.1)">
     <defs>
      <path id="ArialMT-3a" d="M 578 2678 
L 578 3319 
L 1219 3319 
L 1219 2678 
L 578 2678 
z
M 578 0 
L 578 641 
L 1219 641 
L 1219 0 
L 578 0 
z
" transform="scale(0.015625)"/>
      <path id="ArialMT-20" transform="scale(0.015625)"/>
      <path id="ArialMT-54" d="M 1659 0 
L 1659 4041 
L 150 4041 
L 150 4581 
L 3781 4581 
L 3781 4041 
L 2266 4041 
L 2266 0 
L 1659 0 
z
" transform="scale(0.015625)"/>
      <path id="ArialMT-6b" d="M 425 0 
L 425 4581 
L 988 4581 
L 988 1969 
L 2319 3319 
L 3047 3319 
L 1778 2088 
L 3175 0 
L 2481 0 
L 1384 1697 
L 988 1316 
L 988 0 
L 425 0 
z
" transform="scale(0.015625)"/>
      <path id="ArialMT-41" d="M -9 0 
L 1750 4581 
L 2403 4581 
L 4278 0 
L 3588 0 
L 3053 1388 
L 1138 1388 
L 634 0 
L -9 0 
z
M 1313 1881 
L 2866 1881 
L 2388 3150 
Q 2169 3728 2063 4100 
Q 1975 3659 1816 3225 
L 1313 1881 
z
" transform="scale(0.015625)"/>
      <path id="ArialMT-7c" d="M 588 -1347 
L 588 4659 
L 1078 4659 
L 1078 -1347 
L 588 -1347 
z
" transform="scale(0.015625)"/>
      <path id="ArialMT-43" d="M 3763 1606 
L 4369 1453 
Q 4178 706 3683 314 
Q 3188 -78 2472 -78 
Q 1731 -78 1267 223 
Q 803 525 561 1097 
Q 319 1669 319 2325 
Q 319 3041 592 3573 
Q 866 4106 1370 4382 
Q 1875 4659 2481 4659 
Q 3169 4659 3637 4309 
Q 4106 3959 4291 3325 
L 3694 3184 
Q 3534 3684 3231 3912 
Q 2928 4141 2469 4141 
Q 1941 4141 1586 3887 
Q 1231 3634 1087 3207 
Q 944 2781 944 2328 
Q 944 1744 1114 1308 
Q 1284 872 1643 656 
Q 2003 441 2422 441 
Q 2931 441 3284 734 
Q 3638 1028 3763 1606 
z
" transform="scale(0.015625)"/>
      <path id="ArialMT-4d" d="M 475 0 
L 475 4581 
L 1388 4581 
L 2472 1338 
Q 2622 884 2691 659 
Q 2769 909 2934 1394 
L 4031 4581 
L 4847 4581 
L 4847 0 
L 4263 0 
L 4263 3834 
L 2931 0 
L 2384 0 
L 1059 3900 
L 1059 0 
L 475 0 
z
" transform="scale(0.015625)"/>
      <path id="ArialMT-78" d="M 47 0 
L 1259 1725 
L 138 3319 
L 841 3319 
L 1350 2541 
Q 1494 2319 1581 2169 
Q 1719 2375 1834 2534 
L 2394 3319 
L 3066 3319 
L 1919 1756 
L 3153 0 
L 2463 0 
L 1781 1031 
L 1600 1309 
L 728 0 
L 47 0 
z
" transform="scale(0.015625)"/>
      <path id="ArialMT-48" d="M 513 0 
L 513 4581 
L 1119 4581 
L 1119 2700 
L 3500 2700 
L 3500 4581 
L 4106 4581 
L 4106 0 
L 3500 0 
L 3500 2159 
L 1119 2159 
L 1119 0 
L 513 0 
z
" transform="scale(0.015625)"/>
      <path id="ArialMT-69" d="M 425 3934 
L 425 4581 
L 988 4581 
L 988 3934 
L 425 3934 
z
M 425 0 
L 425 3319 
L 988 3319 
L 988 0 
L 425 0 
z
" transform="scale(0.015625)"/>
      <path id="ArialMT-68" d="M 422 0 
L 422 4581 
L 984 4581 
L 984 2938 
Q 1378 3394 1978 3394 
Q 2347 3394 2619 3248 
Q 2891 3103 3008 2847 
Q 3125 2591 3125 2103 
L 3125 0 
L 2563 0 
L 2563 2103 
Q 2563 2525 2380 2717 
Q 2197 2909 1863 2909 
Q 1613 2909 1392 2779 
Q 1172 2650 1078 2428 
Q 984 2206 984 1816 
L 984 0 
L 422 0 
z
" transform="scale(0.015625)"/>
     </defs>
     <use xlink:href="#STIXGeneral-Italic-41" transform="translate(0 0.203125)"/>
     <use xlink:href="#ArialMT-3a" transform="translate(61.099991 0.203125)"/>
     <use xlink:href="#ArialMT-20" transform="translate(88.883194 0.203125)"/>
     <use xlink:href="#ArialMT-54" transform="translate(116.666397 0.203125)"/>
     <use xlink:href="#ArialMT-61" transform="translate(177.750381 0.203125)"/>
     <use xlink:href="#ArialMT-6e" transform="translate(233.365616 0.203125)"/>
     <use xlink:href="#ArialMT-6b" transform="translate(288.98085 0.203125)"/>
     <use xlink:href="#ArialMT-20" transform="translate(338.98085 0.203125)"/>
     <use xlink:href="#ArialMT-41" transform="translate(366.764053 0.203125)"/>
     <use xlink:href="#ArialMT-72" transform="translate(433.463272 0.203125)"/>
     <use xlink:href="#ArialMT-65" transform="translate(466.764053 0.203125)"/>
     <use xlink:href="#ArialMT-61" transform="translate(522.379288 0.203125)"/>
     <use xlink:href="#ArialMT-20" transform="translate(577.994522 0.203125)"/>
     <use xlink:href="#ArialMT-20" transform="translate(605.777725 0.203125)"/>
     <use xlink:href="#ArialMT-7c" transform="translate(633.560928 0.203125)"/>
     <use xlink:href="#ArialMT-20" transform="translate(659.537491 0.203125)"/>
     <use xlink:href="#ArialMT-20" transform="translate(687.320694 0.203125)"/>
     <use xlink:href="#ArialMT-49" transform="translate(715.103897 0.203125)"/>
     <use xlink:href="#ArialMT-43" transform="translate(742.8871 0.203125)"/>
     <use xlink:href="#ArialMT-3a" transform="translate(815.103897 0.203125)"/>
     <use xlink:href="#ArialMT-20" transform="translate(842.8871 0.203125)"/>
     <use xlink:href="#STIXGeneral-Regular-34" transform="translate(870.670303 0.203125)"/>
     <use xlink:href="#STIXGeneral-Regular-6d" transform="translate(932.703859 0.203125)"/>
     <use xlink:href="#ArialMT-20" transform="translate(1010.503847 0.203125)"/>
     <use xlink:href="#ArialMT-20" transform="translate(1038.28705 0.203125)"/>
     <use xlink:href="#ArialMT-7c" transform="translate(1066.070253 0.203125)"/>
     <use xlink:href="#ArialMT-20" transform="translate(1092.046816 0.203125)"/>
     <use xlink:href="#ArialMT-20" transform="translate(1119.830019 0.203125)"/>
     <use xlink:href="#STIXGeneral-Italic-48" transform="translate(1147.613222 0.203125)"/>
     <use xlink:href="#STIXGeneral-Regular-6d" transform="translate(1219.813204 -13.025) scale(0.7)"/>
     <use xlink:href="#STIXGeneral-Regular-61" transform="translate(1274.273195 -13.025) scale(0.7)"/>
     <use xlink:href="#STIXGeneral-Regular-78" transform="translate(1305.353191 -13.025) scale(0.7)"/>
     <use xlink:href="#ArialMT-3a" transform="translate(1344.762555 0.203125)"/>
     <use xlink:href="#ArialMT-20" transform="translate(1372.545758 0.203125)"/>
     <use xlink:href="#ArialMT-4d" transform="translate(1400.328961 0.203125)"/>
     <use xlink:href="#ArialMT-61" transform="translate(1483.629743 0.203125)"/>
     <use xlink:href="#ArialMT-78" transform="translate(1539.244977 0.203125)"/>
     <use xlink:href="#ArialMT-20" transform="translate(1589.244977 0.203125)"/>
     <use xlink:href="#ArialMT-48" transform="translate(1617.02818 0.203125)"/>
     <use xlink:href="#ArialMT-65" transform="translate(1689.244977 0.203125)"/>
     <use xlink:href="#ArialMT-69" transform="translate(1744.860211 0.203125)"/>
     <use xlink:href="#ArialMT-67" transform="translate(1767.077008 0.203125)"/>
     <use xlink:href="#ArialMT-68" transform="translate(1822.692243 0.203125)"/>
     <use xlink:href="#ArialMT-74" transform="translate(1878.307477 0.203125)"/>
    </g>
   </g>
   <g id="wt_path_1_0">
    <path d="M 167.4 195.12 
Q 203.436 208.98 237.384976 222.037298 
" style="fill: none; stroke: #2563eb; stroke-width: 2; stroke-linecap: round"/>
    <path d="M 234.369552 218.734691 
L 237.384976 222.037298 
L 232.933635 222.468073 
" style="fill: none; stroke: #2563eb; stroke-width: 2; stroke-linecap: round"/>
   </g>
   <g id="wt_path_2_0">
    <path d="M 167.4 306 
Q 203.436 292.14 237.384976 279.082702 
" style="fill: none; stroke: #2563eb; stroke-width: 2; stroke-linecap: round"/>
    <path d="M 232.933635 278.651927 
L 237.384976 279.082702 
L 234.369552 282.385309 
" style="fill: none; stroke: #2563eb; stroke-width: 2; stroke-linecap: round"/>
   </g>
   <g id="wt_path_3_0">
    <path d="M 317.088 250.56 
Q 353.124 250.56 386.923932 250.56 
" style="fill: none; stroke: #059669; stroke-width: 2; stroke-linecap: round"/>
    <path d="M 382.923932 248.56 
L 386.923932 250.56 
L 382.923932 252.56 
" style="fill: none; stroke: #059669; stroke-width: 2; stroke-linecap: round"/>
   </g>
   <g id="wt_path_4_0">
    <path d="M 527.76 250.56 
Q 569.34 250.56 608.683932 250.56 
" style="fill: none; stroke: #059669; stroke-width: 2; stroke-linecap: round"/>
    <path d="M 604.683932 248.56 
L 608.683932 250.56 
L 604.683932 252.56 
" style="fill: none; stroke: #059669; stroke-width: 2; stroke-linecap: round"/>
   </g>
   <g id="wt_path_5_0">
    <path d="M 721.8 250.56 
Q 763.38 250.56 802.723932 250.56 
" style="fill: none; stroke: #2563eb; stroke-width: 2; stroke-linecap: round"/>
    <path d="M 798.723932 248.56 
L 802.723932 250.56 
L 798.723932 252.56 
" style="fill: none; stroke: #2563eb; stroke-width: 2; stroke-linecap: round"/>
   </g>
   <g id="wt_path_6_0">
    <path d="M 915.84 250.56 
Q 957.42 250.56 996.763932 250.56 
" style="fill: none; stroke: #9333ea; stroke-width: 2; stroke-linecap: round"/>
    <path d="M 992.763932 248.56 
L 996.763932 250.56 
L 992.763932 252.56 
" style="fill: none; stroke: #9333ea; stroke-width: 2; stroke-linecap: round"/>
   </g>
   <g id="text_14">
    <g id="patch_8">
     <path d="M 200.268 184.397063 
L 212.148 184.397063 
Q 213.948 184.397063 213.948 182.597063 
L 213.948 174.378938 
Q 213.948 172.578938 212.148 172.578938 
L 200.268 172.578938 
Q 198.468 172.578938 198.468 174.378938 
L 198.468 182.597063 
Q 198.468 184.397063 200.268 184.397063 
z
" style="fill: #ffffff; opacity: 0.9"/>
    </g>
    <!-- $Q_{\mathrm{in}}$ -->
    <g style="fill: #2563eb" transform="translate(200.268 180.820969) scale(0.09 -0.09)">
     <use xlink:href="#STIXGeneral-Italic-51" transform="translate(0 0.40625)"/>
     <use xlink:href="#STIXGeneral-Regular-69" transform="translate(72.199982 -12.821875) scale(0.7)"/>
     <use xlink:href="#STIXGeneral-Regular-6e" transform="translate(91.659973 -12.821875) scale(0.7)"/>
    </g>
   </g>
   <g id="text_15">
    <g id="patch_9">
     <path d="M 198.693 334.085062 
L 213.723 334.085062 
Q 215.523 334.085062 215.523 332.285062 
L 215.523 324.066937 
Q 215.523 322.266937 213.723 322.266937 
L 198.693 322.266937 
Q 196.893 322.266937 196.893 324.066937 
L 196.893 332.285062 
Q 196.893 334.085062 198.693 334.085062 
z
" style="fill: #ffffff; opacity: 0.9"/>
    </g>
    <!-- $Q_{\mathrm{out}}$ -->
    <g style="fill: #2563eb" transform="translate(198.693 330.508969) scale(0.09 -0.09)">
     <use xlink:href="#STIXGeneral-Italic-51" transform="translate(0 0.40625)"/>
     <use xlink:href="#STIXGeneral-Regular-6f" transform="translate(72.199982 -12.821875) scale(0.7)"/>
     <use xlink:href="#STIXGeneral-Regular-75" transform="translate(107.199971 -12.821875) scale(0.7)"/>
     <use xlink:href="#STIXGeneral-Regular-74" transform="translate(142.19996 -12.821875) scale(0.7)"/>
    </g>
   </g>
   <g id="text_16">
    <g id="patch_10">
     <path d="M 346.599 256.469063 
L 359.649 256.469063 
Q 361.449 256.469063 361.449 254.669062 
L 361.449 246.450938 
Q 361.449 244.650937 359.649 244.650937 
L 346.599 244.650937 
Q 344.799 244.650937 344.799 246.450938 
L 344.799 254.669062 
Q 344.799 256.469063 346.599 256.469063 
z
" style="fill: #ffffff; opacity: 0.9"/>
    </g>
    <!-- $\Delta Q$ -->
    <g style="fill: #059669" transform="translate(346.599 252.892969) scale(0.09 -0.09)">
     <defs>
      <path id="STIXGeneral-Regular-394" d="M 4320 0 
L 307 0 
L 2221 4314 
L 2349 4314 
L 4320 0 
z
M 3354 589 
L 2118 3405 
L 870 589 
L 3354 589 
z
" transform="scale(0.015625)"/>
     </defs>
     <use xlink:href="#STIXGeneral-Regular-394" transform="translate(0 0.59375)"/>
     <use xlink:href="#STIXGeneral-Italic-51" transform="translate(72.199982 0.59375)"/>
    </g>
   </g>
   <g id="text_17">
    <g id="patch_11">
     <path d="M 949.905 256.469063 
L 964.935 256.469063 
Q 966.735 256.469063 966.735 254.669062 
L 966.735 246.450938 
Q 966.735 244.650937 964.935 244.650937 
L 949.905 244.650937 
Q 948.105 244.650937 948.105 246.450938 
L 948.105 254.669062 
Q 948.105 256.469063 949.905 256.469063 
z
" style="fill: #ffffff; opacity: 0.9"/>
    </g>
    <!-- $H(t)$ -->
    <g style="fill: #9333ea" transform="translate(949.905 252.892969) scale(0.09 -0.09)">
     <use xlink:href="#STIXGeneral-Italic-48" transform="translate(0 0.40625)"/>
     <use xlink:href="#STIXGeneral-Regular-28" transform="translate(72.199982 0.40625)"/>
     <use xlink:href="#STIXGeneral-Italic-74" transform="translate(105.499969 0.40625)"/>
     <use xlink:href="#STIXGeneral-Regular-29" transform="translate(133.299957 0.40625)"/>
    </g>
   </g>
  </g>
 </g>
 <defs>
  <clipPath id="p4eae53df21">
   <rect x="28.8" y="28.8" width="1108.8" height="443.52"/>
  </clipPath>
 </defs>
</svg>
